G04 (created by PCBNEW (2013-07-07 BZR 4022)-stable) date 7/16/2015 11:13:14 AM*
%MOIN*%
G04 Gerber Fmt 3.4, Leading zero omitted, Abs format*
%FSLAX34Y34*%
G01*
G70*
G90*
G04 APERTURE LIST*
%ADD10C,0.00590551*%
%ADD11C,0.005*%
%ADD12C,0.015*%
%ADD13C,0.01*%
%ADD14C,0.0039*%
%ADD15C,0.012*%
%ADD16C,0.0026*%
%ADD17C,0.004*%
%ADD18C,0.002*%
%ADD19C,0.0118*%
%ADD20C,0.0079*%
%ADD21C,0.008*%
%ADD22C,0.0043*%
%ADD23C,0.011811*%
%ADD24R,0.0906X0.0197*%
%ADD25R,0.0984X0.0787*%
%ADD26C,0.0354*%
%ADD27R,0.2165X0.0787*%
%ADD28C,0.0593*%
%ADD29R,0.035X0.055*%
%ADD30R,0.055X0.035*%
%ADD31R,0.055X0.055*%
%ADD32C,0.055*%
%ADD33R,0.0472X0.0472*%
%ADD34R,0.062X0.09*%
%ADD35O,0.062X0.09*%
%ADD36R,0.0472X0.0118*%
%ADD37R,0.0118X0.0472*%
G04 APERTURE END LIST*
G54D10*
G54D11*
X92926Y-68730D02*
X93040Y-68730D01*
X92983Y-68930D02*
X92983Y-68730D01*
X93107Y-68854D02*
X93259Y-68854D01*
X93354Y-68930D02*
X93354Y-68730D01*
X93430Y-68730D01*
X93450Y-68740D01*
X93459Y-68750D01*
X93469Y-68769D01*
X93469Y-68797D01*
X93459Y-68816D01*
X93450Y-68826D01*
X93430Y-68835D01*
X93354Y-68835D01*
X93583Y-68930D02*
X93564Y-68921D01*
X93554Y-68911D01*
X93545Y-68892D01*
X93545Y-68835D01*
X93554Y-68816D01*
X93564Y-68807D01*
X93583Y-68797D01*
X93611Y-68797D01*
X93630Y-68807D01*
X93640Y-68816D01*
X93650Y-68835D01*
X93650Y-68892D01*
X93640Y-68911D01*
X93630Y-68921D01*
X93611Y-68930D01*
X93583Y-68930D01*
X93716Y-68797D02*
X93754Y-68930D01*
X93792Y-68835D01*
X93830Y-68930D01*
X93869Y-68797D01*
X94021Y-68921D02*
X94002Y-68930D01*
X93964Y-68930D01*
X93945Y-68921D01*
X93935Y-68902D01*
X93935Y-68826D01*
X93945Y-68807D01*
X93964Y-68797D01*
X94002Y-68797D01*
X94021Y-68807D01*
X94030Y-68826D01*
X94030Y-68845D01*
X93935Y-68864D01*
X94116Y-68930D02*
X94116Y-68797D01*
X94116Y-68835D02*
X94126Y-68816D01*
X94135Y-68807D01*
X94154Y-68797D01*
X94173Y-68797D01*
X84954Y-63130D02*
X84954Y-62930D01*
X85030Y-62930D01*
X85050Y-62940D01*
X85059Y-62950D01*
X85069Y-62969D01*
X85069Y-62997D01*
X85059Y-63016D01*
X85050Y-63026D01*
X85030Y-63035D01*
X84954Y-63035D01*
X85183Y-63130D02*
X85164Y-63121D01*
X85154Y-63111D01*
X85145Y-63092D01*
X85145Y-63035D01*
X85154Y-63016D01*
X85164Y-63007D01*
X85183Y-62997D01*
X85211Y-62997D01*
X85230Y-63007D01*
X85240Y-63016D01*
X85250Y-63035D01*
X85250Y-63092D01*
X85240Y-63111D01*
X85230Y-63121D01*
X85211Y-63130D01*
X85183Y-63130D01*
X85316Y-62997D02*
X85354Y-63130D01*
X85392Y-63035D01*
X85430Y-63130D01*
X85469Y-62997D01*
X85621Y-63121D02*
X85602Y-63130D01*
X85564Y-63130D01*
X85545Y-63121D01*
X85535Y-63102D01*
X85535Y-63026D01*
X85545Y-63007D01*
X85564Y-62997D01*
X85602Y-62997D01*
X85621Y-63007D01*
X85630Y-63026D01*
X85630Y-63045D01*
X85535Y-63064D01*
X85716Y-63130D02*
X85716Y-62997D01*
X85716Y-63035D02*
X85726Y-63016D01*
X85735Y-63007D01*
X85754Y-62997D01*
X85773Y-62997D01*
G54D12*
X84233Y-64684D02*
X84233Y-67716D01*
X83839Y-64684D02*
X83839Y-67716D01*
X83839Y-67716D02*
X87461Y-67716D01*
X87461Y-67716D02*
X87461Y-64684D01*
X87461Y-64684D02*
X83839Y-64684D01*
G54D10*
X94050Y-63250D02*
X94050Y-63400D01*
X94050Y-64550D02*
X94050Y-64400D01*
X97950Y-64550D02*
X97950Y-64400D01*
X97950Y-63250D02*
X97950Y-63400D01*
X98250Y-62900D02*
X98250Y-63400D01*
X98250Y-64900D02*
X98250Y-64400D01*
X93750Y-64900D02*
X93750Y-64400D01*
X93750Y-62900D02*
X93750Y-63400D01*
X94050Y-64550D02*
X94300Y-64800D01*
X94300Y-64800D02*
X97700Y-64800D01*
X97700Y-64800D02*
X97950Y-64550D01*
X97950Y-63250D02*
X97700Y-63000D01*
X97700Y-63000D02*
X94300Y-63000D01*
X94300Y-63000D02*
X94050Y-63250D01*
X98250Y-64900D02*
X93750Y-64900D01*
X93750Y-62900D02*
X98250Y-62900D01*
G54D13*
X84500Y-69750D02*
X84250Y-69500D01*
X84500Y-72750D02*
X84250Y-73000D01*
X97000Y-69750D02*
X97250Y-69500D01*
X97250Y-73000D02*
X97000Y-72750D01*
X97000Y-72750D02*
X97000Y-69750D01*
X97000Y-69750D02*
X91500Y-69750D01*
X91500Y-69750D02*
X91500Y-69500D01*
X97000Y-72750D02*
X84500Y-72750D01*
X84500Y-72750D02*
X84500Y-69750D01*
X84500Y-69750D02*
X90000Y-69750D01*
X90000Y-69750D02*
X90000Y-69500D01*
X84250Y-73000D02*
X97250Y-73000D01*
X97250Y-69500D02*
X84250Y-69500D01*
X97250Y-73000D02*
X97250Y-69500D01*
X84250Y-73000D02*
X84250Y-69500D01*
X96202Y-70475D02*
X95927Y-70054D01*
X95927Y-70054D02*
X95651Y-70475D01*
X95651Y-70475D02*
X96202Y-70475D01*
G54D14*
X91450Y-64600D02*
G75*
G03X91450Y-64600I-50J0D01*
G74*
G01*
X91850Y-64600D02*
X91450Y-64600D01*
X91450Y-64600D02*
X91450Y-64000D01*
X91450Y-64000D02*
X91850Y-64000D01*
X92250Y-64000D02*
X92650Y-64000D01*
X92650Y-64000D02*
X92650Y-64600D01*
X92650Y-64600D02*
X92250Y-64600D01*
X88625Y-63850D02*
G75*
G03X88625Y-63850I-50J0D01*
G74*
G01*
X89025Y-63850D02*
X88625Y-63850D01*
X88625Y-63850D02*
X88625Y-63250D01*
X88625Y-63250D02*
X89025Y-63250D01*
X89425Y-63250D02*
X89825Y-63250D01*
X89825Y-63250D02*
X89825Y-63850D01*
X89825Y-63850D02*
X89425Y-63850D01*
X97700Y-66400D02*
G75*
G03X97700Y-66400I-50J0D01*
G74*
G01*
X97200Y-66400D02*
X97600Y-66400D01*
X97600Y-66400D02*
X97600Y-67000D01*
X97600Y-67000D02*
X97200Y-67000D01*
X96800Y-67000D02*
X96400Y-67000D01*
X96400Y-67000D02*
X96400Y-66400D01*
X96400Y-66400D02*
X96800Y-66400D01*
X96400Y-67800D02*
G75*
G03X96400Y-67800I-50J0D01*
G74*
G01*
X96800Y-67800D02*
X96400Y-67800D01*
X96400Y-67800D02*
X96400Y-67200D01*
X96400Y-67200D02*
X96800Y-67200D01*
X97200Y-67200D02*
X97600Y-67200D01*
X97600Y-67200D02*
X97600Y-67800D01*
X97600Y-67800D02*
X97200Y-67800D01*
X94150Y-67750D02*
G75*
G03X94150Y-67750I-50J0D01*
G74*
G01*
X94100Y-67300D02*
X94100Y-67700D01*
X94100Y-67700D02*
X93500Y-67700D01*
X93500Y-67700D02*
X93500Y-67300D01*
X93500Y-66900D02*
X93500Y-66500D01*
X93500Y-66500D02*
X94100Y-66500D01*
X94100Y-66500D02*
X94100Y-66900D01*
X92150Y-66850D02*
G75*
G03X92150Y-66850I-50J0D01*
G74*
G01*
X92550Y-66850D02*
X92150Y-66850D01*
X92150Y-66850D02*
X92150Y-66250D01*
X92150Y-66250D02*
X92550Y-66250D01*
X92950Y-66250D02*
X93350Y-66250D01*
X93350Y-66250D02*
X93350Y-66850D01*
X93350Y-66850D02*
X92950Y-66850D01*
X92750Y-68450D02*
G75*
G03X92750Y-68450I-50J0D01*
G74*
G01*
X92700Y-68000D02*
X92700Y-68400D01*
X92700Y-68400D02*
X92100Y-68400D01*
X92100Y-68400D02*
X92100Y-68000D01*
X92100Y-67600D02*
X92100Y-67200D01*
X92100Y-67200D02*
X92700Y-67200D01*
X92700Y-67200D02*
X92700Y-67600D01*
X87810Y-67775D02*
G75*
G03X87810Y-67775I-50J0D01*
G74*
G01*
X87760Y-68225D02*
X87760Y-67825D01*
X87760Y-67825D02*
X88360Y-67825D01*
X88360Y-67825D02*
X88360Y-68225D01*
X88360Y-68625D02*
X88360Y-69025D01*
X88360Y-69025D02*
X87760Y-69025D01*
X87760Y-69025D02*
X87760Y-68625D01*
X91300Y-63250D02*
G75*
G03X91300Y-63250I-50J0D01*
G74*
G01*
X90800Y-63250D02*
X91200Y-63250D01*
X91200Y-63250D02*
X91200Y-63850D01*
X91200Y-63850D02*
X90800Y-63850D01*
X90400Y-63850D02*
X90000Y-63850D01*
X90000Y-63850D02*
X90000Y-63250D01*
X90000Y-63250D02*
X90400Y-63250D01*
X87525Y-63250D02*
G75*
G03X87525Y-63250I-50J0D01*
G74*
G01*
X87025Y-63250D02*
X87425Y-63250D01*
X87425Y-63250D02*
X87425Y-63850D01*
X87425Y-63850D02*
X87025Y-63850D01*
X86625Y-63850D02*
X86225Y-63850D01*
X86225Y-63850D02*
X86225Y-63250D01*
X86225Y-63250D02*
X86625Y-63250D01*
X98450Y-64550D02*
G75*
G03X98450Y-64550I-50J0D01*
G74*
G01*
X98400Y-65000D02*
X98400Y-64600D01*
X98400Y-64600D02*
X99000Y-64600D01*
X99000Y-64600D02*
X99000Y-65000D01*
X99000Y-65400D02*
X99000Y-65800D01*
X99000Y-65800D02*
X98400Y-65800D01*
X98400Y-65800D02*
X98400Y-65400D01*
X93650Y-64750D02*
G75*
G03X93650Y-64750I-50J0D01*
G74*
G01*
X93600Y-65200D02*
X93600Y-64800D01*
X93600Y-64800D02*
X94200Y-64800D01*
X94200Y-64800D02*
X94200Y-65200D01*
X94200Y-65600D02*
X94200Y-66000D01*
X94200Y-66000D02*
X93600Y-66000D01*
X93600Y-66000D02*
X93600Y-65600D01*
X91450Y-63850D02*
G75*
G03X91450Y-63850I-50J0D01*
G74*
G01*
X91850Y-63850D02*
X91450Y-63850D01*
X91450Y-63850D02*
X91450Y-63250D01*
X91450Y-63250D02*
X91850Y-63250D01*
X92250Y-63250D02*
X92650Y-63250D01*
X92650Y-63250D02*
X92650Y-63850D01*
X92650Y-63850D02*
X92250Y-63850D01*
X93450Y-64750D02*
G75*
G03X93450Y-64750I-50J0D01*
G74*
G01*
X92950Y-64750D02*
X93350Y-64750D01*
X93350Y-64750D02*
X93350Y-65350D01*
X93350Y-65350D02*
X92950Y-65350D01*
X92550Y-65350D02*
X92150Y-65350D01*
X92150Y-65350D02*
X92150Y-64750D01*
X92150Y-64750D02*
X92550Y-64750D01*
X92150Y-66100D02*
G75*
G03X92150Y-66100I-50J0D01*
G74*
G01*
X92550Y-66100D02*
X92150Y-66100D01*
X92150Y-66100D02*
X92150Y-65500D01*
X92150Y-65500D02*
X92550Y-65500D01*
X92950Y-65500D02*
X93350Y-65500D01*
X93350Y-65500D02*
X93350Y-66100D01*
X93350Y-66100D02*
X92950Y-66100D01*
G54D15*
X97700Y-69500D02*
X98700Y-69500D01*
X98700Y-69500D02*
X98700Y-72500D01*
X98700Y-72500D02*
X97700Y-72500D01*
X97700Y-72500D02*
X97700Y-69500D01*
X98700Y-70500D02*
X97700Y-70500D01*
G54D16*
X92982Y-68046D02*
X92854Y-68046D01*
X92854Y-68046D02*
X92854Y-68243D01*
X92982Y-68243D02*
X92854Y-68243D01*
X92982Y-68046D02*
X92982Y-68243D01*
X93227Y-68046D02*
X93168Y-68046D01*
X93168Y-68046D02*
X93168Y-68145D01*
X93227Y-68145D02*
X93168Y-68145D01*
X93227Y-68046D02*
X93227Y-68145D01*
X93032Y-68046D02*
X92973Y-68046D01*
X92973Y-68046D02*
X92973Y-68145D01*
X93032Y-68145D02*
X92973Y-68145D01*
X93032Y-68046D02*
X93032Y-68145D01*
X93178Y-68046D02*
X93022Y-68046D01*
X93022Y-68046D02*
X93022Y-68115D01*
X93178Y-68115D02*
X93022Y-68115D01*
X93178Y-68046D02*
X93178Y-68115D01*
X92982Y-67457D02*
X92854Y-67457D01*
X92854Y-67457D02*
X92854Y-67654D01*
X92982Y-67654D02*
X92854Y-67654D01*
X92982Y-67457D02*
X92982Y-67654D01*
X93346Y-67457D02*
X93218Y-67457D01*
X93218Y-67457D02*
X93218Y-67654D01*
X93346Y-67654D02*
X93218Y-67654D01*
X93346Y-67457D02*
X93346Y-67654D01*
X93032Y-67555D02*
X92973Y-67555D01*
X92973Y-67555D02*
X92973Y-67654D01*
X93032Y-67654D02*
X92973Y-67654D01*
X93032Y-67555D02*
X93032Y-67654D01*
X93227Y-67555D02*
X93168Y-67555D01*
X93168Y-67555D02*
X93168Y-67654D01*
X93227Y-67654D02*
X93168Y-67654D01*
X93227Y-67555D02*
X93227Y-67654D01*
X93178Y-67585D02*
X93022Y-67585D01*
X93022Y-67585D02*
X93022Y-67654D01*
X93178Y-67654D02*
X93022Y-67654D01*
X93178Y-67585D02*
X93178Y-67654D01*
X93139Y-67850D02*
X93061Y-67850D01*
X93061Y-67850D02*
X93061Y-67928D01*
X93139Y-67928D02*
X93061Y-67928D01*
X93139Y-67850D02*
X93139Y-67928D01*
X93336Y-68046D02*
X93218Y-68046D01*
X93218Y-68046D02*
X93218Y-68164D01*
X93336Y-68164D02*
X93218Y-68164D01*
X93336Y-68046D02*
X93336Y-68164D01*
X93346Y-68214D02*
X93257Y-68214D01*
X93257Y-68214D02*
X93257Y-68243D01*
X93346Y-68243D02*
X93257Y-68243D01*
X93346Y-68214D02*
X93346Y-68243D01*
G54D17*
X92874Y-68056D02*
X92874Y-67644D01*
X93326Y-67654D02*
X93326Y-68214D01*
G54D18*
X93305Y-68184D02*
G75*
G03X93305Y-68184I-28J0D01*
G74*
G01*
G54D17*
X93237Y-68243D02*
G75*
G03X92963Y-68243I-137J0D01*
G74*
G01*
X92963Y-67457D02*
G75*
G03X93237Y-67457I137J0D01*
G74*
G01*
G54D16*
X85154Y-63432D02*
X85154Y-63304D01*
X85154Y-63304D02*
X84957Y-63304D01*
X84957Y-63432D02*
X84957Y-63304D01*
X85154Y-63432D02*
X84957Y-63432D01*
X85154Y-63677D02*
X85154Y-63618D01*
X85154Y-63618D02*
X85055Y-63618D01*
X85055Y-63677D02*
X85055Y-63618D01*
X85154Y-63677D02*
X85055Y-63677D01*
X85154Y-63482D02*
X85154Y-63423D01*
X85154Y-63423D02*
X85055Y-63423D01*
X85055Y-63482D02*
X85055Y-63423D01*
X85154Y-63482D02*
X85055Y-63482D01*
X85154Y-63628D02*
X85154Y-63472D01*
X85154Y-63472D02*
X85085Y-63472D01*
X85085Y-63628D02*
X85085Y-63472D01*
X85154Y-63628D02*
X85085Y-63628D01*
X85743Y-63432D02*
X85743Y-63304D01*
X85743Y-63304D02*
X85546Y-63304D01*
X85546Y-63432D02*
X85546Y-63304D01*
X85743Y-63432D02*
X85546Y-63432D01*
X85743Y-63796D02*
X85743Y-63668D01*
X85743Y-63668D02*
X85546Y-63668D01*
X85546Y-63796D02*
X85546Y-63668D01*
X85743Y-63796D02*
X85546Y-63796D01*
X85645Y-63482D02*
X85645Y-63423D01*
X85645Y-63423D02*
X85546Y-63423D01*
X85546Y-63482D02*
X85546Y-63423D01*
X85645Y-63482D02*
X85546Y-63482D01*
X85645Y-63677D02*
X85645Y-63618D01*
X85645Y-63618D02*
X85546Y-63618D01*
X85546Y-63677D02*
X85546Y-63618D01*
X85645Y-63677D02*
X85546Y-63677D01*
X85615Y-63628D02*
X85615Y-63472D01*
X85615Y-63472D02*
X85546Y-63472D01*
X85546Y-63628D02*
X85546Y-63472D01*
X85615Y-63628D02*
X85546Y-63628D01*
X85350Y-63589D02*
X85350Y-63511D01*
X85350Y-63511D02*
X85272Y-63511D01*
X85272Y-63589D02*
X85272Y-63511D01*
X85350Y-63589D02*
X85272Y-63589D01*
X85154Y-63786D02*
X85154Y-63668D01*
X85154Y-63668D02*
X85036Y-63668D01*
X85036Y-63786D02*
X85036Y-63668D01*
X85154Y-63786D02*
X85036Y-63786D01*
X84986Y-63796D02*
X84986Y-63707D01*
X84986Y-63707D02*
X84957Y-63707D01*
X84957Y-63796D02*
X84957Y-63707D01*
X84986Y-63796D02*
X84957Y-63796D01*
G54D17*
X85144Y-63324D02*
X85556Y-63324D01*
X85546Y-63776D02*
X84986Y-63776D01*
G54D18*
X85044Y-63727D02*
G75*
G03X85044Y-63727I-28J0D01*
G74*
G01*
G54D17*
X84957Y-63687D02*
G75*
G03X84957Y-63413I0J137D01*
G74*
G01*
X85743Y-63413D02*
G75*
G03X85743Y-63687I0J-137D01*
G74*
G01*
G54D12*
X98300Y-67600D02*
X97800Y-67600D01*
X97800Y-67600D02*
X97800Y-66600D01*
X97800Y-66600D02*
X98300Y-66600D01*
X98300Y-68100D02*
X94300Y-68100D01*
X94300Y-68100D02*
X94300Y-66100D01*
X94300Y-66100D02*
X98300Y-66100D01*
X98300Y-66100D02*
X98300Y-68100D01*
G54D14*
X87850Y-63350D02*
G75*
G03X87850Y-63350I-50J0D01*
G74*
G01*
X87800Y-63800D02*
X87800Y-63400D01*
X87800Y-63400D02*
X88400Y-63400D01*
X88400Y-63400D02*
X88400Y-63800D01*
X88400Y-64200D02*
X88400Y-64600D01*
X88400Y-64600D02*
X87800Y-64600D01*
X87800Y-64600D02*
X87800Y-64200D01*
G54D19*
X88661Y-67378D02*
X88622Y-67339D01*
G54D20*
X89173Y-65016D02*
G75*
G03X89173Y-65016I-157J0D01*
G74*
G01*
G54D19*
X88622Y-67339D02*
X88622Y-64661D01*
X88622Y-64661D02*
X88661Y-64622D01*
X88661Y-64622D02*
X91339Y-64622D01*
X91339Y-64622D02*
X91378Y-64661D01*
X91378Y-64661D02*
X91378Y-67339D01*
X91378Y-67339D02*
X91339Y-67378D01*
X91339Y-67378D02*
X88661Y-67378D01*
G54D21*
X85373Y-66485D02*
X85392Y-66504D01*
X85411Y-66561D01*
X85411Y-66600D01*
X85392Y-66657D01*
X85354Y-66695D01*
X85316Y-66714D01*
X85240Y-66733D01*
X85183Y-66733D01*
X85107Y-66714D01*
X85069Y-66695D01*
X85030Y-66657D01*
X85011Y-66600D01*
X85011Y-66561D01*
X85030Y-66504D01*
X85050Y-66485D01*
X85011Y-66238D02*
X85011Y-66161D01*
X85030Y-66123D01*
X85069Y-66085D01*
X85145Y-66066D01*
X85278Y-66066D01*
X85354Y-66085D01*
X85392Y-66123D01*
X85411Y-66161D01*
X85411Y-66238D01*
X85392Y-66276D01*
X85354Y-66314D01*
X85278Y-66333D01*
X85145Y-66333D01*
X85069Y-66314D01*
X85030Y-66276D01*
X85011Y-66238D01*
X85411Y-65895D02*
X85011Y-65895D01*
X85411Y-65666D01*
X85011Y-65666D01*
X85411Y-65266D02*
X85411Y-65495D01*
X85411Y-65380D02*
X85011Y-65380D01*
X85069Y-65419D01*
X85107Y-65457D01*
X85126Y-65495D01*
G54D10*
X93247Y-63051D02*
X93414Y-63301D01*
X93414Y-63051D02*
X93247Y-63301D01*
X93640Y-63301D02*
X93497Y-63301D01*
X93569Y-63301D02*
X93569Y-63051D01*
X93545Y-63086D01*
X93521Y-63110D01*
X93497Y-63122D01*
G54D22*
X92817Y-64210D02*
X92807Y-64220D01*
X92779Y-64229D01*
X92760Y-64229D01*
X92732Y-64220D01*
X92713Y-64201D01*
X92704Y-64182D01*
X92695Y-64145D01*
X92695Y-64117D01*
X92704Y-64079D01*
X92713Y-64060D01*
X92732Y-64042D01*
X92760Y-64032D01*
X92779Y-64032D01*
X92807Y-64042D01*
X92817Y-64051D01*
X92986Y-64032D02*
X92948Y-64032D01*
X92929Y-64042D01*
X92920Y-64051D01*
X92901Y-64079D01*
X92892Y-64117D01*
X92892Y-64192D01*
X92901Y-64210D01*
X92910Y-64220D01*
X92929Y-64229D01*
X92967Y-64229D01*
X92986Y-64220D01*
X92995Y-64210D01*
X93004Y-64192D01*
X93004Y-64145D01*
X92995Y-64126D01*
X92986Y-64117D01*
X92967Y-64107D01*
X92929Y-64107D01*
X92910Y-64117D01*
X92901Y-64126D01*
X92892Y-64145D01*
X89217Y-63160D02*
X89207Y-63170D01*
X89179Y-63179D01*
X89160Y-63179D01*
X89132Y-63170D01*
X89113Y-63151D01*
X89104Y-63132D01*
X89095Y-63095D01*
X89095Y-63067D01*
X89104Y-63029D01*
X89113Y-63010D01*
X89132Y-62992D01*
X89160Y-62982D01*
X89179Y-62982D01*
X89207Y-62992D01*
X89217Y-63001D01*
X89386Y-63048D02*
X89386Y-63179D01*
X89339Y-62973D02*
X89292Y-63114D01*
X89414Y-63114D01*
X96117Y-66779D02*
X96051Y-66685D01*
X96004Y-66779D02*
X96004Y-66582D01*
X96079Y-66582D01*
X96098Y-66592D01*
X96107Y-66601D01*
X96117Y-66620D01*
X96117Y-66648D01*
X96107Y-66667D01*
X96098Y-66676D01*
X96079Y-66685D01*
X96004Y-66685D01*
X96182Y-66582D02*
X96304Y-66582D01*
X96239Y-66657D01*
X96267Y-66657D01*
X96286Y-66667D01*
X96295Y-66676D01*
X96304Y-66695D01*
X96304Y-66742D01*
X96295Y-66760D01*
X96286Y-66770D01*
X96267Y-66779D01*
X96210Y-66779D01*
X96192Y-66770D01*
X96182Y-66760D01*
X96117Y-67579D02*
X96051Y-67485D01*
X96004Y-67579D02*
X96004Y-67382D01*
X96079Y-67382D01*
X96098Y-67392D01*
X96107Y-67401D01*
X96117Y-67420D01*
X96117Y-67448D01*
X96107Y-67467D01*
X96098Y-67476D01*
X96079Y-67485D01*
X96004Y-67485D01*
X96192Y-67401D02*
X96201Y-67392D01*
X96220Y-67382D01*
X96267Y-67382D01*
X96286Y-67392D01*
X96295Y-67401D01*
X96304Y-67420D01*
X96304Y-67439D01*
X96295Y-67467D01*
X96182Y-67579D01*
X96304Y-67579D01*
X93767Y-67960D02*
X93757Y-67970D01*
X93729Y-67979D01*
X93710Y-67979D01*
X93682Y-67970D01*
X93663Y-67951D01*
X93654Y-67932D01*
X93645Y-67895D01*
X93645Y-67867D01*
X93654Y-67829D01*
X93663Y-67810D01*
X93682Y-67792D01*
X93710Y-67782D01*
X93729Y-67782D01*
X93757Y-67792D01*
X93767Y-67801D01*
X93832Y-67782D02*
X93954Y-67782D01*
X93889Y-67857D01*
X93917Y-67857D01*
X93936Y-67867D01*
X93945Y-67876D01*
X93954Y-67895D01*
X93954Y-67942D01*
X93945Y-67960D01*
X93936Y-67970D01*
X93917Y-67979D01*
X93860Y-67979D01*
X93842Y-67970D01*
X93832Y-67960D01*
X92717Y-67129D02*
X92651Y-67035D01*
X92604Y-67129D02*
X92604Y-66932D01*
X92679Y-66932D01*
X92698Y-66942D01*
X92707Y-66951D01*
X92717Y-66970D01*
X92717Y-66998D01*
X92707Y-67017D01*
X92698Y-67026D01*
X92679Y-67035D01*
X92604Y-67035D01*
X92782Y-66932D02*
X92914Y-66932D01*
X92829Y-67129D01*
X91817Y-68279D02*
X91751Y-68185D01*
X91704Y-68279D02*
X91704Y-68082D01*
X91779Y-68082D01*
X91798Y-68092D01*
X91807Y-68101D01*
X91817Y-68120D01*
X91817Y-68148D01*
X91807Y-68167D01*
X91798Y-68176D01*
X91779Y-68185D01*
X91704Y-68185D01*
X91986Y-68148D02*
X91986Y-68279D01*
X91939Y-68073D02*
X91892Y-68214D01*
X92014Y-68214D01*
X87817Y-67710D02*
X87807Y-67720D01*
X87779Y-67729D01*
X87760Y-67729D01*
X87732Y-67720D01*
X87713Y-67701D01*
X87704Y-67682D01*
X87695Y-67645D01*
X87695Y-67617D01*
X87704Y-67579D01*
X87713Y-67560D01*
X87732Y-67542D01*
X87760Y-67532D01*
X87779Y-67532D01*
X87807Y-67542D01*
X87817Y-67551D01*
X87892Y-67551D02*
X87901Y-67542D01*
X87920Y-67532D01*
X87967Y-67532D01*
X87986Y-67542D01*
X87995Y-67551D01*
X88004Y-67570D01*
X88004Y-67589D01*
X87995Y-67617D01*
X87882Y-67729D01*
X88004Y-67729D01*
X90217Y-63160D02*
X90207Y-63170D01*
X90179Y-63179D01*
X90160Y-63179D01*
X90132Y-63170D01*
X90113Y-63151D01*
X90104Y-63132D01*
X90095Y-63095D01*
X90095Y-63067D01*
X90104Y-63029D01*
X90113Y-63010D01*
X90132Y-62992D01*
X90160Y-62982D01*
X90179Y-62982D01*
X90207Y-62992D01*
X90217Y-63001D01*
X90404Y-63179D02*
X90292Y-63179D01*
X90348Y-63179D02*
X90348Y-62982D01*
X90329Y-63010D01*
X90310Y-63029D01*
X90292Y-63039D01*
X86817Y-63179D02*
X86751Y-63085D01*
X86704Y-63179D02*
X86704Y-62982D01*
X86779Y-62982D01*
X86798Y-62992D01*
X86807Y-63001D01*
X86817Y-63020D01*
X86817Y-63048D01*
X86807Y-63067D01*
X86798Y-63076D01*
X86779Y-63085D01*
X86704Y-63085D01*
X87004Y-63179D02*
X86892Y-63179D01*
X86948Y-63179D02*
X86948Y-62982D01*
X86929Y-63010D01*
X86910Y-63029D01*
X86892Y-63039D01*
X98717Y-66110D02*
X98707Y-66120D01*
X98679Y-66129D01*
X98660Y-66129D01*
X98632Y-66120D01*
X98613Y-66101D01*
X98604Y-66082D01*
X98595Y-66045D01*
X98595Y-66017D01*
X98604Y-65979D01*
X98613Y-65960D01*
X98632Y-65942D01*
X98660Y-65932D01*
X98679Y-65932D01*
X98707Y-65942D01*
X98717Y-65951D01*
X98810Y-66129D02*
X98848Y-66129D01*
X98867Y-66120D01*
X98876Y-66110D01*
X98895Y-66082D01*
X98904Y-66045D01*
X98904Y-65970D01*
X98895Y-65951D01*
X98886Y-65942D01*
X98867Y-65932D01*
X98829Y-65932D01*
X98810Y-65942D01*
X98801Y-65951D01*
X98792Y-65970D01*
X98792Y-66017D01*
X98801Y-66035D01*
X98810Y-66045D01*
X98829Y-66054D01*
X98867Y-66054D01*
X98886Y-66045D01*
X98895Y-66035D01*
X98904Y-66017D01*
X93417Y-64610D02*
X93407Y-64620D01*
X93379Y-64629D01*
X93360Y-64629D01*
X93332Y-64620D01*
X93313Y-64601D01*
X93304Y-64582D01*
X93295Y-64545D01*
X93295Y-64517D01*
X93304Y-64479D01*
X93313Y-64460D01*
X93332Y-64442D01*
X93360Y-64432D01*
X93379Y-64432D01*
X93407Y-64442D01*
X93417Y-64451D01*
X93529Y-64517D02*
X93510Y-64507D01*
X93501Y-64498D01*
X93492Y-64479D01*
X93492Y-64470D01*
X93501Y-64451D01*
X93510Y-64442D01*
X93529Y-64432D01*
X93567Y-64432D01*
X93586Y-64442D01*
X93595Y-64451D01*
X93604Y-64470D01*
X93604Y-64479D01*
X93595Y-64498D01*
X93586Y-64507D01*
X93567Y-64517D01*
X93529Y-64517D01*
X93510Y-64526D01*
X93501Y-64535D01*
X93492Y-64554D01*
X93492Y-64592D01*
X93501Y-64610D01*
X93510Y-64620D01*
X93529Y-64629D01*
X93567Y-64629D01*
X93586Y-64620D01*
X93595Y-64610D01*
X93604Y-64592D01*
X93604Y-64554D01*
X93595Y-64535D01*
X93586Y-64526D01*
X93567Y-64517D01*
X92867Y-63260D02*
X92857Y-63270D01*
X92829Y-63279D01*
X92810Y-63279D01*
X92782Y-63270D01*
X92763Y-63251D01*
X92754Y-63232D01*
X92745Y-63195D01*
X92745Y-63167D01*
X92754Y-63129D01*
X92763Y-63110D01*
X92782Y-63092D01*
X92810Y-63082D01*
X92829Y-63082D01*
X92857Y-63092D01*
X92867Y-63101D01*
X93045Y-63082D02*
X92951Y-63082D01*
X92942Y-63176D01*
X92951Y-63167D01*
X92970Y-63157D01*
X93017Y-63157D01*
X93036Y-63167D01*
X93045Y-63176D01*
X93054Y-63195D01*
X93054Y-63242D01*
X93045Y-63260D01*
X93036Y-63270D01*
X93017Y-63279D01*
X92970Y-63279D01*
X92951Y-63270D01*
X92942Y-63260D01*
X92967Y-64679D02*
X92901Y-64585D01*
X92854Y-64679D02*
X92854Y-64482D01*
X92929Y-64482D01*
X92948Y-64492D01*
X92957Y-64501D01*
X92967Y-64520D01*
X92967Y-64548D01*
X92957Y-64567D01*
X92948Y-64576D01*
X92929Y-64585D01*
X92854Y-64585D01*
X93145Y-64482D02*
X93051Y-64482D01*
X93042Y-64576D01*
X93051Y-64567D01*
X93070Y-64557D01*
X93117Y-64557D01*
X93136Y-64567D01*
X93145Y-64576D01*
X93154Y-64595D01*
X93154Y-64642D01*
X93145Y-64660D01*
X93136Y-64670D01*
X93117Y-64679D01*
X93070Y-64679D01*
X93051Y-64670D01*
X93042Y-64660D01*
X93517Y-66260D02*
X93507Y-66270D01*
X93479Y-66279D01*
X93460Y-66279D01*
X93432Y-66270D01*
X93413Y-66251D01*
X93404Y-66232D01*
X93395Y-66195D01*
X93395Y-66167D01*
X93404Y-66129D01*
X93413Y-66110D01*
X93432Y-66092D01*
X93460Y-66082D01*
X93479Y-66082D01*
X93507Y-66092D01*
X93517Y-66101D01*
X93582Y-66082D02*
X93714Y-66082D01*
X93629Y-66279D01*
X88117Y-63329D02*
X88051Y-63235D01*
X88004Y-63329D02*
X88004Y-63132D01*
X88079Y-63132D01*
X88098Y-63142D01*
X88107Y-63151D01*
X88117Y-63170D01*
X88117Y-63198D01*
X88107Y-63217D01*
X88098Y-63226D01*
X88079Y-63235D01*
X88004Y-63235D01*
X88286Y-63132D02*
X88248Y-63132D01*
X88229Y-63142D01*
X88220Y-63151D01*
X88201Y-63179D01*
X88192Y-63217D01*
X88192Y-63292D01*
X88201Y-63310D01*
X88210Y-63320D01*
X88229Y-63329D01*
X88267Y-63329D01*
X88286Y-63320D01*
X88295Y-63310D01*
X88304Y-63292D01*
X88304Y-63245D01*
X88295Y-63226D01*
X88286Y-63217D01*
X88267Y-63207D01*
X88229Y-63207D01*
X88210Y-63217D01*
X88201Y-63226D01*
X88192Y-63245D01*
G54D15*
X89592Y-65292D02*
X89592Y-65778D01*
X89621Y-65835D01*
X89650Y-65864D01*
X89707Y-65892D01*
X89821Y-65892D01*
X89878Y-65864D01*
X89907Y-65835D01*
X89935Y-65778D01*
X89935Y-65292D01*
X90535Y-65892D02*
X90192Y-65892D01*
X90364Y-65892D02*
X90364Y-65292D01*
X90307Y-65378D01*
X90250Y-65435D01*
X90192Y-65464D01*
%LPC*%
G54D23*
X85183Y-68916D02*
X84950Y-68916D01*
X84950Y-69283D02*
X84950Y-68583D01*
X85283Y-68583D01*
X85450Y-68583D02*
X85850Y-68583D01*
X85650Y-69283D02*
X85650Y-68583D01*
X86050Y-69083D02*
X86383Y-69083D01*
X85983Y-69283D02*
X86216Y-68583D01*
X86450Y-69283D01*
X87050Y-68616D02*
X86983Y-68583D01*
X86883Y-68583D01*
X86783Y-68616D01*
X86716Y-68683D01*
X86683Y-68750D01*
X86650Y-68883D01*
X86650Y-68983D01*
X86683Y-69116D01*
X86716Y-69183D01*
X86783Y-69250D01*
X86883Y-69283D01*
X86950Y-69283D01*
X87050Y-69250D01*
X87083Y-69216D01*
X87083Y-68983D01*
X86950Y-68983D01*
G54D24*
X87008Y-65570D03*
X87008Y-65885D03*
X87008Y-66200D03*
X87008Y-66515D03*
X87008Y-66830D03*
G54D25*
X86969Y-64448D03*
X84804Y-64448D03*
X86969Y-67952D03*
X84804Y-67952D03*
G54D26*
X85985Y-65334D03*
X85985Y-67066D03*
G54D27*
X94150Y-63900D03*
X97850Y-63900D03*
G54D28*
X95250Y-70750D03*
X95250Y-71750D03*
X94250Y-70750D03*
X94250Y-71750D03*
X93250Y-70750D03*
X93250Y-71750D03*
X92250Y-70750D03*
X92250Y-71750D03*
X91250Y-70750D03*
X91250Y-71750D03*
X90250Y-70750D03*
X90250Y-71750D03*
X89250Y-70750D03*
X89250Y-71750D03*
X88250Y-70750D03*
X88250Y-71750D03*
X87250Y-70750D03*
X87250Y-71750D03*
X86250Y-70750D03*
X86250Y-71750D03*
G54D29*
X91675Y-64300D03*
X92425Y-64300D03*
X88850Y-63550D03*
X89600Y-63550D03*
X97375Y-66700D03*
X96625Y-66700D03*
X96625Y-67500D03*
X97375Y-67500D03*
G54D30*
X93800Y-67475D03*
X93800Y-66725D03*
G54D29*
X92375Y-66550D03*
X93125Y-66550D03*
G54D30*
X92400Y-68175D03*
X92400Y-67425D03*
X88060Y-68050D03*
X88060Y-68800D03*
G54D29*
X90975Y-63550D03*
X90225Y-63550D03*
X87200Y-63550D03*
X86450Y-63550D03*
G54D30*
X98700Y-64825D03*
X98700Y-65575D03*
X93900Y-65025D03*
X93900Y-65775D03*
G54D29*
X91675Y-63550D03*
X92425Y-63550D03*
X93125Y-65050D03*
X92375Y-65050D03*
X92375Y-65800D03*
X93125Y-65800D03*
G54D31*
X98200Y-70000D03*
G54D32*
X98200Y-71000D03*
X98200Y-72000D03*
G54D33*
X93100Y-67437D03*
X93100Y-68263D03*
X85763Y-63550D03*
X84937Y-63550D03*
G54D34*
X97800Y-65600D03*
G54D35*
X96800Y-65600D03*
X95800Y-65600D03*
X94800Y-65600D03*
X94800Y-68600D03*
X95800Y-68600D03*
X96800Y-68600D03*
X97800Y-68600D03*
G54D30*
X88100Y-63625D03*
X88100Y-64375D03*
G54D36*
X88327Y-66098D03*
X88327Y-65902D03*
X88327Y-66295D03*
X88327Y-65705D03*
X88327Y-65508D03*
X88327Y-65311D03*
X88327Y-65114D03*
X88327Y-64917D03*
X88327Y-66492D03*
X88327Y-66689D03*
X88327Y-66886D03*
X88327Y-67083D03*
X91673Y-66098D03*
X91673Y-65902D03*
X91673Y-66295D03*
X91673Y-66492D03*
X91673Y-66689D03*
X91673Y-66886D03*
X91673Y-67083D03*
X91673Y-65705D03*
X91673Y-65508D03*
X91673Y-65311D03*
X91673Y-65114D03*
X91673Y-64917D03*
G54D37*
X90098Y-64327D03*
X90295Y-64327D03*
X90492Y-64327D03*
X90689Y-64327D03*
X90886Y-64327D03*
X91083Y-64327D03*
X89902Y-64327D03*
X89705Y-64327D03*
X89508Y-64327D03*
X89311Y-64327D03*
X89114Y-64327D03*
X88917Y-64327D03*
X90098Y-67673D03*
X90295Y-67673D03*
X90492Y-67673D03*
X90689Y-67673D03*
X90886Y-67673D03*
X91083Y-67673D03*
X89902Y-67673D03*
X89705Y-67673D03*
X89508Y-67673D03*
X89311Y-67673D03*
X89114Y-67673D03*
X88917Y-67673D03*
M02*
