G04 #@! TF.FileFunction,Copper,L2,Bot,Signal*
%FSLAX46Y46*%
G04 Gerber Fmt 4.6, Leading zero omitted, Abs format (unit mm)*
G04 Created by KiCad (PCBNEW 4.0.2+dfsg1-stable) date Sat 23 Jul 2016 05:57:03 PM COT*
%MOMM*%
G01*
G04 APERTURE LIST*
%ADD10C,0.100000*%
%ADD11R,1.727200X1.727200*%
%ADD12O,1.727200X1.727200*%
%ADD13C,1.550000*%
%ADD14R,1.600000X2.300000*%
%ADD15O,1.600000X2.300000*%
%ADD16C,0.685800*%
%ADD17C,0.152400*%
G04 APERTURE END LIST*
D10*
D11*
X172085000Y-91440000D03*
D12*
X172085000Y-93980000D03*
X169545000Y-91440000D03*
X169545000Y-93980000D03*
X167005000Y-91440000D03*
X167005000Y-93980000D03*
X164465000Y-91440000D03*
X164465000Y-93980000D03*
X161925000Y-91440000D03*
X161925000Y-93980000D03*
X159385000Y-91440000D03*
X159385000Y-93980000D03*
X156845000Y-91440000D03*
X156845000Y-93980000D03*
X154305000Y-91440000D03*
X154305000Y-93980000D03*
X151765000Y-91440000D03*
X151765000Y-93980000D03*
X149225000Y-91440000D03*
X149225000Y-93980000D03*
D13*
X146850540Y-78525100D03*
X146850540Y-83525100D03*
X144150540Y-77525100D03*
X144150540Y-84525100D03*
D14*
X175260000Y-70612000D03*
D15*
X172720000Y-70612000D03*
X170180000Y-70612000D03*
X167640000Y-70612000D03*
X167640000Y-78232000D03*
X170180000Y-78232000D03*
X172720000Y-78232000D03*
X175260000Y-78232000D03*
D16*
X148005800Y-76885800D03*
X157962600Y-78587600D03*
X171043600Y-72263000D03*
X173837600Y-71983600D03*
X176530000Y-72263000D03*
X175412400Y-81686400D03*
X175082200Y-87680800D03*
X173736000Y-83718400D03*
X169240200Y-82448400D03*
X170230800Y-80975200D03*
X176352200Y-76936600D03*
X173659800Y-74676000D03*
X173482000Y-76606400D03*
X171373800Y-76809600D03*
X171450000Y-88011000D03*
X171373800Y-89687400D03*
X175006000Y-90449400D03*
X175031400Y-94919800D03*
X154279600Y-89585800D03*
X150545800Y-89306400D03*
X145923000Y-89230200D03*
X145973800Y-92430600D03*
X165709600Y-79705200D03*
X165633400Y-77647800D03*
X162229800Y-69951600D03*
X157962600Y-69977000D03*
X153974800Y-70027800D03*
X156235400Y-72390000D03*
X158648400Y-72339200D03*
X153212800Y-85267800D03*
X153136600Y-87452200D03*
X151409400Y-85344000D03*
X155778200Y-78765400D03*
X155803600Y-80162400D03*
X154762200Y-81559400D03*
X154736800Y-83820000D03*
X159461200Y-81280000D03*
X159359600Y-83210400D03*
X156946600Y-83362800D03*
X164236400Y-74218800D03*
X158496000Y-74041000D03*
X154432000Y-74117200D03*
X151307800Y-73660000D03*
X149428200Y-73660000D03*
X149174200Y-71932800D03*
X144957800Y-70129400D03*
X147243800Y-69926200D03*
X159512000Y-79121000D03*
X160731200Y-77774800D03*
X158724600Y-85090000D03*
X164566600Y-85826600D03*
X152374600Y-86131400D03*
X160172400Y-86131400D03*
X167970200Y-89128600D03*
X170535600Y-85318600D03*
X170484800Y-84480400D03*
X155651200Y-84785200D03*
X156489400Y-84912200D03*
X166776400Y-84226400D03*
X166852600Y-83337400D03*
X167157400Y-82550000D03*
X168859200Y-89103200D03*
D17*
X156260800Y-76885800D02*
X148005800Y-76885800D01*
X157962600Y-78587600D02*
X156260800Y-76885800D01*
X173659800Y-74676000D02*
X174091600Y-74676000D01*
X173837600Y-71983600D02*
X173837600Y-71958200D01*
X176504600Y-72263000D02*
X176530000Y-72263000D01*
X174091600Y-74676000D02*
X176504600Y-72263000D01*
X173736000Y-83718400D02*
X172466000Y-82448400D01*
X172466000Y-82448400D02*
X169240200Y-82448400D01*
X170230800Y-80975200D02*
X170942000Y-81686400D01*
X170942000Y-81686400D02*
X175412400Y-81686400D01*
X169545000Y-93980000D02*
X169545000Y-95478600D01*
X175920400Y-76936600D02*
X176352200Y-76936600D01*
X173659800Y-74676000D02*
X175920400Y-76936600D01*
X171577000Y-76606400D02*
X173482000Y-76606400D01*
X171373800Y-76809600D02*
X171577000Y-76606400D01*
X171780200Y-87680800D02*
X175082200Y-87680800D01*
X171450000Y-88011000D02*
X171780200Y-87680800D01*
X174244000Y-89687400D02*
X171373800Y-89687400D01*
X175006000Y-90449400D02*
X174244000Y-89687400D01*
X174040800Y-95910400D02*
X175031400Y-94919800D01*
X169976800Y-95910400D02*
X174040800Y-95910400D01*
X169545000Y-95478600D02*
X169976800Y-95910400D01*
X149225000Y-93980000D02*
X147523200Y-93980000D01*
X153136600Y-88442800D02*
X153136600Y-87452200D01*
X154279600Y-89585800D02*
X153136600Y-88442800D01*
X145999200Y-89306400D02*
X150545800Y-89306400D01*
X145923000Y-89230200D02*
X145999200Y-89306400D01*
X147523200Y-93980000D02*
X145973800Y-92430600D01*
X164236400Y-74218800D02*
X165227000Y-74218800D01*
X165125400Y-79121000D02*
X159512000Y-79121000D01*
X165709600Y-79705200D02*
X165125400Y-79121000D01*
X165633400Y-74625200D02*
X165633400Y-77647800D01*
X165227000Y-74218800D02*
X165633400Y-74625200D01*
X158496000Y-74041000D02*
X158496000Y-72491600D01*
X157988000Y-69951600D02*
X162229800Y-69951600D01*
X157962600Y-69977000D02*
X157988000Y-69951600D01*
X153974800Y-70129400D02*
X153974800Y-70027800D01*
X156235400Y-72390000D02*
X153974800Y-70129400D01*
X158496000Y-72491600D02*
X158648400Y-72339200D01*
X154660600Y-83820000D02*
X154736800Y-83820000D01*
X153212800Y-85267800D02*
X154660600Y-83820000D01*
X151409400Y-87071200D02*
X151409400Y-85344000D01*
X151714200Y-87376000D02*
X151409400Y-87071200D01*
X153060400Y-87376000D02*
X151714200Y-87376000D01*
X153136600Y-87452200D02*
X153060400Y-87376000D01*
X155778200Y-78765400D02*
X155803600Y-78790800D01*
X155803600Y-78790800D02*
X155803600Y-80162400D01*
X154762200Y-81559400D02*
X154736800Y-81584800D01*
X154736800Y-81584800D02*
X154736800Y-83820000D01*
X159461200Y-81280000D02*
X159512000Y-81229200D01*
X157099000Y-83210400D02*
X159359600Y-83210400D01*
X156946600Y-83362800D02*
X157099000Y-83210400D01*
X159512000Y-81229200D02*
X159512000Y-79121000D01*
X158673800Y-74218800D02*
X164236400Y-74218800D01*
X158496000Y-74041000D02*
X158673800Y-74218800D01*
X151765000Y-74117200D02*
X154432000Y-74117200D01*
X151307800Y-73660000D02*
X151765000Y-74117200D01*
X149428200Y-72186800D02*
X149428200Y-73660000D01*
X149174200Y-71932800D02*
X149428200Y-72186800D01*
X147040600Y-70129400D02*
X144957800Y-70129400D01*
X147243800Y-69926200D02*
X147040600Y-70129400D01*
X160731200Y-77901800D02*
X160731200Y-77774800D01*
X159512000Y-79121000D02*
X160731200Y-77901800D01*
X158724600Y-85090000D02*
X159105600Y-85471000D01*
X159105600Y-85471000D02*
X164211000Y-85471000D01*
X164211000Y-85471000D02*
X164566600Y-85826600D01*
X152374600Y-86131400D02*
X160172400Y-86131400D01*
X161925000Y-91440000D02*
X161925000Y-91440000D01*
X167487600Y-89611200D02*
X167970200Y-89128600D01*
X163753800Y-89611200D02*
X167487600Y-89611200D01*
X161925000Y-91440000D02*
X163753800Y-89611200D01*
X170535600Y-85318600D02*
X170103800Y-85318600D01*
X169799000Y-85623400D02*
X169799000Y-86233000D01*
X170103800Y-85318600D02*
X169799000Y-85623400D01*
X159385000Y-91440000D02*
X159385000Y-91440000D01*
X161544000Y-89281000D02*
X159385000Y-91440000D01*
X166751000Y-89281000D02*
X161544000Y-89281000D01*
X169799000Y-86233000D02*
X166751000Y-89281000D01*
X170484800Y-84480400D02*
X170027600Y-84480400D01*
X154305000Y-91440000D02*
X154305000Y-91440000D01*
X156794200Y-88950800D02*
X154305000Y-91440000D01*
X166624000Y-88950800D02*
X156794200Y-88950800D01*
X169468800Y-86106000D02*
X166624000Y-88950800D01*
X169468800Y-85039200D02*
X169468800Y-86106000D01*
X170027600Y-84480400D02*
X169468800Y-85039200D01*
X154305000Y-90678000D02*
X154305000Y-91389200D01*
X160172400Y-84328000D02*
X160477200Y-84632800D01*
X165506400Y-84632800D02*
X165811200Y-84328000D01*
X160477200Y-84632800D02*
X165506400Y-84632800D01*
X160172400Y-84328000D02*
X160020000Y-84175600D01*
X156260800Y-84175600D02*
X155651200Y-84785200D01*
X160020000Y-84175600D02*
X156260800Y-84175600D01*
X166268400Y-83870800D02*
X166268400Y-83108800D01*
X165811200Y-84328000D02*
X166268400Y-83870800D01*
X170180000Y-73609200D02*
X170180000Y-70612000D01*
X166522400Y-77266800D02*
X170180000Y-73609200D01*
X166522400Y-82854800D02*
X166522400Y-77266800D01*
X166268400Y-83108800D02*
X166522400Y-82854800D01*
X155651200Y-84785200D02*
X155651200Y-84785200D01*
X160324800Y-85064600D02*
X160045400Y-85064600D01*
X156895800Y-84505800D02*
X156489400Y-84912200D01*
X159486600Y-84505800D02*
X156895800Y-84505800D01*
X160045400Y-85064600D02*
X159486600Y-84505800D01*
X170967400Y-79959200D02*
X169062400Y-79959200D01*
X169062400Y-79959200D02*
X168402000Y-80619600D01*
X168402000Y-80619600D02*
X168402000Y-83515200D01*
X168402000Y-83515200D02*
X166852600Y-85064600D01*
X166852600Y-85064600D02*
X160324800Y-85064600D01*
X172694600Y-78232000D02*
X170967400Y-79959200D01*
X172720000Y-78232000D02*
X172694600Y-78232000D01*
X168071800Y-83413600D02*
X168071800Y-80492600D01*
X168071800Y-80492600D02*
X169062402Y-79501998D01*
X175209200Y-71983600D02*
X175209200Y-71145400D01*
X174625000Y-72567800D02*
X175209200Y-71983600D01*
X172085000Y-72567800D02*
X174625000Y-72567800D01*
X169062402Y-75590398D02*
X172085000Y-72567800D01*
X169062402Y-79501998D02*
X169062402Y-75590398D01*
X167233600Y-84251800D02*
X168071800Y-83413600D01*
X166801800Y-84251800D02*
X167233600Y-84251800D01*
X166776400Y-84226400D02*
X166801800Y-84251800D01*
X175412400Y-70764400D02*
X175260000Y-70612000D01*
X167754300Y-83019900D02*
X167754300Y-80378300D01*
X167754300Y-80378300D02*
X168757600Y-79375000D01*
X172720000Y-72009000D02*
X172720000Y-70612000D01*
X166852600Y-83337400D02*
X167436800Y-83337400D01*
X167436800Y-83337400D02*
X167754300Y-83019900D01*
X168757600Y-79375000D02*
X168757600Y-75463400D01*
X168757600Y-75463400D02*
X171983400Y-72237600D01*
X171983400Y-72237600D02*
X172491400Y-72237600D01*
X172491400Y-72237600D02*
X172720000Y-72009000D01*
X167157400Y-82550000D02*
X167157400Y-80010000D01*
X167157400Y-80010000D02*
X167640000Y-79527400D01*
X167640000Y-79527400D02*
X167640000Y-78232000D01*
X167005000Y-91440000D02*
X167005000Y-91440000D01*
X167005000Y-91440000D02*
X168859200Y-89585800D01*
X168859200Y-89585800D02*
X168859200Y-89103200D01*
G36*
X166380606Y-69685357D02*
X166255800Y-70211200D01*
X166255800Y-70561200D01*
X167589200Y-70561200D01*
X167589200Y-70541200D01*
X167690800Y-70541200D01*
X167690800Y-70561200D01*
X169024200Y-70561200D01*
X169024200Y-70211200D01*
X168899394Y-69685357D01*
X168614578Y-69291200D01*
X169776629Y-69291200D01*
X169452670Y-69507662D01*
X169229698Y-69841364D01*
X169151400Y-70234992D01*
X169151400Y-70989008D01*
X169229698Y-71382636D01*
X169452670Y-71716338D01*
X169786372Y-71939310D01*
X169875200Y-71956979D01*
X169875200Y-73482948D01*
X166306874Y-77051274D01*
X166240802Y-77150158D01*
X166217600Y-77266800D01*
X166217600Y-82728548D01*
X166052874Y-82893274D01*
X165986802Y-82992158D01*
X165963600Y-83108800D01*
X165963600Y-83744548D01*
X165380148Y-84328000D01*
X160603452Y-84328000D01*
X160235526Y-83960074D01*
X160136642Y-83894002D01*
X160020000Y-83870800D01*
X156260800Y-83870800D01*
X156144158Y-83894002D01*
X156102855Y-83921600D01*
X156045274Y-83960074D01*
X155783869Y-84221479D01*
X155765377Y-84213800D01*
X155538020Y-84213601D01*
X155327894Y-84300424D01*
X155166989Y-84461049D01*
X155079800Y-84671023D01*
X155079601Y-84898380D01*
X155166424Y-85108506D01*
X155327049Y-85269411D01*
X155537023Y-85356600D01*
X155764380Y-85356799D01*
X155974506Y-85269976D01*
X156006826Y-85237712D01*
X156165249Y-85396411D01*
X156375223Y-85483600D01*
X156602580Y-85483799D01*
X156812706Y-85396976D01*
X156973611Y-85236351D01*
X157060800Y-85026377D01*
X157060989Y-84810600D01*
X159360348Y-84810600D01*
X159829874Y-85280126D01*
X159928759Y-85346199D01*
X160045400Y-85369400D01*
X166852600Y-85369400D01*
X166969242Y-85346198D01*
X167068126Y-85280126D01*
X168617526Y-83730726D01*
X168683598Y-83631842D01*
X168690540Y-83596942D01*
X168706800Y-83515200D01*
X168706800Y-80745852D01*
X169188652Y-80264000D01*
X170967400Y-80264000D01*
X171084042Y-80240798D01*
X171182926Y-80174726D01*
X172009841Y-79347811D01*
X172326372Y-79559310D01*
X172720000Y-79637608D01*
X173113628Y-79559310D01*
X173447330Y-79336338D01*
X173670302Y-79002636D01*
X173748600Y-78609008D01*
X173748600Y-77854992D01*
X174231400Y-77854992D01*
X174231400Y-78609008D01*
X174309698Y-79002636D01*
X174532670Y-79336338D01*
X174866372Y-79559310D01*
X175260000Y-79637608D01*
X175653628Y-79559310D01*
X175987330Y-79336338D01*
X176210302Y-79002636D01*
X176288600Y-78609008D01*
X176288600Y-77854992D01*
X176210302Y-77461364D01*
X175987330Y-77127662D01*
X175653628Y-76904690D01*
X175260000Y-76826392D01*
X174866372Y-76904690D01*
X174532670Y-77127662D01*
X174309698Y-77461364D01*
X174231400Y-77854992D01*
X173748600Y-77854992D01*
X173670302Y-77461364D01*
X173447330Y-77127662D01*
X173113628Y-76904690D01*
X172720000Y-76826392D01*
X172326372Y-76904690D01*
X171992670Y-77127662D01*
X171769698Y-77461364D01*
X171691400Y-77854992D01*
X171691400Y-78609008D01*
X171723776Y-78771772D01*
X170841148Y-79654400D01*
X169320106Y-79654400D01*
X169344000Y-79618640D01*
X169367202Y-79501998D01*
X169367202Y-79208426D01*
X169452670Y-79336338D01*
X169786372Y-79559310D01*
X170180000Y-79637608D01*
X170573628Y-79559310D01*
X170907330Y-79336338D01*
X171130302Y-79002636D01*
X171208600Y-78609008D01*
X171208600Y-77854992D01*
X171130302Y-77461364D01*
X170907330Y-77127662D01*
X170573628Y-76904690D01*
X170180000Y-76826392D01*
X169786372Y-76904690D01*
X169452670Y-77127662D01*
X169367202Y-77255574D01*
X169367202Y-75716650D01*
X172211252Y-72872600D01*
X174625000Y-72872600D01*
X174741642Y-72849398D01*
X174840526Y-72783326D01*
X175424726Y-72199126D01*
X175490799Y-72100241D01*
X175511717Y-71995078D01*
X176060000Y-71995078D01*
X176144714Y-71979138D01*
X176222518Y-71929072D01*
X176274715Y-71852680D01*
X176293078Y-71762000D01*
X176293078Y-69462000D01*
X176277138Y-69377286D01*
X176227072Y-69299482D01*
X176214951Y-69291200D01*
X177088800Y-69291200D01*
X177088800Y-97078800D01*
X143586200Y-97078800D01*
X143586200Y-94256521D01*
X147803853Y-94256521D01*
X147806208Y-94268378D01*
X148024565Y-94789375D01*
X148425677Y-95187152D01*
X148948479Y-95401151D01*
X149174200Y-95280862D01*
X149174200Y-94030800D01*
X149275800Y-94030800D01*
X149275800Y-95280862D01*
X149501521Y-95401151D01*
X150024323Y-95187152D01*
X150425435Y-94789375D01*
X150495000Y-94623394D01*
X150564565Y-94789375D01*
X150965677Y-95187152D01*
X151488479Y-95401151D01*
X151714200Y-95280862D01*
X151714200Y-94030800D01*
X151815800Y-94030800D01*
X151815800Y-95280862D01*
X152041521Y-95401151D01*
X152564323Y-95187152D01*
X152965435Y-94789375D01*
X153035000Y-94623394D01*
X153104565Y-94789375D01*
X153505677Y-95187152D01*
X154028479Y-95401151D01*
X154254200Y-95280862D01*
X154254200Y-94030800D01*
X154355800Y-94030800D01*
X154355800Y-95280862D01*
X154581521Y-95401151D01*
X155104323Y-95187152D01*
X155505435Y-94789375D01*
X155575000Y-94623394D01*
X155644565Y-94789375D01*
X156045677Y-95187152D01*
X156568479Y-95401151D01*
X156794200Y-95280862D01*
X156794200Y-94030800D01*
X156895800Y-94030800D01*
X156895800Y-95280862D01*
X157121521Y-95401151D01*
X157644323Y-95187152D01*
X158045435Y-94789375D01*
X158115000Y-94623394D01*
X158184565Y-94789375D01*
X158585677Y-95187152D01*
X159108479Y-95401151D01*
X159334200Y-95280862D01*
X159334200Y-94030800D01*
X159435800Y-94030800D01*
X159435800Y-95280862D01*
X159661521Y-95401151D01*
X160184323Y-95187152D01*
X160585435Y-94789375D01*
X160655000Y-94623394D01*
X160724565Y-94789375D01*
X161125677Y-95187152D01*
X161648479Y-95401151D01*
X161874200Y-95280862D01*
X161874200Y-94030800D01*
X161975800Y-94030800D01*
X161975800Y-95280862D01*
X162201521Y-95401151D01*
X162724323Y-95187152D01*
X163125435Y-94789375D01*
X163195000Y-94623394D01*
X163264565Y-94789375D01*
X163665677Y-95187152D01*
X164188479Y-95401151D01*
X164414200Y-95280862D01*
X164414200Y-94030800D01*
X164515800Y-94030800D01*
X164515800Y-95280862D01*
X164741521Y-95401151D01*
X165264323Y-95187152D01*
X165665435Y-94789375D01*
X165735000Y-94623394D01*
X165804565Y-94789375D01*
X166205677Y-95187152D01*
X166728479Y-95401151D01*
X166954200Y-95280862D01*
X166954200Y-94030800D01*
X167055800Y-94030800D01*
X167055800Y-95280862D01*
X167281521Y-95401151D01*
X167804323Y-95187152D01*
X168205435Y-94789375D01*
X168275000Y-94623394D01*
X168344565Y-94789375D01*
X168745677Y-95187152D01*
X169268479Y-95401151D01*
X169494200Y-95280862D01*
X169494200Y-94030800D01*
X167055800Y-94030800D01*
X166954200Y-94030800D01*
X164515800Y-94030800D01*
X164414200Y-94030800D01*
X161975800Y-94030800D01*
X161874200Y-94030800D01*
X159435800Y-94030800D01*
X159334200Y-94030800D01*
X156895800Y-94030800D01*
X156794200Y-94030800D01*
X154355800Y-94030800D01*
X154254200Y-94030800D01*
X151815800Y-94030800D01*
X151714200Y-94030800D01*
X149275800Y-94030800D01*
X149174200Y-94030800D01*
X147924242Y-94030800D01*
X147803853Y-94256521D01*
X143586200Y-94256521D01*
X143586200Y-93703479D01*
X147803853Y-93703479D01*
X147924242Y-93929200D01*
X149174200Y-93929200D01*
X149174200Y-92679138D01*
X149275800Y-92679138D01*
X149275800Y-93929200D01*
X151714200Y-93929200D01*
X151714200Y-92679138D01*
X151815800Y-92679138D01*
X151815800Y-93929200D01*
X154254200Y-93929200D01*
X154254200Y-92679138D01*
X154355800Y-92679138D01*
X154355800Y-93929200D01*
X156794200Y-93929200D01*
X156794200Y-92679138D01*
X156895800Y-92679138D01*
X156895800Y-93929200D01*
X159334200Y-93929200D01*
X159334200Y-92679138D01*
X159435800Y-92679138D01*
X159435800Y-93929200D01*
X161874200Y-93929200D01*
X161874200Y-92679138D01*
X161975800Y-92679138D01*
X161975800Y-93929200D01*
X164414200Y-93929200D01*
X164414200Y-92679138D01*
X164515800Y-92679138D01*
X164515800Y-93929200D01*
X166954200Y-93929200D01*
X166954200Y-92679138D01*
X167055800Y-92679138D01*
X167055800Y-93929200D01*
X169494200Y-93929200D01*
X169494200Y-92679138D01*
X169595800Y-92679138D01*
X169595800Y-93929200D01*
X169615800Y-93929200D01*
X169615800Y-94030800D01*
X169595800Y-94030800D01*
X169595800Y-95280862D01*
X169821521Y-95401151D01*
X170344323Y-95187152D01*
X170745435Y-94789375D01*
X170963792Y-94268378D01*
X170966147Y-94256521D01*
X170845759Y-94030802D01*
X170981508Y-94030802D01*
X171054542Y-94397967D01*
X171291301Y-94752302D01*
X171645636Y-94989061D01*
X172063603Y-95072200D01*
X172106397Y-95072200D01*
X172524364Y-94989061D01*
X172878699Y-94752302D01*
X173115458Y-94397967D01*
X173198597Y-93980000D01*
X173115458Y-93562033D01*
X172878699Y-93207698D01*
X172524364Y-92970939D01*
X172106397Y-92887800D01*
X172063603Y-92887800D01*
X171645636Y-92970939D01*
X171291301Y-93207698D01*
X171054542Y-93562033D01*
X170981508Y-93929198D01*
X170845759Y-93929198D01*
X170966147Y-93703479D01*
X170963792Y-93691622D01*
X170745435Y-93170625D01*
X170344323Y-92772848D01*
X169821521Y-92558849D01*
X169595800Y-92679138D01*
X169494200Y-92679138D01*
X169268479Y-92558849D01*
X168745677Y-92772848D01*
X168344565Y-93170625D01*
X168275000Y-93336606D01*
X168205435Y-93170625D01*
X167804323Y-92772848D01*
X167281521Y-92558849D01*
X167055800Y-92679138D01*
X166954200Y-92679138D01*
X166728479Y-92558849D01*
X166205677Y-92772848D01*
X165804565Y-93170625D01*
X165735000Y-93336606D01*
X165665435Y-93170625D01*
X165264323Y-92772848D01*
X164741521Y-92558849D01*
X164515800Y-92679138D01*
X164414200Y-92679138D01*
X164188479Y-92558849D01*
X163665677Y-92772848D01*
X163264565Y-93170625D01*
X163195000Y-93336606D01*
X163125435Y-93170625D01*
X162724323Y-92772848D01*
X162201521Y-92558849D01*
X161975800Y-92679138D01*
X161874200Y-92679138D01*
X161648479Y-92558849D01*
X161125677Y-92772848D01*
X160724565Y-93170625D01*
X160655000Y-93336606D01*
X160585435Y-93170625D01*
X160184323Y-92772848D01*
X159661521Y-92558849D01*
X159435800Y-92679138D01*
X159334200Y-92679138D01*
X159108479Y-92558849D01*
X158585677Y-92772848D01*
X158184565Y-93170625D01*
X158115000Y-93336606D01*
X158045435Y-93170625D01*
X157644323Y-92772848D01*
X157121521Y-92558849D01*
X156895800Y-92679138D01*
X156794200Y-92679138D01*
X156568479Y-92558849D01*
X156045677Y-92772848D01*
X155644565Y-93170625D01*
X155575000Y-93336606D01*
X155505435Y-93170625D01*
X155104323Y-92772848D01*
X154581521Y-92558849D01*
X154355800Y-92679138D01*
X154254200Y-92679138D01*
X154028479Y-92558849D01*
X153505677Y-92772848D01*
X153104565Y-93170625D01*
X153035000Y-93336606D01*
X152965435Y-93170625D01*
X152564323Y-92772848D01*
X152041521Y-92558849D01*
X151815800Y-92679138D01*
X151714200Y-92679138D01*
X151488479Y-92558849D01*
X150965677Y-92772848D01*
X150564565Y-93170625D01*
X150495000Y-93336606D01*
X150425435Y-93170625D01*
X150024323Y-92772848D01*
X149501521Y-92558849D01*
X149275800Y-92679138D01*
X149174200Y-92679138D01*
X148948479Y-92558849D01*
X148425677Y-92772848D01*
X148024565Y-93170625D01*
X147806208Y-93691622D01*
X147803853Y-93703479D01*
X143586200Y-93703479D01*
X143586200Y-91440000D01*
X148111403Y-91440000D01*
X148194542Y-91857967D01*
X148431301Y-92212302D01*
X148785636Y-92449061D01*
X149203603Y-92532200D01*
X149246397Y-92532200D01*
X149664364Y-92449061D01*
X150018699Y-92212302D01*
X150255458Y-91857967D01*
X150338597Y-91440000D01*
X150651403Y-91440000D01*
X150734542Y-91857967D01*
X150971301Y-92212302D01*
X151325636Y-92449061D01*
X151743603Y-92532200D01*
X151786397Y-92532200D01*
X152204364Y-92449061D01*
X152558699Y-92212302D01*
X152795458Y-91857967D01*
X152878597Y-91440000D01*
X153191403Y-91440000D01*
X153274542Y-91857967D01*
X153511301Y-92212302D01*
X153865636Y-92449061D01*
X154283603Y-92532200D01*
X154326397Y-92532200D01*
X154744364Y-92449061D01*
X155098699Y-92212302D01*
X155335458Y-91857967D01*
X155418597Y-91440000D01*
X155731403Y-91440000D01*
X155814542Y-91857967D01*
X156051301Y-92212302D01*
X156405636Y-92449061D01*
X156823603Y-92532200D01*
X156866397Y-92532200D01*
X157284364Y-92449061D01*
X157638699Y-92212302D01*
X157875458Y-91857967D01*
X157958597Y-91440000D01*
X157875458Y-91022033D01*
X157638699Y-90667698D01*
X157284364Y-90430939D01*
X156866397Y-90347800D01*
X156823603Y-90347800D01*
X156405636Y-90430939D01*
X156051301Y-90667698D01*
X155814542Y-91022033D01*
X155731403Y-91440000D01*
X155418597Y-91440000D01*
X155335458Y-91022033D01*
X155262784Y-90913268D01*
X156920452Y-89255600D01*
X161138348Y-89255600D01*
X159907476Y-90486472D01*
X159824364Y-90430939D01*
X159406397Y-90347800D01*
X159363603Y-90347800D01*
X158945636Y-90430939D01*
X158591301Y-90667698D01*
X158354542Y-91022033D01*
X158271403Y-91440000D01*
X158354542Y-91857967D01*
X158591301Y-92212302D01*
X158945636Y-92449061D01*
X159363603Y-92532200D01*
X159406397Y-92532200D01*
X159824364Y-92449061D01*
X160178699Y-92212302D01*
X160415458Y-91857967D01*
X160498597Y-91440000D01*
X160415458Y-91022033D01*
X160342784Y-90913268D01*
X161670252Y-89585800D01*
X163348148Y-89585800D01*
X162447476Y-90486472D01*
X162364364Y-90430939D01*
X161946397Y-90347800D01*
X161903603Y-90347800D01*
X161485636Y-90430939D01*
X161131301Y-90667698D01*
X160894542Y-91022033D01*
X160811403Y-91440000D01*
X160894542Y-91857967D01*
X161131301Y-92212302D01*
X161485636Y-92449061D01*
X161903603Y-92532200D01*
X161946397Y-92532200D01*
X162364364Y-92449061D01*
X162718699Y-92212302D01*
X162955458Y-91857967D01*
X163038597Y-91440000D01*
X163351403Y-91440000D01*
X163434542Y-91857967D01*
X163671301Y-92212302D01*
X164025636Y-92449061D01*
X164443603Y-92532200D01*
X164486397Y-92532200D01*
X164904364Y-92449061D01*
X165258699Y-92212302D01*
X165495458Y-91857967D01*
X165578597Y-91440000D01*
X165495458Y-91022033D01*
X165258699Y-90667698D01*
X164904364Y-90430939D01*
X164486397Y-90347800D01*
X164443603Y-90347800D01*
X164025636Y-90430939D01*
X163671301Y-90667698D01*
X163434542Y-91022033D01*
X163351403Y-91440000D01*
X163038597Y-91440000D01*
X162955458Y-91022033D01*
X162882784Y-90913268D01*
X163880052Y-89916000D01*
X167487600Y-89916000D01*
X167604242Y-89892798D01*
X167703126Y-89826726D01*
X167837531Y-89692321D01*
X167856023Y-89700000D01*
X168083380Y-89700199D01*
X168293506Y-89613376D01*
X168427470Y-89479645D01*
X168480840Y-89533108D01*
X167527476Y-90486472D01*
X167444364Y-90430939D01*
X167026397Y-90347800D01*
X166983603Y-90347800D01*
X166565636Y-90430939D01*
X166211301Y-90667698D01*
X165974542Y-91022033D01*
X165891403Y-91440000D01*
X165974542Y-91857967D01*
X166211301Y-92212302D01*
X166565636Y-92449061D01*
X166983603Y-92532200D01*
X167026397Y-92532200D01*
X167444364Y-92449061D01*
X167798699Y-92212302D01*
X168035458Y-91857967D01*
X168118597Y-91440000D01*
X168431403Y-91440000D01*
X168514542Y-91857967D01*
X168751301Y-92212302D01*
X169105636Y-92449061D01*
X169523603Y-92532200D01*
X169566397Y-92532200D01*
X169984364Y-92449061D01*
X170338699Y-92212302D01*
X170575458Y-91857967D01*
X170658597Y-91440000D01*
X170575458Y-91022033D01*
X170338699Y-90667698D01*
X170202062Y-90576400D01*
X170988322Y-90576400D01*
X170988322Y-92303600D01*
X171004262Y-92388314D01*
X171054328Y-92466118D01*
X171130720Y-92518315D01*
X171221400Y-92536678D01*
X172948600Y-92536678D01*
X173033314Y-92520738D01*
X173111118Y-92470672D01*
X173163315Y-92394280D01*
X173181678Y-92303600D01*
X173181678Y-90576400D01*
X173165738Y-90491686D01*
X173115672Y-90413882D01*
X173039280Y-90361685D01*
X172948600Y-90343322D01*
X171221400Y-90343322D01*
X171136686Y-90359262D01*
X171058882Y-90409328D01*
X171006685Y-90485720D01*
X170988322Y-90576400D01*
X170202062Y-90576400D01*
X169984364Y-90430939D01*
X169566397Y-90347800D01*
X169523603Y-90347800D01*
X169105636Y-90430939D01*
X168751301Y-90667698D01*
X168514542Y-91022033D01*
X168431403Y-91440000D01*
X168118597Y-91440000D01*
X168035458Y-91022033D01*
X167962784Y-90913268D01*
X169074726Y-89801326D01*
X169123826Y-89727842D01*
X169140798Y-89702442D01*
X169161871Y-89596502D01*
X169182506Y-89587976D01*
X169343411Y-89427351D01*
X169430600Y-89217377D01*
X169430799Y-88990020D01*
X169343976Y-88779894D01*
X169183351Y-88618989D01*
X168973377Y-88531800D01*
X168746020Y-88531601D01*
X168535894Y-88618424D01*
X168401930Y-88752155D01*
X168294351Y-88644389D01*
X168084377Y-88557200D01*
X167906008Y-88557044D01*
X170014526Y-86448526D01*
X170038265Y-86412998D01*
X170080598Y-86349642D01*
X170103800Y-86233000D01*
X170103800Y-85749652D01*
X170131115Y-85722337D01*
X170211449Y-85802811D01*
X170421423Y-85890000D01*
X170648780Y-85890199D01*
X170858906Y-85803376D01*
X171019811Y-85642751D01*
X171107000Y-85432777D01*
X171107199Y-85205420D01*
X171020376Y-84995294D01*
X170899367Y-84874074D01*
X170969011Y-84804551D01*
X171056200Y-84594577D01*
X171056399Y-84367220D01*
X170969576Y-84157094D01*
X170808951Y-83996189D01*
X170598977Y-83909000D01*
X170371620Y-83908801D01*
X170161494Y-83995624D01*
X170000589Y-84156249D01*
X169989399Y-84183199D01*
X169910959Y-84198801D01*
X169812074Y-84264874D01*
X169253274Y-84823674D01*
X169187202Y-84922558D01*
X169164000Y-85039200D01*
X169164000Y-85979748D01*
X166497748Y-88646000D01*
X156794200Y-88646000D01*
X156677558Y-88669202D01*
X156578674Y-88735274D01*
X154827476Y-90486472D01*
X154744364Y-90430939D01*
X154326397Y-90347800D01*
X154283603Y-90347800D01*
X153865636Y-90430939D01*
X153511301Y-90667698D01*
X153274542Y-91022033D01*
X153191403Y-91440000D01*
X152878597Y-91440000D01*
X152795458Y-91022033D01*
X152558699Y-90667698D01*
X152204364Y-90430939D01*
X151786397Y-90347800D01*
X151743603Y-90347800D01*
X151325636Y-90430939D01*
X150971301Y-90667698D01*
X150734542Y-91022033D01*
X150651403Y-91440000D01*
X150338597Y-91440000D01*
X150255458Y-91022033D01*
X150018699Y-90667698D01*
X149664364Y-90430939D01*
X149246397Y-90347800D01*
X149203603Y-90347800D01*
X148785636Y-90430939D01*
X148431301Y-90667698D01*
X148194542Y-91022033D01*
X148111403Y-91440000D01*
X143586200Y-91440000D01*
X143586200Y-86244580D01*
X151803001Y-86244580D01*
X151889824Y-86454706D01*
X152050449Y-86615611D01*
X152260423Y-86702800D01*
X152487780Y-86702999D01*
X152697906Y-86616176D01*
X152858811Y-86455551D01*
X152866846Y-86436200D01*
X159679977Y-86436200D01*
X159687624Y-86454706D01*
X159848249Y-86615611D01*
X160058223Y-86702800D01*
X160285580Y-86702999D01*
X160495706Y-86616176D01*
X160656611Y-86455551D01*
X160743800Y-86245577D01*
X160743999Y-86018220D01*
X160657176Y-85808094D01*
X160496551Y-85647189D01*
X160286577Y-85560000D01*
X160059220Y-85559801D01*
X159849094Y-85646624D01*
X159688189Y-85807249D01*
X159680154Y-85826600D01*
X152867023Y-85826600D01*
X152859376Y-85808094D01*
X152698751Y-85647189D01*
X152488777Y-85560000D01*
X152261420Y-85559801D01*
X152051294Y-85646624D01*
X151890389Y-85807249D01*
X151803200Y-86017223D01*
X151803001Y-86244580D01*
X143586200Y-86244580D01*
X143586200Y-85762400D01*
X143876639Y-85883591D01*
X144417360Y-85885000D01*
X144917461Y-85679375D01*
X144923464Y-85675365D01*
X144990538Y-85436940D01*
X144150540Y-84596942D01*
X144136398Y-84611085D01*
X144064556Y-84539243D01*
X144078698Y-84525100D01*
X144222382Y-84525100D01*
X145062380Y-85365098D01*
X145300805Y-85298024D01*
X145509031Y-84799001D01*
X145509974Y-84436940D01*
X146010542Y-84436940D01*
X146077616Y-84675365D01*
X146576639Y-84883591D01*
X147117360Y-84885000D01*
X147617461Y-84679375D01*
X147623464Y-84675365D01*
X147690538Y-84436940D01*
X146850540Y-83596942D01*
X146010542Y-84436940D01*
X145509974Y-84436940D01*
X145510440Y-84258280D01*
X145318689Y-83791920D01*
X145490640Y-83791920D01*
X145696265Y-84292021D01*
X145700275Y-84298024D01*
X145938700Y-84365098D01*
X146778698Y-83525100D01*
X146922382Y-83525100D01*
X147762380Y-84365098D01*
X148000805Y-84298024D01*
X148209031Y-83799001D01*
X148210440Y-83258280D01*
X148004815Y-82758179D01*
X148000805Y-82752176D01*
X147762380Y-82685102D01*
X146922382Y-83525100D01*
X146778698Y-83525100D01*
X145938700Y-82685102D01*
X145700275Y-82752176D01*
X145492049Y-83251199D01*
X145490640Y-83791920D01*
X145318689Y-83791920D01*
X145304815Y-83758179D01*
X145300805Y-83752176D01*
X145062380Y-83685102D01*
X144222382Y-84525100D01*
X144078698Y-84525100D01*
X144064556Y-84510958D01*
X144136398Y-84439116D01*
X144150540Y-84453258D01*
X144990538Y-83613260D01*
X144923464Y-83374835D01*
X144424441Y-83166609D01*
X143883720Y-83165200D01*
X143586200Y-83287530D01*
X143586200Y-82613260D01*
X146010542Y-82613260D01*
X146850540Y-83453258D01*
X147690538Y-82613260D01*
X147623464Y-82374835D01*
X147124441Y-82166609D01*
X146583720Y-82165200D01*
X146083619Y-82370825D01*
X146077616Y-82374835D01*
X146010542Y-82613260D01*
X143586200Y-82613260D01*
X143586200Y-79436940D01*
X146010542Y-79436940D01*
X146077616Y-79675365D01*
X146576639Y-79883591D01*
X147117360Y-79885000D01*
X147617461Y-79679375D01*
X147623464Y-79675365D01*
X147690538Y-79436940D01*
X146850540Y-78596942D01*
X146010542Y-79436940D01*
X143586200Y-79436940D01*
X143586200Y-78762400D01*
X143876639Y-78883591D01*
X144417360Y-78885000D01*
X144643740Y-78791920D01*
X145490640Y-78791920D01*
X145696265Y-79292021D01*
X145700275Y-79298024D01*
X145938700Y-79365098D01*
X146778698Y-78525100D01*
X146922382Y-78525100D01*
X147762380Y-79365098D01*
X148000805Y-79298024D01*
X148209031Y-78799001D01*
X148210440Y-78258280D01*
X148004815Y-77758179D01*
X148000805Y-77752176D01*
X147762380Y-77685102D01*
X146922382Y-78525100D01*
X146778698Y-78525100D01*
X145938700Y-77685102D01*
X145700275Y-77752176D01*
X145492049Y-78251199D01*
X145490640Y-78791920D01*
X144643740Y-78791920D01*
X144917461Y-78679375D01*
X144923464Y-78675365D01*
X144990538Y-78436940D01*
X144150540Y-77596942D01*
X144136398Y-77611085D01*
X144064556Y-77539243D01*
X144078698Y-77525100D01*
X144222382Y-77525100D01*
X145062380Y-78365098D01*
X145300805Y-78298024D01*
X145509031Y-77799001D01*
X145509515Y-77613260D01*
X146010542Y-77613260D01*
X146850540Y-78453258D01*
X147690538Y-77613260D01*
X147623464Y-77374835D01*
X147124441Y-77166609D01*
X146583720Y-77165200D01*
X146083619Y-77370825D01*
X146077616Y-77374835D01*
X146010542Y-77613260D01*
X145509515Y-77613260D01*
X145510440Y-77258280D01*
X145403825Y-76998980D01*
X147434201Y-76998980D01*
X147521024Y-77209106D01*
X147681649Y-77370011D01*
X147891623Y-77457200D01*
X148118980Y-77457399D01*
X148329106Y-77370576D01*
X148490011Y-77209951D01*
X148498046Y-77190600D01*
X156134548Y-77190600D01*
X157398879Y-78454931D01*
X157391200Y-78473423D01*
X157391001Y-78700780D01*
X157477824Y-78910906D01*
X157638449Y-79071811D01*
X157848423Y-79159000D01*
X158075780Y-79159199D01*
X158285906Y-79072376D01*
X158446811Y-78911751D01*
X158534000Y-78701777D01*
X158534199Y-78474420D01*
X158447376Y-78264294D01*
X158286751Y-78103389D01*
X158076777Y-78016200D01*
X157849420Y-78016001D01*
X157830055Y-78024003D01*
X156476326Y-76670274D01*
X156377442Y-76604202D01*
X156260800Y-76581000D01*
X148498223Y-76581000D01*
X148490576Y-76562494D01*
X148329951Y-76401589D01*
X148119977Y-76314400D01*
X147892620Y-76314201D01*
X147682494Y-76401024D01*
X147521589Y-76561649D01*
X147434400Y-76771623D01*
X147434201Y-76998980D01*
X145403825Y-76998980D01*
X145304815Y-76758179D01*
X145300805Y-76752176D01*
X145062380Y-76685102D01*
X144222382Y-77525100D01*
X144078698Y-77525100D01*
X144064556Y-77510958D01*
X144136398Y-77439116D01*
X144150540Y-77453258D01*
X144990538Y-76613260D01*
X144923464Y-76374835D01*
X144424441Y-76166609D01*
X143883720Y-76165200D01*
X143586200Y-76287530D01*
X143586200Y-70662800D01*
X166255800Y-70662800D01*
X166255800Y-71012800D01*
X166380606Y-71538643D01*
X166697143Y-71976698D01*
X167157222Y-72260274D01*
X167373435Y-72320291D01*
X167589200Y-72199107D01*
X167589200Y-70662800D01*
X167690800Y-70662800D01*
X167690800Y-72199107D01*
X167906565Y-72320291D01*
X168122778Y-72260274D01*
X168582857Y-71976698D01*
X168899394Y-71538643D01*
X169024200Y-71012800D01*
X169024200Y-70662800D01*
X167690800Y-70662800D01*
X167589200Y-70662800D01*
X166255800Y-70662800D01*
X143586200Y-70662800D01*
X143586200Y-69291200D01*
X166665422Y-69291200D01*
X166380606Y-69685357D01*
X166380606Y-69685357D01*
G37*
X166380606Y-69685357D02*
X166255800Y-70211200D01*
X166255800Y-70561200D01*
X167589200Y-70561200D01*
X167589200Y-70541200D01*
X167690800Y-70541200D01*
X167690800Y-70561200D01*
X169024200Y-70561200D01*
X169024200Y-70211200D01*
X168899394Y-69685357D01*
X168614578Y-69291200D01*
X169776629Y-69291200D01*
X169452670Y-69507662D01*
X169229698Y-69841364D01*
X169151400Y-70234992D01*
X169151400Y-70989008D01*
X169229698Y-71382636D01*
X169452670Y-71716338D01*
X169786372Y-71939310D01*
X169875200Y-71956979D01*
X169875200Y-73482948D01*
X166306874Y-77051274D01*
X166240802Y-77150158D01*
X166217600Y-77266800D01*
X166217600Y-82728548D01*
X166052874Y-82893274D01*
X165986802Y-82992158D01*
X165963600Y-83108800D01*
X165963600Y-83744548D01*
X165380148Y-84328000D01*
X160603452Y-84328000D01*
X160235526Y-83960074D01*
X160136642Y-83894002D01*
X160020000Y-83870800D01*
X156260800Y-83870800D01*
X156144158Y-83894002D01*
X156102855Y-83921600D01*
X156045274Y-83960074D01*
X155783869Y-84221479D01*
X155765377Y-84213800D01*
X155538020Y-84213601D01*
X155327894Y-84300424D01*
X155166989Y-84461049D01*
X155079800Y-84671023D01*
X155079601Y-84898380D01*
X155166424Y-85108506D01*
X155327049Y-85269411D01*
X155537023Y-85356600D01*
X155764380Y-85356799D01*
X155974506Y-85269976D01*
X156006826Y-85237712D01*
X156165249Y-85396411D01*
X156375223Y-85483600D01*
X156602580Y-85483799D01*
X156812706Y-85396976D01*
X156973611Y-85236351D01*
X157060800Y-85026377D01*
X157060989Y-84810600D01*
X159360348Y-84810600D01*
X159829874Y-85280126D01*
X159928759Y-85346199D01*
X160045400Y-85369400D01*
X166852600Y-85369400D01*
X166969242Y-85346198D01*
X167068126Y-85280126D01*
X168617526Y-83730726D01*
X168683598Y-83631842D01*
X168690540Y-83596942D01*
X168706800Y-83515200D01*
X168706800Y-80745852D01*
X169188652Y-80264000D01*
X170967400Y-80264000D01*
X171084042Y-80240798D01*
X171182926Y-80174726D01*
X172009841Y-79347811D01*
X172326372Y-79559310D01*
X172720000Y-79637608D01*
X173113628Y-79559310D01*
X173447330Y-79336338D01*
X173670302Y-79002636D01*
X173748600Y-78609008D01*
X173748600Y-77854992D01*
X174231400Y-77854992D01*
X174231400Y-78609008D01*
X174309698Y-79002636D01*
X174532670Y-79336338D01*
X174866372Y-79559310D01*
X175260000Y-79637608D01*
X175653628Y-79559310D01*
X175987330Y-79336338D01*
X176210302Y-79002636D01*
X176288600Y-78609008D01*
X176288600Y-77854992D01*
X176210302Y-77461364D01*
X175987330Y-77127662D01*
X175653628Y-76904690D01*
X175260000Y-76826392D01*
X174866372Y-76904690D01*
X174532670Y-77127662D01*
X174309698Y-77461364D01*
X174231400Y-77854992D01*
X173748600Y-77854992D01*
X173670302Y-77461364D01*
X173447330Y-77127662D01*
X173113628Y-76904690D01*
X172720000Y-76826392D01*
X172326372Y-76904690D01*
X171992670Y-77127662D01*
X171769698Y-77461364D01*
X171691400Y-77854992D01*
X171691400Y-78609008D01*
X171723776Y-78771772D01*
X170841148Y-79654400D01*
X169320106Y-79654400D01*
X169344000Y-79618640D01*
X169367202Y-79501998D01*
X169367202Y-79208426D01*
X169452670Y-79336338D01*
X169786372Y-79559310D01*
X170180000Y-79637608D01*
X170573628Y-79559310D01*
X170907330Y-79336338D01*
X171130302Y-79002636D01*
X171208600Y-78609008D01*
X171208600Y-77854992D01*
X171130302Y-77461364D01*
X170907330Y-77127662D01*
X170573628Y-76904690D01*
X170180000Y-76826392D01*
X169786372Y-76904690D01*
X169452670Y-77127662D01*
X169367202Y-77255574D01*
X169367202Y-75716650D01*
X172211252Y-72872600D01*
X174625000Y-72872600D01*
X174741642Y-72849398D01*
X174840526Y-72783326D01*
X175424726Y-72199126D01*
X175490799Y-72100241D01*
X175511717Y-71995078D01*
X176060000Y-71995078D01*
X176144714Y-71979138D01*
X176222518Y-71929072D01*
X176274715Y-71852680D01*
X176293078Y-71762000D01*
X176293078Y-69462000D01*
X176277138Y-69377286D01*
X176227072Y-69299482D01*
X176214951Y-69291200D01*
X177088800Y-69291200D01*
X177088800Y-97078800D01*
X143586200Y-97078800D01*
X143586200Y-94256521D01*
X147803853Y-94256521D01*
X147806208Y-94268378D01*
X148024565Y-94789375D01*
X148425677Y-95187152D01*
X148948479Y-95401151D01*
X149174200Y-95280862D01*
X149174200Y-94030800D01*
X149275800Y-94030800D01*
X149275800Y-95280862D01*
X149501521Y-95401151D01*
X150024323Y-95187152D01*
X150425435Y-94789375D01*
X150495000Y-94623394D01*
X150564565Y-94789375D01*
X150965677Y-95187152D01*
X151488479Y-95401151D01*
X151714200Y-95280862D01*
X151714200Y-94030800D01*
X151815800Y-94030800D01*
X151815800Y-95280862D01*
X152041521Y-95401151D01*
X152564323Y-95187152D01*
X152965435Y-94789375D01*
X153035000Y-94623394D01*
X153104565Y-94789375D01*
X153505677Y-95187152D01*
X154028479Y-95401151D01*
X154254200Y-95280862D01*
X154254200Y-94030800D01*
X154355800Y-94030800D01*
X154355800Y-95280862D01*
X154581521Y-95401151D01*
X155104323Y-95187152D01*
X155505435Y-94789375D01*
X155575000Y-94623394D01*
X155644565Y-94789375D01*
X156045677Y-95187152D01*
X156568479Y-95401151D01*
X156794200Y-95280862D01*
X156794200Y-94030800D01*
X156895800Y-94030800D01*
X156895800Y-95280862D01*
X157121521Y-95401151D01*
X157644323Y-95187152D01*
X158045435Y-94789375D01*
X158115000Y-94623394D01*
X158184565Y-94789375D01*
X158585677Y-95187152D01*
X159108479Y-95401151D01*
X159334200Y-95280862D01*
X159334200Y-94030800D01*
X159435800Y-94030800D01*
X159435800Y-95280862D01*
X159661521Y-95401151D01*
X160184323Y-95187152D01*
X160585435Y-94789375D01*
X160655000Y-94623394D01*
X160724565Y-94789375D01*
X161125677Y-95187152D01*
X161648479Y-95401151D01*
X161874200Y-95280862D01*
X161874200Y-94030800D01*
X161975800Y-94030800D01*
X161975800Y-95280862D01*
X162201521Y-95401151D01*
X162724323Y-95187152D01*
X163125435Y-94789375D01*
X163195000Y-94623394D01*
X163264565Y-94789375D01*
X163665677Y-95187152D01*
X164188479Y-95401151D01*
X164414200Y-95280862D01*
X164414200Y-94030800D01*
X164515800Y-94030800D01*
X164515800Y-95280862D01*
X164741521Y-95401151D01*
X165264323Y-95187152D01*
X165665435Y-94789375D01*
X165735000Y-94623394D01*
X165804565Y-94789375D01*
X166205677Y-95187152D01*
X166728479Y-95401151D01*
X166954200Y-95280862D01*
X166954200Y-94030800D01*
X167055800Y-94030800D01*
X167055800Y-95280862D01*
X167281521Y-95401151D01*
X167804323Y-95187152D01*
X168205435Y-94789375D01*
X168275000Y-94623394D01*
X168344565Y-94789375D01*
X168745677Y-95187152D01*
X169268479Y-95401151D01*
X169494200Y-95280862D01*
X169494200Y-94030800D01*
X167055800Y-94030800D01*
X166954200Y-94030800D01*
X164515800Y-94030800D01*
X164414200Y-94030800D01*
X161975800Y-94030800D01*
X161874200Y-94030800D01*
X159435800Y-94030800D01*
X159334200Y-94030800D01*
X156895800Y-94030800D01*
X156794200Y-94030800D01*
X154355800Y-94030800D01*
X154254200Y-94030800D01*
X151815800Y-94030800D01*
X151714200Y-94030800D01*
X149275800Y-94030800D01*
X149174200Y-94030800D01*
X147924242Y-94030800D01*
X147803853Y-94256521D01*
X143586200Y-94256521D01*
X143586200Y-93703479D01*
X147803853Y-93703479D01*
X147924242Y-93929200D01*
X149174200Y-93929200D01*
X149174200Y-92679138D01*
X149275800Y-92679138D01*
X149275800Y-93929200D01*
X151714200Y-93929200D01*
X151714200Y-92679138D01*
X151815800Y-92679138D01*
X151815800Y-93929200D01*
X154254200Y-93929200D01*
X154254200Y-92679138D01*
X154355800Y-92679138D01*
X154355800Y-93929200D01*
X156794200Y-93929200D01*
X156794200Y-92679138D01*
X156895800Y-92679138D01*
X156895800Y-93929200D01*
X159334200Y-93929200D01*
X159334200Y-92679138D01*
X159435800Y-92679138D01*
X159435800Y-93929200D01*
X161874200Y-93929200D01*
X161874200Y-92679138D01*
X161975800Y-92679138D01*
X161975800Y-93929200D01*
X164414200Y-93929200D01*
X164414200Y-92679138D01*
X164515800Y-92679138D01*
X164515800Y-93929200D01*
X166954200Y-93929200D01*
X166954200Y-92679138D01*
X167055800Y-92679138D01*
X167055800Y-93929200D01*
X169494200Y-93929200D01*
X169494200Y-92679138D01*
X169595800Y-92679138D01*
X169595800Y-93929200D01*
X169615800Y-93929200D01*
X169615800Y-94030800D01*
X169595800Y-94030800D01*
X169595800Y-95280862D01*
X169821521Y-95401151D01*
X170344323Y-95187152D01*
X170745435Y-94789375D01*
X170963792Y-94268378D01*
X170966147Y-94256521D01*
X170845759Y-94030802D01*
X170981508Y-94030802D01*
X171054542Y-94397967D01*
X171291301Y-94752302D01*
X171645636Y-94989061D01*
X172063603Y-95072200D01*
X172106397Y-95072200D01*
X172524364Y-94989061D01*
X172878699Y-94752302D01*
X173115458Y-94397967D01*
X173198597Y-93980000D01*
X173115458Y-93562033D01*
X172878699Y-93207698D01*
X172524364Y-92970939D01*
X172106397Y-92887800D01*
X172063603Y-92887800D01*
X171645636Y-92970939D01*
X171291301Y-93207698D01*
X171054542Y-93562033D01*
X170981508Y-93929198D01*
X170845759Y-93929198D01*
X170966147Y-93703479D01*
X170963792Y-93691622D01*
X170745435Y-93170625D01*
X170344323Y-92772848D01*
X169821521Y-92558849D01*
X169595800Y-92679138D01*
X169494200Y-92679138D01*
X169268479Y-92558849D01*
X168745677Y-92772848D01*
X168344565Y-93170625D01*
X168275000Y-93336606D01*
X168205435Y-93170625D01*
X167804323Y-92772848D01*
X167281521Y-92558849D01*
X167055800Y-92679138D01*
X166954200Y-92679138D01*
X166728479Y-92558849D01*
X166205677Y-92772848D01*
X165804565Y-93170625D01*
X165735000Y-93336606D01*
X165665435Y-93170625D01*
X165264323Y-92772848D01*
X164741521Y-92558849D01*
X164515800Y-92679138D01*
X164414200Y-92679138D01*
X164188479Y-92558849D01*
X163665677Y-92772848D01*
X163264565Y-93170625D01*
X163195000Y-93336606D01*
X163125435Y-93170625D01*
X162724323Y-92772848D01*
X162201521Y-92558849D01*
X161975800Y-92679138D01*
X161874200Y-92679138D01*
X161648479Y-92558849D01*
X161125677Y-92772848D01*
X160724565Y-93170625D01*
X160655000Y-93336606D01*
X160585435Y-93170625D01*
X160184323Y-92772848D01*
X159661521Y-92558849D01*
X159435800Y-92679138D01*
X159334200Y-92679138D01*
X159108479Y-92558849D01*
X158585677Y-92772848D01*
X158184565Y-93170625D01*
X158115000Y-93336606D01*
X158045435Y-93170625D01*
X157644323Y-92772848D01*
X157121521Y-92558849D01*
X156895800Y-92679138D01*
X156794200Y-92679138D01*
X156568479Y-92558849D01*
X156045677Y-92772848D01*
X155644565Y-93170625D01*
X155575000Y-93336606D01*
X155505435Y-93170625D01*
X155104323Y-92772848D01*
X154581521Y-92558849D01*
X154355800Y-92679138D01*
X154254200Y-92679138D01*
X154028479Y-92558849D01*
X153505677Y-92772848D01*
X153104565Y-93170625D01*
X153035000Y-93336606D01*
X152965435Y-93170625D01*
X152564323Y-92772848D01*
X152041521Y-92558849D01*
X151815800Y-92679138D01*
X151714200Y-92679138D01*
X151488479Y-92558849D01*
X150965677Y-92772848D01*
X150564565Y-93170625D01*
X150495000Y-93336606D01*
X150425435Y-93170625D01*
X150024323Y-92772848D01*
X149501521Y-92558849D01*
X149275800Y-92679138D01*
X149174200Y-92679138D01*
X148948479Y-92558849D01*
X148425677Y-92772848D01*
X148024565Y-93170625D01*
X147806208Y-93691622D01*
X147803853Y-93703479D01*
X143586200Y-93703479D01*
X143586200Y-91440000D01*
X148111403Y-91440000D01*
X148194542Y-91857967D01*
X148431301Y-92212302D01*
X148785636Y-92449061D01*
X149203603Y-92532200D01*
X149246397Y-92532200D01*
X149664364Y-92449061D01*
X150018699Y-92212302D01*
X150255458Y-91857967D01*
X150338597Y-91440000D01*
X150651403Y-91440000D01*
X150734542Y-91857967D01*
X150971301Y-92212302D01*
X151325636Y-92449061D01*
X151743603Y-92532200D01*
X151786397Y-92532200D01*
X152204364Y-92449061D01*
X152558699Y-92212302D01*
X152795458Y-91857967D01*
X152878597Y-91440000D01*
X153191403Y-91440000D01*
X153274542Y-91857967D01*
X153511301Y-92212302D01*
X153865636Y-92449061D01*
X154283603Y-92532200D01*
X154326397Y-92532200D01*
X154744364Y-92449061D01*
X155098699Y-92212302D01*
X155335458Y-91857967D01*
X155418597Y-91440000D01*
X155731403Y-91440000D01*
X155814542Y-91857967D01*
X156051301Y-92212302D01*
X156405636Y-92449061D01*
X156823603Y-92532200D01*
X156866397Y-92532200D01*
X157284364Y-92449061D01*
X157638699Y-92212302D01*
X157875458Y-91857967D01*
X157958597Y-91440000D01*
X157875458Y-91022033D01*
X157638699Y-90667698D01*
X157284364Y-90430939D01*
X156866397Y-90347800D01*
X156823603Y-90347800D01*
X156405636Y-90430939D01*
X156051301Y-90667698D01*
X155814542Y-91022033D01*
X155731403Y-91440000D01*
X155418597Y-91440000D01*
X155335458Y-91022033D01*
X155262784Y-90913268D01*
X156920452Y-89255600D01*
X161138348Y-89255600D01*
X159907476Y-90486472D01*
X159824364Y-90430939D01*
X159406397Y-90347800D01*
X159363603Y-90347800D01*
X158945636Y-90430939D01*
X158591301Y-90667698D01*
X158354542Y-91022033D01*
X158271403Y-91440000D01*
X158354542Y-91857967D01*
X158591301Y-92212302D01*
X158945636Y-92449061D01*
X159363603Y-92532200D01*
X159406397Y-92532200D01*
X159824364Y-92449061D01*
X160178699Y-92212302D01*
X160415458Y-91857967D01*
X160498597Y-91440000D01*
X160415458Y-91022033D01*
X160342784Y-90913268D01*
X161670252Y-89585800D01*
X163348148Y-89585800D01*
X162447476Y-90486472D01*
X162364364Y-90430939D01*
X161946397Y-90347800D01*
X161903603Y-90347800D01*
X161485636Y-90430939D01*
X161131301Y-90667698D01*
X160894542Y-91022033D01*
X160811403Y-91440000D01*
X160894542Y-91857967D01*
X161131301Y-92212302D01*
X161485636Y-92449061D01*
X161903603Y-92532200D01*
X161946397Y-92532200D01*
X162364364Y-92449061D01*
X162718699Y-92212302D01*
X162955458Y-91857967D01*
X163038597Y-91440000D01*
X163351403Y-91440000D01*
X163434542Y-91857967D01*
X163671301Y-92212302D01*
X164025636Y-92449061D01*
X164443603Y-92532200D01*
X164486397Y-92532200D01*
X164904364Y-92449061D01*
X165258699Y-92212302D01*
X165495458Y-91857967D01*
X165578597Y-91440000D01*
X165495458Y-91022033D01*
X165258699Y-90667698D01*
X164904364Y-90430939D01*
X164486397Y-90347800D01*
X164443603Y-90347800D01*
X164025636Y-90430939D01*
X163671301Y-90667698D01*
X163434542Y-91022033D01*
X163351403Y-91440000D01*
X163038597Y-91440000D01*
X162955458Y-91022033D01*
X162882784Y-90913268D01*
X163880052Y-89916000D01*
X167487600Y-89916000D01*
X167604242Y-89892798D01*
X167703126Y-89826726D01*
X167837531Y-89692321D01*
X167856023Y-89700000D01*
X168083380Y-89700199D01*
X168293506Y-89613376D01*
X168427470Y-89479645D01*
X168480840Y-89533108D01*
X167527476Y-90486472D01*
X167444364Y-90430939D01*
X167026397Y-90347800D01*
X166983603Y-90347800D01*
X166565636Y-90430939D01*
X166211301Y-90667698D01*
X165974542Y-91022033D01*
X165891403Y-91440000D01*
X165974542Y-91857967D01*
X166211301Y-92212302D01*
X166565636Y-92449061D01*
X166983603Y-92532200D01*
X167026397Y-92532200D01*
X167444364Y-92449061D01*
X167798699Y-92212302D01*
X168035458Y-91857967D01*
X168118597Y-91440000D01*
X168431403Y-91440000D01*
X168514542Y-91857967D01*
X168751301Y-92212302D01*
X169105636Y-92449061D01*
X169523603Y-92532200D01*
X169566397Y-92532200D01*
X169984364Y-92449061D01*
X170338699Y-92212302D01*
X170575458Y-91857967D01*
X170658597Y-91440000D01*
X170575458Y-91022033D01*
X170338699Y-90667698D01*
X170202062Y-90576400D01*
X170988322Y-90576400D01*
X170988322Y-92303600D01*
X171004262Y-92388314D01*
X171054328Y-92466118D01*
X171130720Y-92518315D01*
X171221400Y-92536678D01*
X172948600Y-92536678D01*
X173033314Y-92520738D01*
X173111118Y-92470672D01*
X173163315Y-92394280D01*
X173181678Y-92303600D01*
X173181678Y-90576400D01*
X173165738Y-90491686D01*
X173115672Y-90413882D01*
X173039280Y-90361685D01*
X172948600Y-90343322D01*
X171221400Y-90343322D01*
X171136686Y-90359262D01*
X171058882Y-90409328D01*
X171006685Y-90485720D01*
X170988322Y-90576400D01*
X170202062Y-90576400D01*
X169984364Y-90430939D01*
X169566397Y-90347800D01*
X169523603Y-90347800D01*
X169105636Y-90430939D01*
X168751301Y-90667698D01*
X168514542Y-91022033D01*
X168431403Y-91440000D01*
X168118597Y-91440000D01*
X168035458Y-91022033D01*
X167962784Y-90913268D01*
X169074726Y-89801326D01*
X169123826Y-89727842D01*
X169140798Y-89702442D01*
X169161871Y-89596502D01*
X169182506Y-89587976D01*
X169343411Y-89427351D01*
X169430600Y-89217377D01*
X169430799Y-88990020D01*
X169343976Y-88779894D01*
X169183351Y-88618989D01*
X168973377Y-88531800D01*
X168746020Y-88531601D01*
X168535894Y-88618424D01*
X168401930Y-88752155D01*
X168294351Y-88644389D01*
X168084377Y-88557200D01*
X167906008Y-88557044D01*
X170014526Y-86448526D01*
X170038265Y-86412998D01*
X170080598Y-86349642D01*
X170103800Y-86233000D01*
X170103800Y-85749652D01*
X170131115Y-85722337D01*
X170211449Y-85802811D01*
X170421423Y-85890000D01*
X170648780Y-85890199D01*
X170858906Y-85803376D01*
X171019811Y-85642751D01*
X171107000Y-85432777D01*
X171107199Y-85205420D01*
X171020376Y-84995294D01*
X170899367Y-84874074D01*
X170969011Y-84804551D01*
X171056200Y-84594577D01*
X171056399Y-84367220D01*
X170969576Y-84157094D01*
X170808951Y-83996189D01*
X170598977Y-83909000D01*
X170371620Y-83908801D01*
X170161494Y-83995624D01*
X170000589Y-84156249D01*
X169989399Y-84183199D01*
X169910959Y-84198801D01*
X169812074Y-84264874D01*
X169253274Y-84823674D01*
X169187202Y-84922558D01*
X169164000Y-85039200D01*
X169164000Y-85979748D01*
X166497748Y-88646000D01*
X156794200Y-88646000D01*
X156677558Y-88669202D01*
X156578674Y-88735274D01*
X154827476Y-90486472D01*
X154744364Y-90430939D01*
X154326397Y-90347800D01*
X154283603Y-90347800D01*
X153865636Y-90430939D01*
X153511301Y-90667698D01*
X153274542Y-91022033D01*
X153191403Y-91440000D01*
X152878597Y-91440000D01*
X152795458Y-91022033D01*
X152558699Y-90667698D01*
X152204364Y-90430939D01*
X151786397Y-90347800D01*
X151743603Y-90347800D01*
X151325636Y-90430939D01*
X150971301Y-90667698D01*
X150734542Y-91022033D01*
X150651403Y-91440000D01*
X150338597Y-91440000D01*
X150255458Y-91022033D01*
X150018699Y-90667698D01*
X149664364Y-90430939D01*
X149246397Y-90347800D01*
X149203603Y-90347800D01*
X148785636Y-90430939D01*
X148431301Y-90667698D01*
X148194542Y-91022033D01*
X148111403Y-91440000D01*
X143586200Y-91440000D01*
X143586200Y-86244580D01*
X151803001Y-86244580D01*
X151889824Y-86454706D01*
X152050449Y-86615611D01*
X152260423Y-86702800D01*
X152487780Y-86702999D01*
X152697906Y-86616176D01*
X152858811Y-86455551D01*
X152866846Y-86436200D01*
X159679977Y-86436200D01*
X159687624Y-86454706D01*
X159848249Y-86615611D01*
X160058223Y-86702800D01*
X160285580Y-86702999D01*
X160495706Y-86616176D01*
X160656611Y-86455551D01*
X160743800Y-86245577D01*
X160743999Y-86018220D01*
X160657176Y-85808094D01*
X160496551Y-85647189D01*
X160286577Y-85560000D01*
X160059220Y-85559801D01*
X159849094Y-85646624D01*
X159688189Y-85807249D01*
X159680154Y-85826600D01*
X152867023Y-85826600D01*
X152859376Y-85808094D01*
X152698751Y-85647189D01*
X152488777Y-85560000D01*
X152261420Y-85559801D01*
X152051294Y-85646624D01*
X151890389Y-85807249D01*
X151803200Y-86017223D01*
X151803001Y-86244580D01*
X143586200Y-86244580D01*
X143586200Y-85762400D01*
X143876639Y-85883591D01*
X144417360Y-85885000D01*
X144917461Y-85679375D01*
X144923464Y-85675365D01*
X144990538Y-85436940D01*
X144150540Y-84596942D01*
X144136398Y-84611085D01*
X144064556Y-84539243D01*
X144078698Y-84525100D01*
X144222382Y-84525100D01*
X145062380Y-85365098D01*
X145300805Y-85298024D01*
X145509031Y-84799001D01*
X145509974Y-84436940D01*
X146010542Y-84436940D01*
X146077616Y-84675365D01*
X146576639Y-84883591D01*
X147117360Y-84885000D01*
X147617461Y-84679375D01*
X147623464Y-84675365D01*
X147690538Y-84436940D01*
X146850540Y-83596942D01*
X146010542Y-84436940D01*
X145509974Y-84436940D01*
X145510440Y-84258280D01*
X145318689Y-83791920D01*
X145490640Y-83791920D01*
X145696265Y-84292021D01*
X145700275Y-84298024D01*
X145938700Y-84365098D01*
X146778698Y-83525100D01*
X146922382Y-83525100D01*
X147762380Y-84365098D01*
X148000805Y-84298024D01*
X148209031Y-83799001D01*
X148210440Y-83258280D01*
X148004815Y-82758179D01*
X148000805Y-82752176D01*
X147762380Y-82685102D01*
X146922382Y-83525100D01*
X146778698Y-83525100D01*
X145938700Y-82685102D01*
X145700275Y-82752176D01*
X145492049Y-83251199D01*
X145490640Y-83791920D01*
X145318689Y-83791920D01*
X145304815Y-83758179D01*
X145300805Y-83752176D01*
X145062380Y-83685102D01*
X144222382Y-84525100D01*
X144078698Y-84525100D01*
X144064556Y-84510958D01*
X144136398Y-84439116D01*
X144150540Y-84453258D01*
X144990538Y-83613260D01*
X144923464Y-83374835D01*
X144424441Y-83166609D01*
X143883720Y-83165200D01*
X143586200Y-83287530D01*
X143586200Y-82613260D01*
X146010542Y-82613260D01*
X146850540Y-83453258D01*
X147690538Y-82613260D01*
X147623464Y-82374835D01*
X147124441Y-82166609D01*
X146583720Y-82165200D01*
X146083619Y-82370825D01*
X146077616Y-82374835D01*
X146010542Y-82613260D01*
X143586200Y-82613260D01*
X143586200Y-79436940D01*
X146010542Y-79436940D01*
X146077616Y-79675365D01*
X146576639Y-79883591D01*
X147117360Y-79885000D01*
X147617461Y-79679375D01*
X147623464Y-79675365D01*
X147690538Y-79436940D01*
X146850540Y-78596942D01*
X146010542Y-79436940D01*
X143586200Y-79436940D01*
X143586200Y-78762400D01*
X143876639Y-78883591D01*
X144417360Y-78885000D01*
X144643740Y-78791920D01*
X145490640Y-78791920D01*
X145696265Y-79292021D01*
X145700275Y-79298024D01*
X145938700Y-79365098D01*
X146778698Y-78525100D01*
X146922382Y-78525100D01*
X147762380Y-79365098D01*
X148000805Y-79298024D01*
X148209031Y-78799001D01*
X148210440Y-78258280D01*
X148004815Y-77758179D01*
X148000805Y-77752176D01*
X147762380Y-77685102D01*
X146922382Y-78525100D01*
X146778698Y-78525100D01*
X145938700Y-77685102D01*
X145700275Y-77752176D01*
X145492049Y-78251199D01*
X145490640Y-78791920D01*
X144643740Y-78791920D01*
X144917461Y-78679375D01*
X144923464Y-78675365D01*
X144990538Y-78436940D01*
X144150540Y-77596942D01*
X144136398Y-77611085D01*
X144064556Y-77539243D01*
X144078698Y-77525100D01*
X144222382Y-77525100D01*
X145062380Y-78365098D01*
X145300805Y-78298024D01*
X145509031Y-77799001D01*
X145509515Y-77613260D01*
X146010542Y-77613260D01*
X146850540Y-78453258D01*
X147690538Y-77613260D01*
X147623464Y-77374835D01*
X147124441Y-77166609D01*
X146583720Y-77165200D01*
X146083619Y-77370825D01*
X146077616Y-77374835D01*
X146010542Y-77613260D01*
X145509515Y-77613260D01*
X145510440Y-77258280D01*
X145403825Y-76998980D01*
X147434201Y-76998980D01*
X147521024Y-77209106D01*
X147681649Y-77370011D01*
X147891623Y-77457200D01*
X148118980Y-77457399D01*
X148329106Y-77370576D01*
X148490011Y-77209951D01*
X148498046Y-77190600D01*
X156134548Y-77190600D01*
X157398879Y-78454931D01*
X157391200Y-78473423D01*
X157391001Y-78700780D01*
X157477824Y-78910906D01*
X157638449Y-79071811D01*
X157848423Y-79159000D01*
X158075780Y-79159199D01*
X158285906Y-79072376D01*
X158446811Y-78911751D01*
X158534000Y-78701777D01*
X158534199Y-78474420D01*
X158447376Y-78264294D01*
X158286751Y-78103389D01*
X158076777Y-78016200D01*
X157849420Y-78016001D01*
X157830055Y-78024003D01*
X156476326Y-76670274D01*
X156377442Y-76604202D01*
X156260800Y-76581000D01*
X148498223Y-76581000D01*
X148490576Y-76562494D01*
X148329951Y-76401589D01*
X148119977Y-76314400D01*
X147892620Y-76314201D01*
X147682494Y-76401024D01*
X147521589Y-76561649D01*
X147434400Y-76771623D01*
X147434201Y-76998980D01*
X145403825Y-76998980D01*
X145304815Y-76758179D01*
X145300805Y-76752176D01*
X145062380Y-76685102D01*
X144222382Y-77525100D01*
X144078698Y-77525100D01*
X144064556Y-77510958D01*
X144136398Y-77439116D01*
X144150540Y-77453258D01*
X144990538Y-76613260D01*
X144923464Y-76374835D01*
X144424441Y-76166609D01*
X143883720Y-76165200D01*
X143586200Y-76287530D01*
X143586200Y-70662800D01*
X166255800Y-70662800D01*
X166255800Y-71012800D01*
X166380606Y-71538643D01*
X166697143Y-71976698D01*
X167157222Y-72260274D01*
X167373435Y-72320291D01*
X167589200Y-72199107D01*
X167589200Y-70662800D01*
X167690800Y-70662800D01*
X167690800Y-72199107D01*
X167906565Y-72320291D01*
X168122778Y-72260274D01*
X168582857Y-71976698D01*
X168899394Y-71538643D01*
X169024200Y-71012800D01*
X169024200Y-70662800D01*
X167690800Y-70662800D01*
X167589200Y-70662800D01*
X166255800Y-70662800D01*
X143586200Y-70662800D01*
X143586200Y-69291200D01*
X166665422Y-69291200D01*
X166380606Y-69685357D01*
G36*
X171992670Y-69507662D02*
X171769698Y-69841364D01*
X171691400Y-70234992D01*
X171691400Y-70989008D01*
X171769698Y-71382636D01*
X171992670Y-71716338D01*
X172316629Y-71932800D01*
X171983400Y-71932800D01*
X171866758Y-71956002D01*
X171767874Y-72022074D01*
X170484800Y-73305148D01*
X170484800Y-71956979D01*
X170573628Y-71939310D01*
X170907330Y-71716338D01*
X171130302Y-71382636D01*
X171208600Y-70989008D01*
X171208600Y-70234992D01*
X171130302Y-69841364D01*
X170907330Y-69507662D01*
X170583371Y-69291200D01*
X172316629Y-69291200D01*
X171992670Y-69507662D01*
X171992670Y-69507662D01*
G37*
X171992670Y-69507662D02*
X171769698Y-69841364D01*
X171691400Y-70234992D01*
X171691400Y-70989008D01*
X171769698Y-71382636D01*
X171992670Y-71716338D01*
X172316629Y-71932800D01*
X171983400Y-71932800D01*
X171866758Y-71956002D01*
X171767874Y-72022074D01*
X170484800Y-73305148D01*
X170484800Y-71956979D01*
X170573628Y-71939310D01*
X170907330Y-71716338D01*
X171130302Y-71382636D01*
X171208600Y-70989008D01*
X171208600Y-70234992D01*
X171130302Y-69841364D01*
X170907330Y-69507662D01*
X170583371Y-69291200D01*
X172316629Y-69291200D01*
X171992670Y-69507662D01*
G36*
X174297482Y-69294928D02*
X174245285Y-69371320D01*
X174226922Y-69462000D01*
X174226922Y-71762000D01*
X174242862Y-71846714D01*
X174292928Y-71924518D01*
X174369320Y-71976715D01*
X174460000Y-71995078D01*
X174766670Y-71995078D01*
X174498748Y-72263000D01*
X172897052Y-72263000D01*
X172935526Y-72224526D01*
X173001598Y-72125642D01*
X173024800Y-72009000D01*
X173024800Y-71956979D01*
X173113628Y-71939310D01*
X173447330Y-71716338D01*
X173670302Y-71382636D01*
X173748600Y-70989008D01*
X173748600Y-70234992D01*
X173670302Y-69841364D01*
X173447330Y-69507662D01*
X173123371Y-69291200D01*
X174303275Y-69291200D01*
X174297482Y-69294928D01*
X174297482Y-69294928D01*
G37*
X174297482Y-69294928D02*
X174245285Y-69371320D01*
X174226922Y-69462000D01*
X174226922Y-71762000D01*
X174242862Y-71846714D01*
X174292928Y-71924518D01*
X174369320Y-71976715D01*
X174460000Y-71995078D01*
X174766670Y-71995078D01*
X174498748Y-72263000D01*
X172897052Y-72263000D01*
X172935526Y-72224526D01*
X173001598Y-72125642D01*
X173024800Y-72009000D01*
X173024800Y-71956979D01*
X173113628Y-71939310D01*
X173447330Y-71716338D01*
X173670302Y-71382636D01*
X173748600Y-70989008D01*
X173748600Y-70234992D01*
X173670302Y-69841364D01*
X173447330Y-69507662D01*
X173123371Y-69291200D01*
X174303275Y-69291200D01*
X174297482Y-69294928D01*
M02*
