M48
;DRILL file {KiCad 4.0.2+dfsg1-stable} date Sat 23 Jul 2016 05:57:04 PM COT
;FORMAT={-:-/ absolute / inch / decimal}
FMAT,2
INCH,TZ
T1C0.013
T2C0.031
T3C0.040
T4C0.045
%
G90
G05
M72
T1
X5.707Y-2.761
X5.745Y-3.513
X5.747Y-3.639
X5.797Y-2.753
X5.827Y-3.027
X5.873Y-2.832
X5.883Y-2.9
X5.927Y-3.516
X5.957Y-2.9
X5.961Y-3.36
X5.999Y-3.391
X6.029Y-3.443
X6.032Y-3.357
X6.062Y-2.757
X6.074Y-3.527
X6.08Y-2.918
X6.092Y-3.3
X6.093Y-3.211
X6.128Y-3.338
X6.133Y-3.101
X6.134Y-3.156
X6.151Y-2.85
X6.161Y-3.343
X6.179Y-3.282
X6.219Y-2.755
X6.219Y-3.094
X6.24Y-2.915
X6.246Y-2.848
X6.249Y-3.35
X6.274Y-3.276
X6.278Y-3.2
X6.28Y-3.115
X6.306Y-3.391
X6.328Y-3.062
X6.387Y-2.754
X6.466Y-2.922
X6.479Y-3.379
X6.521Y-3.057
X6.524Y-3.138
X6.566Y-3.316
X6.569Y-3.281
X6.581Y-3.25
X6.613Y-3.509
X6.648Y-3.508
X6.663Y-3.246
X6.702Y-3.188
X6.712Y-3.326
X6.714Y-3.359
X6.734Y-2.845
X6.747Y-3.024
X6.747Y-3.531
X6.75Y-3.465
X6.83Y-3.016
X6.837Y-2.94
X6.84Y-3.296
X6.844Y-2.834
X6.89Y-3.561
X6.891Y-3.737
X6.893Y-3.452
X6.906Y-3.216
X6.943Y-3.029
X6.95Y-2.845
T2
X6.6Y-2.78
X6.6Y-3.08
X6.7Y-2.78
X6.7Y-3.08
X6.8Y-2.78
X6.8Y-3.08
X6.9Y-2.78
X6.9Y-3.08
T3
X5.875Y-3.6
X5.875Y-3.7
X5.975Y-3.6
X5.975Y-3.7
X6.075Y-3.6
X6.075Y-3.7
X6.175Y-3.6
X6.175Y-3.7
X6.275Y-3.6
X6.275Y-3.7
X6.375Y-3.6
X6.375Y-3.7
X6.475Y-3.6
X6.475Y-3.7
X6.575Y-3.6
X6.575Y-3.7
X6.675Y-3.6
X6.675Y-3.7
X6.775Y-3.6
X6.775Y-3.7
T4
X5.6752Y-3.0522
X5.6752Y-3.3278
X5.7815Y-3.0915
X5.7815Y-3.2884
T0
M30
