M48
;DRILL file {KiCad 4.0.2+dfsg1-stable} date Thu 21 Jul 2016 12:34:17 PM COT
;FORMAT={-:-/ absolute / inch / decimal}
FMAT,2
INCH,TZ
T1C0.013
T2C0.020
T3C0.022
T4C0.031
T5C0.040
%
G90
G05
M72
T1
X5.827Y-3.027
X5.999Y-3.391
X6.128Y-3.338
X6.161Y-3.343
X6.219Y-3.094
X6.249Y-3.35
X6.28Y-3.115
X6.306Y-3.391
X6.328Y-3.062
X6.479Y-3.379
X6.566Y-3.316
X6.569Y-3.281
X6.581Y-3.25
X6.613Y-3.509
X6.648Y-3.508
X6.712Y-3.326
X6.714Y-3.359
T4
X6.6Y-2.78
X6.6Y-3.08
X6.7Y-2.78
X6.7Y-3.08
X6.8Y-2.78
X6.8Y-3.08
X6.9Y-2.78
X6.9Y-3.08
T5
X5.875Y-3.6
X5.875Y-3.7
X5.975Y-3.6
X5.975Y-3.7
X6.075Y-3.6
X6.075Y-3.7
X6.175Y-3.6
X6.175Y-3.7
X6.275Y-3.6
X6.275Y-3.7
X6.375Y-3.6
X6.375Y-3.7
X6.475Y-3.6
X6.475Y-3.7
X6.575Y-3.6
X6.575Y-3.7
X6.675Y-3.6
X6.675Y-3.7
X6.775Y-3.6
X6.775Y-3.7
T2
X5.6624Y-3.0522G85X5.688Y-3.0522
G05
X5.6624Y-3.3278G85X5.688Y-3.3278
G05
T3
X5.7815Y-3.0856G85X5.7815Y-3.0974
G05
X5.7815Y-3.2825G85X5.7815Y-3.2943
G05
T0
M30
