G04 #@! TF.FileFunction,Copper,L1,Top,Signal*
%FSLAX46Y46*%
G04 Gerber Fmt 4.6, Leading zero omitted, Abs format (unit mm)*
G04 Created by KiCad (PCBNEW 4.0.2+dfsg1-stable) date Sat 23 Jul 2016 05:57:03 PM COT*
%MOMM*%
G01*
G04 APERTURE LIST*
%ADD10C,0.100000*%
%ADD11R,0.750000X1.200000*%
%ADD12R,1.727200X1.727200*%
%ADD13O,1.727200X1.727200*%
%ADD14R,1.000000X0.400000*%
%ADD15R,1.200000X0.750000*%
%ADD16R,1.350000X0.400000*%
%ADD17C,1.550000*%
%ADD18R,1.200000X0.900000*%
%ADD19R,0.900000X1.200000*%
%ADD20R,1.600000X2.300000*%
%ADD21O,1.600000X2.300000*%
%ADD22R,1.300000X0.250000*%
%ADD23R,0.250000X1.300000*%
%ADD24R,5.499100X1.998980*%
%ADD25R,1.198880X1.198880*%
%ADD26C,0.685800*%
%ADD27C,0.152400*%
%ADD28C,0.254000*%
G04 APERTURE END LIST*
D10*
D11*
X162687000Y-79563000D03*
X162687000Y-77663000D03*
D12*
X172085000Y-91440000D03*
D13*
X172085000Y-93980000D03*
X169545000Y-91440000D03*
X169545000Y-93980000D03*
X167005000Y-91440000D03*
X167005000Y-93980000D03*
X164465000Y-91440000D03*
X164465000Y-93980000D03*
X161925000Y-91440000D03*
X161925000Y-93980000D03*
X159385000Y-91440000D03*
X159385000Y-93980000D03*
X156845000Y-91440000D03*
X156845000Y-93980000D03*
X154305000Y-91440000D03*
X154305000Y-93980000D03*
X151765000Y-91440000D03*
X151765000Y-93980000D03*
X149225000Y-91440000D03*
X149225000Y-93980000D03*
D14*
X165756000Y-80641000D03*
X165756000Y-81291000D03*
X165756000Y-81941000D03*
X165756000Y-82591000D03*
X165756000Y-83241000D03*
X165756000Y-83891000D03*
X165756000Y-84541000D03*
X165756000Y-85191000D03*
X165756000Y-85841000D03*
X165756000Y-86491000D03*
X171556000Y-86491000D03*
X171556000Y-85841000D03*
X171556000Y-85191000D03*
X171556000Y-84541000D03*
X171556000Y-83891000D03*
X171556000Y-83241000D03*
X171556000Y-82591000D03*
X171556000Y-81941000D03*
X171556000Y-81291000D03*
X171556000Y-80641000D03*
D15*
X149418000Y-76835000D03*
X151318000Y-76835000D03*
D11*
X149860000Y-86040000D03*
X149860000Y-84140000D03*
D15*
X161483000Y-85852000D03*
X163383000Y-85852000D03*
X156525000Y-75692000D03*
X154625000Y-75692000D03*
D11*
X176149000Y-73472000D03*
X176149000Y-75372000D03*
D15*
X160462000Y-75692000D03*
X158562000Y-75692000D03*
X162245000Y-75692000D03*
X164145000Y-75692000D03*
X150810000Y-69850000D03*
X148910000Y-69850000D03*
X166309000Y-73660000D03*
X168209000Y-73660000D03*
D16*
X146850540Y-79725100D03*
X146850540Y-80375100D03*
X146850540Y-81025100D03*
X146850540Y-81675100D03*
X146850540Y-82325100D03*
D17*
X146850540Y-78525100D03*
X146850540Y-83525100D03*
X144150540Y-77525100D03*
X144150540Y-84525100D03*
D18*
X147150000Y-74930000D03*
X144950000Y-74930000D03*
X170223000Y-73660000D03*
X172423000Y-73660000D03*
X170223000Y-75565000D03*
X172423000Y-75565000D03*
D19*
X174447200Y-73474400D03*
X174447200Y-75674400D03*
X164211000Y-77513000D03*
X164211000Y-79713000D03*
X149860000Y-78529000D03*
X149860000Y-80729000D03*
X163576000Y-83904000D03*
X163576000Y-81704000D03*
D20*
X175260000Y-70612000D03*
D21*
X172720000Y-70612000D03*
X170180000Y-70612000D03*
X167640000Y-70612000D03*
X167640000Y-78232000D03*
X170180000Y-78232000D03*
X172720000Y-78232000D03*
X175260000Y-78232000D03*
D22*
X152368000Y-79038000D03*
X152368000Y-79538000D03*
X152368000Y-80038000D03*
X152368000Y-80538000D03*
X152368000Y-81038000D03*
X152368000Y-81538000D03*
X152368000Y-82038000D03*
X152368000Y-82538000D03*
X152368000Y-83038000D03*
X152368000Y-83538000D03*
X152368000Y-84038000D03*
X152368000Y-84538000D03*
D23*
X153968000Y-86138000D03*
X154468000Y-86138000D03*
X154968000Y-86138000D03*
X155468000Y-86138000D03*
X155968000Y-86138000D03*
X156468000Y-86138000D03*
X156968000Y-86138000D03*
X157468000Y-86138000D03*
X157968000Y-86138000D03*
X158468000Y-86138000D03*
X158968000Y-86138000D03*
X159468000Y-86138000D03*
D22*
X161068000Y-84538000D03*
X161068000Y-84038000D03*
X161068000Y-83538000D03*
X161068000Y-83038000D03*
X161068000Y-82538000D03*
X161068000Y-82038000D03*
X161068000Y-81538000D03*
X161068000Y-81038000D03*
X161068000Y-80538000D03*
X161068000Y-80038000D03*
X161068000Y-79538000D03*
X161068000Y-79038000D03*
D23*
X159468000Y-77438000D03*
X158968000Y-77438000D03*
X158468000Y-77438000D03*
X157968000Y-77438000D03*
X157468000Y-77438000D03*
X156968000Y-77438000D03*
X156468000Y-77438000D03*
X155968000Y-77438000D03*
X155468000Y-77438000D03*
X154968000Y-77438000D03*
X154468000Y-77438000D03*
X153968000Y-77438000D03*
D24*
X152781000Y-71755000D03*
X162179000Y-71755000D03*
D15*
X149418000Y-75184000D03*
X151318000Y-75184000D03*
D25*
X145000980Y-72898000D03*
X147099020Y-72898000D03*
D26*
X148005800Y-76885800D03*
X157962600Y-78587600D03*
X171043600Y-72263000D03*
X173837600Y-71983600D03*
X176530000Y-72263000D03*
X175412400Y-81686400D03*
X175082200Y-87680800D03*
X173736000Y-83718400D03*
X169240200Y-82448400D03*
X170230800Y-80975200D03*
X176352200Y-76936600D03*
X173659800Y-74676000D03*
X173482000Y-76606400D03*
X171373800Y-76809600D03*
X171450000Y-88011000D03*
X171373800Y-89687400D03*
X175006000Y-90449400D03*
X175031400Y-94919800D03*
X154279600Y-89585800D03*
X150545800Y-89306400D03*
X145923000Y-89230200D03*
X145973800Y-92430600D03*
X165709600Y-79705200D03*
X165633400Y-77647800D03*
X162229800Y-69951600D03*
X157962600Y-69977000D03*
X153974800Y-70027800D03*
X156235400Y-72390000D03*
X158648400Y-72339200D03*
X153212800Y-85267800D03*
X153136600Y-87452200D03*
X151409400Y-85344000D03*
X155778200Y-78765400D03*
X155803600Y-80162400D03*
X154762200Y-81559400D03*
X154736800Y-83820000D03*
X159461200Y-81280000D03*
X159359600Y-83210400D03*
X156946600Y-83362800D03*
X164236400Y-74218800D03*
X158496000Y-74041000D03*
X154432000Y-74117200D03*
X151307800Y-73660000D03*
X149428200Y-73660000D03*
X149174200Y-71932800D03*
X144957800Y-70129400D03*
X147243800Y-69926200D03*
X159512000Y-79121000D03*
X160731200Y-77774800D03*
X158724600Y-85090000D03*
X164566600Y-85826600D03*
X152374600Y-86131400D03*
X160172400Y-86131400D03*
X167970200Y-89128600D03*
X170535600Y-85318600D03*
X170484800Y-84480400D03*
X155651200Y-84785200D03*
X156489400Y-84912200D03*
X166776400Y-84226400D03*
X166852600Y-83337400D03*
X167157400Y-82550000D03*
X168859200Y-89103200D03*
D27*
X147150000Y-74930000D02*
X147150000Y-76243000D01*
X147150000Y-76243000D02*
X145796000Y-77597000D01*
X157968000Y-77438000D02*
X157968000Y-78582200D01*
X148056600Y-76835000D02*
X149418000Y-76835000D01*
X148005800Y-76885800D02*
X148056600Y-76835000D01*
X157968000Y-78582200D02*
X157962600Y-78587600D01*
X146146100Y-79725100D02*
X146850540Y-79725100D01*
X145796000Y-77597000D02*
X145796000Y-79375000D01*
X145796000Y-79375000D02*
X146146100Y-79725100D01*
X149418000Y-75184000D02*
X148336000Y-75184000D01*
X148082000Y-74930000D02*
X147150000Y-74930000D01*
X148336000Y-75184000D02*
X148082000Y-74930000D01*
X149418000Y-76835000D02*
X149418000Y-75184000D01*
X173837600Y-71983600D02*
X173761400Y-71983600D01*
X173482000Y-72263000D02*
X171043600Y-72263000D01*
X173761400Y-71983600D02*
X173482000Y-72263000D01*
X174142400Y-72288400D02*
X173837600Y-71983600D01*
X176504600Y-72288400D02*
X174142400Y-72288400D01*
X176530000Y-72263000D02*
X176504600Y-72288400D01*
X152368000Y-83038000D02*
X151008400Y-83038000D01*
X151008400Y-83038000D02*
X150977600Y-83068800D01*
X150977600Y-83068800D02*
X150977600Y-83566000D01*
X146850540Y-82325100D02*
X148238100Y-82325100D01*
X148656000Y-84140000D02*
X149860000Y-84140000D01*
X148336000Y-83820000D02*
X148656000Y-84140000D01*
X148336000Y-82423000D02*
X148336000Y-83820000D01*
X148238100Y-82325100D02*
X148336000Y-82423000D01*
X175082200Y-87680800D02*
X173736000Y-86334600D01*
X173736000Y-86334600D02*
X173736000Y-83718400D01*
X169240200Y-82448400D02*
X170230800Y-81457800D01*
X170230800Y-81457800D02*
X170230800Y-80975200D01*
X171556000Y-86491000D02*
X171556000Y-87905000D01*
X171556000Y-87905000D02*
X171450000Y-88011000D01*
X176149000Y-76733400D02*
X176149000Y-75372000D01*
X176352200Y-76936600D02*
X176149000Y-76733400D01*
X173659800Y-76428600D02*
X173659800Y-74676000D01*
X173482000Y-76606400D02*
X173659800Y-76428600D01*
X171373800Y-79349600D02*
X171373800Y-76809600D01*
X172161200Y-80137000D02*
X171373800Y-79349600D01*
X173863000Y-80137000D02*
X172161200Y-80137000D01*
X175412400Y-81686400D02*
X173863000Y-80137000D01*
X171450000Y-89611200D02*
X171450000Y-88011000D01*
X171373800Y-89687400D02*
X171450000Y-89611200D01*
X175006000Y-94894400D02*
X175006000Y-90449400D01*
X175031400Y-94919800D02*
X175006000Y-94894400D01*
X150825200Y-89585800D02*
X154279600Y-89585800D01*
X150545800Y-89306400D02*
X150825200Y-89585800D01*
X145923000Y-92379800D02*
X145923000Y-89230200D01*
X145973800Y-92430600D02*
X145923000Y-92379800D01*
X165709600Y-77724000D02*
X165709600Y-79705200D01*
X165633400Y-77647800D02*
X165709600Y-77724000D01*
X166217600Y-70612000D02*
X167640000Y-70612000D01*
X165582600Y-69977000D02*
X166217600Y-70612000D01*
X162255200Y-69977000D02*
X165582600Y-69977000D01*
X162229800Y-69951600D02*
X162255200Y-69977000D01*
X154025600Y-69977000D02*
X157962600Y-69977000D01*
X153974800Y-70027800D02*
X154025600Y-69977000D01*
X158597600Y-72390000D02*
X156235400Y-72390000D01*
X158648400Y-72339200D02*
X158597600Y-72390000D01*
X153136600Y-87452200D02*
X153136600Y-85344000D01*
X153136600Y-85344000D02*
X153212800Y-85267800D01*
X150952200Y-84038000D02*
X150952200Y-84886800D01*
X150952200Y-84886800D02*
X151409400Y-85344000D01*
X155778200Y-78562200D02*
X155778200Y-78765400D01*
X155803600Y-80162400D02*
X154762200Y-81203800D01*
X154762200Y-81203800D02*
X154762200Y-81559400D01*
X159461200Y-83108800D02*
X159461200Y-81280000D01*
X159359600Y-83210400D02*
X159461200Y-83108800D01*
X155194000Y-83362800D02*
X156946600Y-83362800D01*
X154736800Y-83820000D02*
X155194000Y-83362800D01*
X148910000Y-69850000D02*
X148910000Y-71668600D01*
X164145000Y-74310200D02*
X164145000Y-75692000D01*
X164236400Y-74218800D02*
X164145000Y-74310200D01*
X154508200Y-74041000D02*
X158496000Y-74041000D01*
X154432000Y-74117200D02*
X154508200Y-74041000D01*
X149428200Y-73660000D02*
X151307800Y-73660000D01*
X148910000Y-71668600D02*
X149174200Y-71932800D01*
X148910000Y-69850000D02*
X147320000Y-69850000D01*
X147099020Y-71407020D02*
X147099020Y-72898000D01*
X147091400Y-71399400D02*
X147099020Y-71407020D01*
X146227800Y-71399400D02*
X147091400Y-71399400D01*
X144957800Y-70129400D02*
X146227800Y-71399400D01*
X147320000Y-69850000D02*
X147243800Y-69926200D01*
X159823600Y-79038000D02*
X159595000Y-79038000D01*
X159595000Y-79038000D02*
X159512000Y-79121000D01*
X160843000Y-77663000D02*
X162687000Y-77663000D01*
X160731200Y-77774800D02*
X160843000Y-77663000D01*
X161068000Y-79538000D02*
X159831600Y-79538000D01*
X159823600Y-79038000D02*
X161068000Y-79038000D01*
X159664400Y-79197200D02*
X159823600Y-79038000D01*
X159664400Y-79370800D02*
X159664400Y-79197200D01*
X159831600Y-79538000D02*
X159664400Y-79370800D01*
X153968000Y-77438000D02*
X153968000Y-76498000D01*
X154012000Y-76454000D02*
X154468000Y-76454000D01*
X153968000Y-76498000D02*
X154012000Y-76454000D01*
X154468000Y-77438000D02*
X154468000Y-76454000D01*
X154468000Y-76454000D02*
X154468000Y-75849000D01*
X154468000Y-75849000D02*
X154625000Y-75692000D01*
X154468000Y-77438000D02*
X154468000Y-78562200D01*
X154432000Y-78613000D02*
X154432000Y-78562200D01*
X154432000Y-78598200D02*
X154432000Y-78613000D01*
X154468000Y-78562200D02*
X154432000Y-78598200D01*
X156968000Y-77438000D02*
X156968000Y-78562200D01*
X156972000Y-78536800D02*
X156972000Y-78562200D01*
X156972000Y-78558200D02*
X156972000Y-78536800D01*
X156968000Y-78562200D02*
X156972000Y-78558200D01*
X157468000Y-77438000D02*
X157468000Y-78294800D01*
X153968000Y-78403000D02*
X153968000Y-77438000D01*
X154127200Y-78562200D02*
X153968000Y-78403000D01*
X157200600Y-78562200D02*
X156972000Y-78562200D01*
X156972000Y-78562200D02*
X155778200Y-78562200D01*
X155778200Y-78562200D02*
X154432000Y-78562200D01*
X154432000Y-78562200D02*
X154127200Y-78562200D01*
X157468000Y-78294800D02*
X157200600Y-78562200D01*
X158468000Y-86138000D02*
X158468000Y-85346600D01*
X158468000Y-85346600D02*
X158724600Y-85090000D01*
X158968000Y-86138000D02*
X158968000Y-85333400D01*
X158968000Y-85333400D02*
X158724600Y-85090000D01*
X164541200Y-85852000D02*
X163383000Y-85852000D01*
X164566600Y-85826600D02*
X164541200Y-85852000D01*
X152368000Y-83538000D02*
X150977600Y-83538000D01*
X151028400Y-83566000D02*
X150977600Y-83566000D01*
X151005600Y-83566000D02*
X151028400Y-83566000D01*
X150977600Y-83538000D02*
X151005600Y-83566000D01*
X152368000Y-84038000D02*
X150952200Y-84038000D01*
X150952200Y-84038000D02*
X150988200Y-84038000D01*
X150988200Y-84038000D02*
X150977600Y-84048600D01*
X150886200Y-84140000D02*
X149860000Y-84140000D01*
X150977600Y-84048600D02*
X150886200Y-84140000D01*
X150977600Y-83566000D02*
X150977600Y-84048600D01*
X170223000Y-75565000D02*
X171018200Y-75565000D01*
X171323000Y-75057000D02*
X171754800Y-74625200D01*
X171323000Y-75260200D02*
X171323000Y-75057000D01*
X171018200Y-75565000D02*
X171323000Y-75260200D01*
X174447200Y-73474400D02*
X176146600Y-73474400D01*
X176146600Y-73474400D02*
X176149000Y-73472000D01*
X172423000Y-73660000D02*
X173355000Y-73660000D01*
X173540600Y-73474400D02*
X174447200Y-73474400D01*
X173355000Y-73660000D02*
X173540600Y-73474400D01*
X160324800Y-78486000D02*
X162001200Y-78486000D01*
X162179000Y-78663800D02*
X164998400Y-78663800D01*
X162001200Y-78486000D02*
X162179000Y-78663800D01*
X158572200Y-78486000D02*
X160324800Y-78486000D01*
X164211000Y-77513000D02*
X164998400Y-77513000D01*
X164998400Y-77513000D02*
X164998400Y-77520800D01*
X170223000Y-75565000D02*
X166547800Y-75565000D01*
X164998400Y-77114400D02*
X164998400Y-77520800D01*
X164998400Y-77520800D02*
X164998400Y-78300400D01*
X164998400Y-78663800D02*
X164998400Y-78300400D01*
X166547800Y-75565000D02*
X164998400Y-77114400D01*
X165756000Y-81291000D02*
X165085600Y-81291000D01*
X164998400Y-81203800D02*
X164998400Y-78663800D01*
X165085600Y-81291000D02*
X164998400Y-81203800D01*
X149860000Y-86040000D02*
X150937000Y-86040000D01*
X151028400Y-86131400D02*
X152374600Y-86131400D01*
X150937000Y-86040000D02*
X151028400Y-86131400D01*
X161483000Y-86741000D02*
X160782000Y-86741000D01*
X160782000Y-86741000D02*
X160172400Y-86131400D01*
X152368000Y-84538000D02*
X152368000Y-86124800D01*
X152368000Y-86124800D02*
X152374600Y-86131400D01*
X160165800Y-86138000D02*
X159468000Y-86138000D01*
X160172400Y-86131400D02*
X160165800Y-86138000D01*
X172423000Y-74287200D02*
X172423000Y-73660000D01*
X172085000Y-74625200D02*
X172423000Y-74287200D01*
X171754800Y-74625200D02*
X172085000Y-74625200D01*
X152368000Y-82538000D02*
X153695400Y-82538000D01*
X153670000Y-82524600D02*
X153695400Y-82524600D01*
X153682000Y-82524600D02*
X153670000Y-82524600D01*
X153695400Y-82538000D02*
X153682000Y-82524600D01*
X153695400Y-82245200D02*
X153695400Y-82524600D01*
X153695400Y-82524600D02*
X153695400Y-84277200D01*
X153695400Y-84277200D02*
X153434600Y-84538000D01*
X153434600Y-84538000D02*
X152368000Y-84538000D01*
X152368000Y-80038000D02*
X153695400Y-80038000D01*
X153670000Y-80035400D02*
X153695400Y-80035400D01*
X153692800Y-80035400D02*
X153670000Y-80035400D01*
X153695400Y-80038000D02*
X153692800Y-80035400D01*
X158468000Y-77438000D02*
X158468000Y-78280200D01*
X153695400Y-79781400D02*
X153695400Y-80035400D01*
X153695400Y-80035400D02*
X153695400Y-82245200D01*
X154025600Y-79451200D02*
X153695400Y-79781400D01*
X158064200Y-79451200D02*
X154025600Y-79451200D01*
X158572200Y-78943200D02*
X158064200Y-79451200D01*
X158572200Y-78384400D02*
X158572200Y-78486000D01*
X158572200Y-78486000D02*
X158572200Y-78943200D01*
X158468000Y-78280200D02*
X158572200Y-78384400D01*
X161483000Y-85852000D02*
X161483000Y-86741000D01*
X161483000Y-86741000D02*
X161544000Y-86741000D01*
X165756000Y-86491000D02*
X164969000Y-86491000D01*
X164719000Y-86741000D02*
X161544000Y-86741000D01*
X164969000Y-86491000D02*
X164719000Y-86741000D01*
X158468000Y-77438000D02*
X158468000Y-76680000D01*
X156525000Y-76134000D02*
X156525000Y-75692000D01*
X156845000Y-76454000D02*
X156525000Y-76134000D01*
X158242000Y-76454000D02*
X156845000Y-76454000D01*
X158468000Y-76680000D02*
X158242000Y-76454000D01*
X158968000Y-77438000D02*
X158968000Y-76617000D01*
X159700000Y-76454000D02*
X160462000Y-75692000D01*
X159131000Y-76454000D02*
X159700000Y-76454000D01*
X158968000Y-76617000D02*
X159131000Y-76454000D01*
X162245000Y-75692000D02*
X162245000Y-76134000D01*
X159798000Y-77438000D02*
X159468000Y-77438000D01*
X160782000Y-76454000D02*
X159798000Y-77438000D01*
X161925000Y-76454000D02*
X160782000Y-76454000D01*
X162245000Y-76134000D02*
X161925000Y-76454000D01*
X162687000Y-79563000D02*
X163332200Y-79563000D01*
X163474400Y-79705200D02*
X164203200Y-79705200D01*
X163332200Y-79563000D02*
X163474400Y-79705200D01*
X164203200Y-79705200D02*
X164211000Y-79713000D01*
X162687000Y-79563000D02*
X162194200Y-79563000D01*
X161922400Y-80038000D02*
X161068000Y-80038000D01*
X162026600Y-79933800D02*
X161922400Y-80038000D01*
X162026600Y-79730600D02*
X162026600Y-79933800D01*
X162194200Y-79563000D02*
X162026600Y-79730600D01*
X150810000Y-69850000D02*
X152273000Y-69850000D01*
X152781000Y-70358000D02*
X152781000Y-71755000D01*
X152273000Y-69850000D02*
X152781000Y-70358000D01*
X152368000Y-79038000D02*
X152368000Y-78645000D01*
X152781000Y-73152000D02*
X152781000Y-71755000D01*
X153035000Y-73406000D02*
X152781000Y-73152000D01*
X153035000Y-77978000D02*
X153035000Y-73406000D01*
X152368000Y-78645000D02*
X153035000Y-77978000D01*
X162179000Y-71755000D02*
X165100000Y-71755000D01*
X166309000Y-72964000D02*
X166309000Y-73660000D01*
X165100000Y-71755000D02*
X166309000Y-72964000D01*
X160655000Y-73279000D02*
X161671000Y-73279000D01*
X162179000Y-72771000D02*
X162179000Y-71755000D01*
X161671000Y-73279000D02*
X162179000Y-72771000D01*
X152368000Y-79538000D02*
X153126000Y-79538000D01*
X153670000Y-73279000D02*
X160655000Y-73279000D01*
X153416000Y-73533000D02*
X153670000Y-73279000D01*
X153416000Y-79248000D02*
X153416000Y-73533000D01*
X153126000Y-79538000D02*
X153416000Y-79248000D01*
X172085000Y-91440000D02*
X172085000Y-89331800D01*
X172477000Y-81291000D02*
X171556000Y-81291000D01*
X172974000Y-81788000D02*
X172477000Y-81291000D01*
X172974000Y-88442800D02*
X172974000Y-81788000D01*
X172085000Y-89331800D02*
X172974000Y-88442800D01*
D28*
X172085000Y-93980000D02*
X172085000Y-91440000D01*
D27*
X171556000Y-85841000D02*
X170800600Y-85841000D01*
X170510200Y-86131400D02*
X170510200Y-90474800D01*
X170800600Y-85841000D02*
X170510200Y-86131400D01*
X170510200Y-90474800D02*
X169545000Y-91440000D01*
X171556000Y-83891000D02*
X170261400Y-83891000D01*
X165735000Y-90170000D02*
X164465000Y-91440000D01*
X169214800Y-90170000D02*
X165735000Y-90170000D01*
X169900600Y-89484200D02*
X169214800Y-90170000D01*
X169900600Y-84251800D02*
X169900600Y-89484200D01*
X170261400Y-83891000D02*
X169900600Y-84251800D01*
X170916000Y-81941000D02*
X171556000Y-81941000D01*
X168935400Y-83921600D02*
X170916000Y-81941000D01*
X168935400Y-88163400D02*
X168935400Y-83921600D01*
X167970200Y-89128600D02*
X168935400Y-88163400D01*
X171556000Y-85191000D02*
X170663200Y-85191000D01*
X170663200Y-85191000D02*
X170535600Y-85318600D01*
X171556000Y-83241000D02*
X170479600Y-83241000D01*
X158445200Y-89839800D02*
X156845000Y-91440000D01*
X169113200Y-89839800D02*
X158445200Y-89839800D01*
X169570400Y-89382600D02*
X169113200Y-89839800D01*
X169570400Y-84150200D02*
X169570400Y-89382600D01*
X170479600Y-83241000D02*
X169570400Y-84150200D01*
X171556000Y-84541000D02*
X170545400Y-84541000D01*
X170545400Y-84541000D02*
X170484800Y-84480400D01*
X152368000Y-81538000D02*
X151507000Y-81538000D01*
X147685100Y-80375100D02*
X146850540Y-80375100D01*
X148590000Y-81280000D02*
X147685100Y-80375100D01*
X148590000Y-81280000D02*
X148590000Y-81280000D01*
X148971000Y-81661000D02*
X148590000Y-81280000D01*
X151384000Y-81661000D02*
X148971000Y-81661000D01*
X151507000Y-81538000D02*
X151384000Y-81661000D01*
X146850540Y-81025100D02*
X147827100Y-81025100D01*
X151134000Y-82038000D02*
X152368000Y-82038000D01*
X151130000Y-82042000D02*
X151134000Y-82038000D01*
X148844000Y-82042000D02*
X151130000Y-82042000D01*
X148209000Y-81407000D02*
X148844000Y-82042000D01*
X148209000Y-81407000D02*
X148209000Y-81407000D01*
X147827100Y-81025100D02*
X148209000Y-81407000D01*
X155968000Y-86138000D02*
X155968000Y-85152800D01*
X155651200Y-84836000D02*
X155651200Y-84785200D01*
X155968000Y-85152800D02*
X155651200Y-84836000D01*
X170223000Y-73660000D02*
X170223000Y-70655000D01*
X170223000Y-70655000D02*
X170180000Y-70612000D01*
X156468000Y-86138000D02*
X156468000Y-84933600D01*
X156468000Y-84933600D02*
X156489400Y-84912200D01*
X172720000Y-78232000D02*
X172720000Y-76860400D01*
X172423000Y-76563400D02*
X172423000Y-75565000D01*
X172720000Y-76860400D02*
X172423000Y-76563400D01*
X174447200Y-75674400D02*
X174447200Y-77419200D01*
X174447200Y-77419200D02*
X175260000Y-78232000D01*
X149860000Y-80729000D02*
X150579000Y-80729000D01*
X150888000Y-81038000D02*
X152368000Y-81038000D01*
X150579000Y-80729000D02*
X150888000Y-81038000D01*
X163576000Y-83904000D02*
X164041000Y-83904000D01*
X164678000Y-84541000D02*
X165756000Y-84541000D01*
X164041000Y-83904000D02*
X164678000Y-84541000D01*
X161068000Y-84538000D02*
X162096000Y-84538000D01*
X162730000Y-83904000D02*
X163576000Y-83904000D01*
X162096000Y-84538000D02*
X162730000Y-83904000D01*
X161068000Y-82038000D02*
X162556000Y-82038000D01*
X162890000Y-81704000D02*
X163576000Y-81704000D01*
X162556000Y-82038000D02*
X162890000Y-81704000D01*
X163496000Y-82038000D02*
X163576000Y-81958000D01*
X165756000Y-83891000D02*
X166441000Y-83891000D01*
X166441000Y-83891000D02*
X166776400Y-84226400D01*
X155468000Y-86138000D02*
X155468000Y-87015000D01*
X166364800Y-83891000D02*
X165756000Y-83891000D01*
X166827200Y-84353400D02*
X166364800Y-83891000D01*
X166827200Y-86995000D02*
X166827200Y-84353400D01*
X166395398Y-87426802D02*
X166827200Y-86995000D01*
X155879802Y-87426802D02*
X166395398Y-87426802D01*
X155468000Y-87015000D02*
X155879802Y-87426802D01*
X165743000Y-83904000D02*
X165756000Y-83891000D01*
X167157400Y-87096600D02*
X167360600Y-86893400D01*
X167360600Y-83845400D02*
X166852600Y-83337400D01*
X167360600Y-86893400D02*
X167360600Y-83845400D01*
X165756000Y-83241000D02*
X166756200Y-83241000D01*
X166756200Y-83241000D02*
X166852600Y-83337400D01*
X154968000Y-86138000D02*
X154968000Y-86997600D01*
X166497000Y-87757000D02*
X167157400Y-87096600D01*
X155727400Y-87757000D02*
X166497000Y-87757000D01*
X154968000Y-86997600D02*
X155727400Y-87757000D01*
X167487600Y-87198200D02*
X167690800Y-86995000D01*
X167690800Y-83083400D02*
X167157400Y-82550000D01*
X167690800Y-86995000D02*
X167690800Y-83083400D01*
X154468000Y-86138000D02*
X154468000Y-87005600D01*
X166598600Y-88087200D02*
X167487600Y-87198200D01*
X155549600Y-88087200D02*
X166598600Y-88087200D01*
X154468000Y-87005600D02*
X155549600Y-88087200D01*
X165756000Y-82591000D02*
X167116400Y-82591000D01*
X167116400Y-82591000D02*
X167157400Y-82550000D01*
X165756000Y-81941000D02*
X168021000Y-81941000D01*
X168021000Y-81941000D02*
X168021000Y-81940400D01*
X168021000Y-82448400D02*
X168021000Y-81940400D01*
X168021000Y-81940400D02*
X168021000Y-81280000D01*
X168021000Y-87096600D02*
X167817800Y-87299800D01*
X168021000Y-82448400D02*
X168021000Y-87096600D01*
X169672000Y-80137000D02*
X170180000Y-79629000D01*
X169164000Y-80137000D02*
X169672000Y-80137000D01*
X168021000Y-81280000D02*
X169164000Y-80137000D01*
X170180000Y-79629000D02*
X170180000Y-78232000D01*
X153968000Y-86988200D02*
X153968000Y-86138000D01*
X167817800Y-87299800D02*
X166700200Y-88417400D01*
X166700200Y-88417400D02*
X155397200Y-88417400D01*
X155397200Y-88417400D02*
X153968000Y-86988200D01*
X157468000Y-86138000D02*
X157468000Y-85229000D01*
X159791400Y-84505800D02*
X160197800Y-84912200D01*
X158191200Y-84505800D02*
X159791400Y-84505800D01*
X157468000Y-85229000D02*
X158191200Y-84505800D01*
X160197800Y-84912200D02*
X164795200Y-84912200D01*
X165074000Y-85191000D02*
X165756000Y-85191000D01*
X164795200Y-84912200D02*
X165074000Y-85191000D01*
X165756000Y-85841000D02*
X166359000Y-85841000D01*
X157968000Y-86848000D02*
X157968000Y-86138000D01*
X158242000Y-87122000D02*
X157968000Y-86848000D01*
X166243000Y-87122000D02*
X158242000Y-87122000D01*
X166497000Y-86868000D02*
X166243000Y-87122000D01*
X166497000Y-85979000D02*
X166497000Y-86868000D01*
X166359000Y-85841000D02*
X166497000Y-85979000D01*
X145000980Y-72898000D02*
X145000980Y-74879020D01*
X145000980Y-74879020D02*
X144950000Y-74930000D01*
X168859200Y-89103200D02*
X169265598Y-88696802D01*
X169265598Y-88696802D02*
X169265598Y-84023202D01*
X169265598Y-84023202D02*
X170697800Y-82591000D01*
X170697800Y-82591000D02*
X171556000Y-82591000D01*
G36*
X147725800Y-69358796D02*
X147725800Y-69653150D01*
X147871850Y-69799200D01*
X148859200Y-69799200D01*
X148859200Y-69779200D01*
X148960800Y-69779200D01*
X148960800Y-69799200D01*
X148980800Y-69799200D01*
X148980800Y-69900800D01*
X148960800Y-69900800D01*
X148960800Y-70663150D01*
X149106850Y-70809200D01*
X149626205Y-70809200D01*
X149802268Y-70736273D01*
X149798372Y-70755510D01*
X149798372Y-72754490D01*
X149814312Y-72839204D01*
X149864378Y-72917008D01*
X149940770Y-72969205D01*
X150031450Y-72987568D01*
X152476200Y-72987568D01*
X152476200Y-73152000D01*
X152499402Y-73268642D01*
X152565474Y-73367526D01*
X152730200Y-73532252D01*
X152730200Y-77851748D01*
X152152474Y-78429474D01*
X152086402Y-78528358D01*
X152063200Y-78645000D01*
X152063200Y-78679922D01*
X151718000Y-78679922D01*
X151633286Y-78695862D01*
X151555482Y-78745928D01*
X151503285Y-78822320D01*
X151484922Y-78913000D01*
X151484922Y-79163000D01*
X151500862Y-79247714D01*
X151526761Y-79287962D01*
X151503285Y-79322320D01*
X151484922Y-79413000D01*
X151484922Y-79663000D01*
X151500862Y-79747714D01*
X151526761Y-79787962D01*
X151503285Y-79822320D01*
X151492833Y-79873933D01*
X151387077Y-79917739D01*
X151222739Y-80082078D01*
X151133800Y-80296796D01*
X151133800Y-80341150D01*
X151279850Y-80487200D01*
X152317200Y-80487200D01*
X152317200Y-80467200D01*
X152418800Y-80467200D01*
X152418800Y-80487200D01*
X152438800Y-80487200D01*
X152438800Y-80588800D01*
X152418800Y-80588800D01*
X152418800Y-80608800D01*
X152317200Y-80608800D01*
X152317200Y-80588800D01*
X151279850Y-80588800D01*
X151135450Y-80733200D01*
X151014252Y-80733200D01*
X150794526Y-80513474D01*
X150695642Y-80447402D01*
X150579000Y-80424200D01*
X150543078Y-80424200D01*
X150543078Y-80129000D01*
X150527138Y-80044286D01*
X150477072Y-79966482D01*
X150400680Y-79914285D01*
X150310000Y-79895922D01*
X149410000Y-79895922D01*
X149325286Y-79911862D01*
X149247482Y-79961928D01*
X149195285Y-80038320D01*
X149176922Y-80129000D01*
X149176922Y-81329000D01*
X149182040Y-81356200D01*
X149097252Y-81356200D01*
X147900626Y-80159574D01*
X147801742Y-80093502D01*
X147736307Y-80080486D01*
X147716779Y-80050138D01*
X147740255Y-80015780D01*
X147758618Y-79925100D01*
X147758618Y-79525100D01*
X147742678Y-79440386D01*
X147692612Y-79362582D01*
X147616220Y-79310385D01*
X147550719Y-79297121D01*
X146850540Y-78596942D01*
X146836398Y-78611085D01*
X146764556Y-78539243D01*
X146778698Y-78525100D01*
X146922382Y-78525100D01*
X147762380Y-79365098D01*
X148000805Y-79298024D01*
X148209031Y-78799001D01*
X148209221Y-78725850D01*
X148825800Y-78725850D01*
X148825800Y-79245205D01*
X148914739Y-79459923D01*
X149079078Y-79624261D01*
X149293796Y-79713200D01*
X149663150Y-79713200D01*
X149809200Y-79567150D01*
X149809200Y-78579800D01*
X149910800Y-78579800D01*
X149910800Y-79567150D01*
X150056850Y-79713200D01*
X150426204Y-79713200D01*
X150640922Y-79624261D01*
X150805261Y-79459923D01*
X150894200Y-79245205D01*
X150894200Y-78725850D01*
X150748150Y-78579800D01*
X149910800Y-78579800D01*
X149809200Y-78579800D01*
X148971850Y-78579800D01*
X148825800Y-78725850D01*
X148209221Y-78725850D01*
X148210440Y-78258280D01*
X148004815Y-77758179D01*
X148000805Y-77752176D01*
X147762380Y-77685102D01*
X146922382Y-78525100D01*
X146778698Y-78525100D01*
X146764556Y-78510958D01*
X146836398Y-78439116D01*
X146850540Y-78453258D01*
X147690538Y-77613260D01*
X147623464Y-77374835D01*
X147124441Y-77166609D01*
X146658657Y-77165395D01*
X147365526Y-76458526D01*
X147431598Y-76359642D01*
X147454800Y-76243000D01*
X147454800Y-75613078D01*
X147750000Y-75613078D01*
X147834714Y-75597138D01*
X147912518Y-75547072D01*
X147964715Y-75470680D01*
X147983078Y-75380000D01*
X147983078Y-75262130D01*
X148120474Y-75399526D01*
X148219358Y-75465598D01*
X148336000Y-75488800D01*
X148584922Y-75488800D01*
X148584922Y-75559000D01*
X148600862Y-75643714D01*
X148650928Y-75721518D01*
X148727320Y-75773715D01*
X148818000Y-75792078D01*
X149113200Y-75792078D01*
X149113200Y-76226922D01*
X148818000Y-76226922D01*
X148733286Y-76242862D01*
X148655482Y-76292928D01*
X148603285Y-76369320D01*
X148584922Y-76460000D01*
X148584922Y-76530200D01*
X148458338Y-76530200D01*
X148329951Y-76401589D01*
X148119977Y-76314400D01*
X147892620Y-76314201D01*
X147682494Y-76401024D01*
X147521589Y-76561649D01*
X147434400Y-76771623D01*
X147434201Y-76998980D01*
X147521024Y-77209106D01*
X147681649Y-77370011D01*
X147891623Y-77457200D01*
X148118980Y-77457399D01*
X148329106Y-77370576D01*
X148490011Y-77209951D01*
X148519140Y-77139800D01*
X148584922Y-77139800D01*
X148584922Y-77210000D01*
X148600862Y-77294714D01*
X148650928Y-77372518D01*
X148727320Y-77424715D01*
X148818000Y-77443078D01*
X149069739Y-77443078D01*
X148914739Y-77598077D01*
X148825800Y-77812795D01*
X148825800Y-78332150D01*
X148971850Y-78478200D01*
X149809200Y-78478200D01*
X149809200Y-78458200D01*
X149910800Y-78458200D01*
X149910800Y-78478200D01*
X150748150Y-78478200D01*
X150894200Y-78332150D01*
X150894200Y-77812795D01*
X150886498Y-77794200D01*
X151121150Y-77794200D01*
X151267200Y-77648150D01*
X151267200Y-76885800D01*
X151368800Y-76885800D01*
X151368800Y-77648150D01*
X151514850Y-77794200D01*
X152034205Y-77794200D01*
X152248923Y-77705261D01*
X152413261Y-77540922D01*
X152502200Y-77326204D01*
X152502200Y-77031850D01*
X152356150Y-76885800D01*
X151368800Y-76885800D01*
X151267200Y-76885800D01*
X151247200Y-76885800D01*
X151247200Y-76784200D01*
X151267200Y-76784200D01*
X151267200Y-76021850D01*
X151254850Y-76009500D01*
X151267200Y-75997150D01*
X151267200Y-75234800D01*
X151368800Y-75234800D01*
X151368800Y-75997150D01*
X151381150Y-76009500D01*
X151368800Y-76021850D01*
X151368800Y-76784200D01*
X152356150Y-76784200D01*
X152502200Y-76638150D01*
X152502200Y-76343796D01*
X152413261Y-76129078D01*
X152293684Y-76009500D01*
X152413261Y-75889922D01*
X152502200Y-75675204D01*
X152502200Y-75380850D01*
X152356150Y-75234800D01*
X151368800Y-75234800D01*
X151267200Y-75234800D01*
X151247200Y-75234800D01*
X151247200Y-75133200D01*
X151267200Y-75133200D01*
X151267200Y-74370850D01*
X151368800Y-74370850D01*
X151368800Y-75133200D01*
X152356150Y-75133200D01*
X152502200Y-74987150D01*
X152502200Y-74692796D01*
X152413261Y-74478078D01*
X152248923Y-74313739D01*
X152034205Y-74224800D01*
X151514850Y-74224800D01*
X151368800Y-74370850D01*
X151267200Y-74370850D01*
X151121150Y-74224800D01*
X150601795Y-74224800D01*
X150387077Y-74313739D01*
X150222739Y-74478078D01*
X150160062Y-74629393D01*
X150108680Y-74594285D01*
X150018000Y-74575922D01*
X148818000Y-74575922D01*
X148733286Y-74591862D01*
X148655482Y-74641928D01*
X148603285Y-74718320D01*
X148584922Y-74809000D01*
X148584922Y-74879200D01*
X148462252Y-74879200D01*
X148297526Y-74714474D01*
X148198642Y-74648402D01*
X148082000Y-74625200D01*
X147983078Y-74625200D01*
X147983078Y-74480000D01*
X147967138Y-74395286D01*
X147917072Y-74317482D01*
X147840680Y-74265285D01*
X147750000Y-74246922D01*
X146550000Y-74246922D01*
X146465286Y-74262862D01*
X146387482Y-74312928D01*
X146335285Y-74389320D01*
X146316922Y-74480000D01*
X146316922Y-75380000D01*
X146332862Y-75464714D01*
X146382928Y-75542518D01*
X146459320Y-75594715D01*
X146550000Y-75613078D01*
X146845200Y-75613078D01*
X146845200Y-76116748D01*
X145580474Y-77381474D01*
X145514402Y-77480358D01*
X145509801Y-77503488D01*
X145510440Y-77258280D01*
X145304815Y-76758179D01*
X145300805Y-76752176D01*
X145062380Y-76685102D01*
X144222382Y-77525100D01*
X145062380Y-78365098D01*
X145300805Y-78298024D01*
X145491200Y-77841734D01*
X145491200Y-78577013D01*
X145490640Y-78791920D01*
X145491200Y-78793282D01*
X145491200Y-79375000D01*
X145514402Y-79491642D01*
X145580474Y-79590526D01*
X145930574Y-79940626D01*
X145947513Y-79951944D01*
X145958402Y-80009814D01*
X145984301Y-80050062D01*
X145960825Y-80084420D01*
X145942462Y-80175100D01*
X145942462Y-80575100D01*
X145958402Y-80659814D01*
X145984301Y-80700062D01*
X145960825Y-80734420D01*
X145942462Y-80825100D01*
X145942462Y-81225100D01*
X145958402Y-81309814D01*
X145984301Y-81350062D01*
X145960825Y-81384420D01*
X145942462Y-81475100D01*
X145942462Y-81589310D01*
X145844617Y-81629839D01*
X145680279Y-81794178D01*
X145591340Y-82008896D01*
X145591340Y-82128250D01*
X145737390Y-82274300D01*
X146318378Y-82274300D01*
X146083619Y-82370825D01*
X146077616Y-82374835D01*
X146077316Y-82375900D01*
X145737390Y-82375900D01*
X145591340Y-82521950D01*
X145591340Y-82641304D01*
X145668654Y-82827957D01*
X145492049Y-83251199D01*
X145490640Y-83791920D01*
X145696265Y-84292021D01*
X145700275Y-84298024D01*
X145938700Y-84365098D01*
X146778698Y-83525100D01*
X146764556Y-83510958D01*
X146836398Y-83439116D01*
X146850540Y-83453258D01*
X146864683Y-83439116D01*
X146936525Y-83510958D01*
X146922382Y-83525100D01*
X147762380Y-84365098D01*
X148000805Y-84298024D01*
X148209031Y-83799001D01*
X148210008Y-83423795D01*
X148900800Y-83423795D01*
X148900800Y-83943150D01*
X149046850Y-84089200D01*
X149809200Y-84089200D01*
X149809200Y-83101850D01*
X149910800Y-83101850D01*
X149910800Y-84089200D01*
X150673150Y-84089200D01*
X150819200Y-83943150D01*
X150819200Y-83423795D01*
X150730261Y-83209077D01*
X150565922Y-83044739D01*
X150351204Y-82955800D01*
X150056850Y-82955800D01*
X149910800Y-83101850D01*
X149809200Y-83101850D01*
X149663150Y-82955800D01*
X149368796Y-82955800D01*
X149154078Y-83044739D01*
X148989739Y-83209077D01*
X148900800Y-83423795D01*
X148210008Y-83423795D01*
X148210440Y-83258280D01*
X148032968Y-82826649D01*
X148109740Y-82641304D01*
X148109740Y-82521950D01*
X147963690Y-82375900D01*
X147623764Y-82375900D01*
X147623464Y-82374835D01*
X147382527Y-82274300D01*
X147963690Y-82274300D01*
X148109740Y-82128250D01*
X148109740Y-82008896D01*
X148020801Y-81794178D01*
X147856463Y-81629839D01*
X147758618Y-81589310D01*
X147758618Y-81475100D01*
X147742678Y-81390386D01*
X147716779Y-81350138D01*
X147718527Y-81347579D01*
X148628474Y-82257526D01*
X148727358Y-82323598D01*
X148844000Y-82346800D01*
X151130000Y-82346800D01*
X151150109Y-82342800D01*
X151499138Y-82342800D01*
X151492833Y-82373933D01*
X151387077Y-82417739D01*
X151222739Y-82582078D01*
X151133800Y-82796796D01*
X151133800Y-82841150D01*
X151279850Y-82987200D01*
X151317616Y-82987200D01*
X151222739Y-83082078D01*
X151177602Y-83191048D01*
X151133800Y-83234850D01*
X151133800Y-83279204D01*
X151137443Y-83288000D01*
X151133800Y-83296796D01*
X151133800Y-83341150D01*
X151177602Y-83384952D01*
X151222739Y-83493922D01*
X151266817Y-83538000D01*
X151222739Y-83582078D01*
X151177602Y-83691048D01*
X151133800Y-83734850D01*
X151133800Y-83779204D01*
X151137443Y-83788000D01*
X151133800Y-83796796D01*
X151133800Y-83841150D01*
X151177602Y-83884952D01*
X151222739Y-83993922D01*
X151317616Y-84088800D01*
X151279850Y-84088800D01*
X151133800Y-84234850D01*
X151133800Y-84279204D01*
X151222739Y-84493922D01*
X151387077Y-84658261D01*
X151492226Y-84701815D01*
X151500862Y-84747714D01*
X151550928Y-84825518D01*
X151627320Y-84877715D01*
X151718000Y-84896078D01*
X152063200Y-84896078D01*
X152063200Y-85641705D01*
X152051294Y-85646624D01*
X151890389Y-85807249D01*
X151882354Y-85826600D01*
X151154652Y-85826600D01*
X151152526Y-85824474D01*
X151053642Y-85758402D01*
X150937000Y-85735200D01*
X150468078Y-85735200D01*
X150468078Y-85440000D01*
X150452138Y-85355286D01*
X150415103Y-85297732D01*
X150565922Y-85235261D01*
X150730261Y-85070923D01*
X150819200Y-84856205D01*
X150819200Y-84336850D01*
X150673150Y-84190800D01*
X149910800Y-84190800D01*
X149910800Y-84210800D01*
X149809200Y-84210800D01*
X149809200Y-84190800D01*
X149046850Y-84190800D01*
X148900800Y-84336850D01*
X148900800Y-84856205D01*
X148989739Y-85070923D01*
X149154078Y-85235261D01*
X149305393Y-85297938D01*
X149270285Y-85349320D01*
X149251922Y-85440000D01*
X149251922Y-86640000D01*
X149267862Y-86724714D01*
X149317928Y-86802518D01*
X149394320Y-86854715D01*
X149485000Y-86873078D01*
X150235000Y-86873078D01*
X150319714Y-86857138D01*
X150397518Y-86807072D01*
X150449715Y-86730680D01*
X150468078Y-86640000D01*
X150468078Y-86344800D01*
X150810748Y-86344800D01*
X150812874Y-86346926D01*
X150911758Y-86412998D01*
X151028400Y-86436200D01*
X151882177Y-86436200D01*
X151889824Y-86454706D01*
X152050449Y-86615611D01*
X152260423Y-86702800D01*
X152487780Y-86702999D01*
X152697906Y-86616176D01*
X152858811Y-86455551D01*
X152946000Y-86245577D01*
X152946199Y-86018220D01*
X152859376Y-85808094D01*
X152698751Y-85647189D01*
X152672800Y-85636413D01*
X152672800Y-84896078D01*
X153018000Y-84896078D01*
X153102714Y-84880138D01*
X153160738Y-84842800D01*
X153434600Y-84842800D01*
X153551242Y-84819598D01*
X153650126Y-84753526D01*
X153910926Y-84492726D01*
X153919162Y-84480400D01*
X153976998Y-84393842D01*
X154000200Y-84277200D01*
X154000200Y-79907652D01*
X154151852Y-79756000D01*
X158064200Y-79756000D01*
X158180842Y-79732798D01*
X158279726Y-79666726D01*
X158787726Y-79158726D01*
X158853798Y-79059842D01*
X158860075Y-79028286D01*
X158877000Y-78943200D01*
X158877000Y-78790800D01*
X159836284Y-78790800D01*
X159833800Y-78796796D01*
X159833800Y-78841150D01*
X159979850Y-78987200D01*
X160017616Y-78987200D01*
X159922739Y-79082078D01*
X159877602Y-79191048D01*
X159833800Y-79234850D01*
X159833800Y-79279204D01*
X159837443Y-79288000D01*
X159833800Y-79296796D01*
X159833800Y-79341150D01*
X159877602Y-79384952D01*
X159922739Y-79493922D01*
X160017616Y-79588800D01*
X159979850Y-79588800D01*
X159833800Y-79734850D01*
X159833800Y-79779204D01*
X159922739Y-79993922D01*
X160087077Y-80158261D01*
X160192226Y-80201815D01*
X160200862Y-80247714D01*
X160226761Y-80287962D01*
X160203285Y-80322320D01*
X160184922Y-80413000D01*
X160184922Y-80663000D01*
X160200862Y-80747714D01*
X160226761Y-80787962D01*
X160203285Y-80822320D01*
X160184922Y-80913000D01*
X160184922Y-81163000D01*
X160200862Y-81247714D01*
X160226761Y-81287962D01*
X160203285Y-81322320D01*
X160184922Y-81413000D01*
X160184922Y-81663000D01*
X160200862Y-81747714D01*
X160226761Y-81787962D01*
X160203285Y-81822320D01*
X160184922Y-81913000D01*
X160184922Y-82163000D01*
X160200862Y-82247714D01*
X160226761Y-82287962D01*
X160203285Y-82322320D01*
X160184922Y-82413000D01*
X160184922Y-82663000D01*
X160200862Y-82747714D01*
X160226761Y-82787962D01*
X160203285Y-82822320D01*
X160184922Y-82913000D01*
X160184922Y-83163000D01*
X160200862Y-83247714D01*
X160226761Y-83287962D01*
X160203285Y-83322320D01*
X160184922Y-83413000D01*
X160184922Y-83663000D01*
X160200862Y-83747714D01*
X160226761Y-83787962D01*
X160203285Y-83822320D01*
X160184922Y-83913000D01*
X160184922Y-84163000D01*
X160200862Y-84247714D01*
X160226761Y-84287962D01*
X160203285Y-84322320D01*
X160184922Y-84413000D01*
X160184922Y-84468270D01*
X160006926Y-84290274D01*
X159908042Y-84224202D01*
X159791400Y-84201000D01*
X158191200Y-84201000D01*
X158074558Y-84224202D01*
X157975674Y-84290274D01*
X157252474Y-85013474D01*
X157186402Y-85112358D01*
X157163200Y-85229000D01*
X157163200Y-85269138D01*
X157093000Y-85254922D01*
X156955008Y-85254922D01*
X156973611Y-85236351D01*
X157060800Y-85026377D01*
X157060999Y-84799020D01*
X156974176Y-84588894D01*
X156813551Y-84427989D01*
X156603577Y-84340800D01*
X156376220Y-84340601D01*
X156166094Y-84427424D01*
X156133774Y-84459688D01*
X155975351Y-84300989D01*
X155765377Y-84213800D01*
X155538020Y-84213601D01*
X155327894Y-84300424D01*
X155166989Y-84461049D01*
X155079800Y-84671023D01*
X155079601Y-84898380D01*
X155166424Y-85108506D01*
X155317395Y-85259740D01*
X155258286Y-85270862D01*
X155218038Y-85296761D01*
X155183680Y-85273285D01*
X155093000Y-85254922D01*
X154843000Y-85254922D01*
X154758286Y-85270862D01*
X154718038Y-85296761D01*
X154683680Y-85273285D01*
X154593000Y-85254922D01*
X154343000Y-85254922D01*
X154258286Y-85270862D01*
X154218038Y-85296761D01*
X154183680Y-85273285D01*
X154093000Y-85254922D01*
X153843000Y-85254922D01*
X153758286Y-85270862D01*
X153680482Y-85320928D01*
X153628285Y-85397320D01*
X153609922Y-85488000D01*
X153609922Y-86788000D01*
X153625862Y-86872714D01*
X153663200Y-86930738D01*
X153663200Y-86988200D01*
X153686402Y-87104842D01*
X153752474Y-87203726D01*
X155181674Y-88632926D01*
X155280558Y-88698998D01*
X155397200Y-88722200D01*
X166700200Y-88722200D01*
X166816842Y-88698998D01*
X166915726Y-88632926D01*
X168236526Y-87312126D01*
X168302598Y-87213242D01*
X168325800Y-87096600D01*
X168325800Y-81406252D01*
X169290252Y-80441800D01*
X169672000Y-80441800D01*
X169788642Y-80418598D01*
X169887526Y-80352526D01*
X170395526Y-79844526D01*
X170461598Y-79745642D01*
X170468091Y-79713000D01*
X170484800Y-79629000D01*
X170484800Y-79576979D01*
X170573628Y-79559310D01*
X170907330Y-79336338D01*
X171130302Y-79002636D01*
X171208600Y-78609008D01*
X171208600Y-77854992D01*
X171130302Y-77461364D01*
X170907330Y-77127662D01*
X170573628Y-76904690D01*
X170180000Y-76826392D01*
X169786372Y-76904690D01*
X169452670Y-77127662D01*
X169229698Y-77461364D01*
X169151400Y-77854992D01*
X169151400Y-78609008D01*
X169229698Y-79002636D01*
X169452670Y-79336338D01*
X169786372Y-79559310D01*
X169813285Y-79564663D01*
X169545748Y-79832200D01*
X169164000Y-79832200D01*
X169047358Y-79855402D01*
X168948474Y-79921474D01*
X167805474Y-81064474D01*
X167739402Y-81163358D01*
X167716200Y-81280000D01*
X167716200Y-81636200D01*
X166460213Y-81636200D01*
X166447239Y-81616038D01*
X166470715Y-81581680D01*
X166489078Y-81491000D01*
X166489078Y-81091000D01*
X166473138Y-81006286D01*
X166447239Y-80966038D01*
X166470715Y-80931680D01*
X166489078Y-80841000D01*
X166489078Y-80441000D01*
X166473138Y-80356286D01*
X166423072Y-80278482D01*
X166346680Y-80226285D01*
X166256000Y-80207922D01*
X165303200Y-80207922D01*
X165303200Y-77854992D01*
X166611400Y-77854992D01*
X166611400Y-78609008D01*
X166689698Y-79002636D01*
X166912670Y-79336338D01*
X167246372Y-79559310D01*
X167640000Y-79637608D01*
X168033628Y-79559310D01*
X168367330Y-79336338D01*
X168590302Y-79002636D01*
X168668600Y-78609008D01*
X168668600Y-77854992D01*
X168590302Y-77461364D01*
X168367330Y-77127662D01*
X168033628Y-76904690D01*
X167640000Y-76826392D01*
X167246372Y-76904690D01*
X166912670Y-77127662D01*
X166689698Y-77461364D01*
X166611400Y-77854992D01*
X165303200Y-77854992D01*
X165303200Y-77240652D01*
X166674052Y-75869800D01*
X169389922Y-75869800D01*
X169389922Y-76015000D01*
X169405862Y-76099714D01*
X169455928Y-76177518D01*
X169532320Y-76229715D01*
X169623000Y-76248078D01*
X170823000Y-76248078D01*
X170907714Y-76232138D01*
X170985518Y-76182072D01*
X171037715Y-76105680D01*
X171056078Y-76015000D01*
X171056078Y-75862265D01*
X171134842Y-75846598D01*
X171233726Y-75780526D01*
X171538526Y-75475726D01*
X171589922Y-75398806D01*
X171589922Y-76015000D01*
X171605862Y-76099714D01*
X171655928Y-76177518D01*
X171732320Y-76229715D01*
X171823000Y-76248078D01*
X172118200Y-76248078D01*
X172118200Y-76563400D01*
X172141402Y-76680042D01*
X172207474Y-76778926D01*
X172332099Y-76903551D01*
X172326372Y-76904690D01*
X171992670Y-77127662D01*
X171769698Y-77461364D01*
X171691400Y-77854992D01*
X171691400Y-78609008D01*
X171769698Y-79002636D01*
X171992670Y-79336338D01*
X172326372Y-79559310D01*
X172720000Y-79637608D01*
X173113628Y-79559310D01*
X173447330Y-79336338D01*
X173670302Y-79002636D01*
X173748600Y-78609008D01*
X173748600Y-77854992D01*
X173670302Y-77461364D01*
X173447330Y-77127662D01*
X173113628Y-76904690D01*
X173024800Y-76887021D01*
X173024800Y-76860400D01*
X173001598Y-76743758D01*
X172935526Y-76644874D01*
X172727800Y-76437148D01*
X172727800Y-76248078D01*
X173023000Y-76248078D01*
X173107714Y-76232138D01*
X173185518Y-76182072D01*
X173237715Y-76105680D01*
X173256078Y-76015000D01*
X173256078Y-75115000D01*
X173248439Y-75074400D01*
X173764122Y-75074400D01*
X173764122Y-76274400D01*
X173780062Y-76359114D01*
X173830128Y-76436918D01*
X173906520Y-76489115D01*
X173997200Y-76507478D01*
X174142400Y-76507478D01*
X174142400Y-77419200D01*
X174165602Y-77535842D01*
X174231674Y-77634726D01*
X174267990Y-77671042D01*
X174231400Y-77854992D01*
X174231400Y-78609008D01*
X174309698Y-79002636D01*
X174532670Y-79336338D01*
X174866372Y-79559310D01*
X175260000Y-79637608D01*
X175653628Y-79559310D01*
X175987330Y-79336338D01*
X176210302Y-79002636D01*
X176288600Y-78609008D01*
X176288600Y-77854992D01*
X176210302Y-77461364D01*
X175987330Y-77127662D01*
X175653628Y-76904690D01*
X175260000Y-76826392D01*
X174866372Y-76904690D01*
X174752000Y-76981111D01*
X174752000Y-76507478D01*
X174897200Y-76507478D01*
X174981914Y-76491538D01*
X175059718Y-76441472D01*
X175111915Y-76365080D01*
X175130278Y-76274400D01*
X175130278Y-75568850D01*
X175189800Y-75568850D01*
X175189800Y-76088205D01*
X175278739Y-76302923D01*
X175443078Y-76467261D01*
X175657796Y-76556200D01*
X175952150Y-76556200D01*
X176098200Y-76410150D01*
X176098200Y-75422800D01*
X175335850Y-75422800D01*
X175189800Y-75568850D01*
X175130278Y-75568850D01*
X175130278Y-75074400D01*
X175114338Y-74989686D01*
X175064272Y-74911882D01*
X174987880Y-74859685D01*
X174897200Y-74841322D01*
X173997200Y-74841322D01*
X173912486Y-74857262D01*
X173834682Y-74907328D01*
X173782485Y-74983720D01*
X173764122Y-75074400D01*
X173248439Y-75074400D01*
X173240138Y-75030286D01*
X173190072Y-74952482D01*
X173113680Y-74900285D01*
X173023000Y-74881922D01*
X172238872Y-74881922D01*
X172300526Y-74840726D01*
X172638526Y-74502726D01*
X172704598Y-74403842D01*
X172716685Y-74343078D01*
X173023000Y-74343078D01*
X173107714Y-74327138D01*
X173185518Y-74277072D01*
X173237715Y-74200680D01*
X173256078Y-74110000D01*
X173256078Y-73964800D01*
X173355000Y-73964800D01*
X173471642Y-73941598D01*
X173570526Y-73875526D01*
X173666852Y-73779200D01*
X173764122Y-73779200D01*
X173764122Y-74074400D01*
X173780062Y-74159114D01*
X173830128Y-74236918D01*
X173906520Y-74289115D01*
X173997200Y-74307478D01*
X174897200Y-74307478D01*
X174981914Y-74291538D01*
X175059718Y-74241472D01*
X175111915Y-74165080D01*
X175130278Y-74074400D01*
X175130278Y-73779200D01*
X175540922Y-73779200D01*
X175540922Y-74072000D01*
X175556862Y-74156714D01*
X175593897Y-74214268D01*
X175443078Y-74276739D01*
X175278739Y-74441077D01*
X175189800Y-74655795D01*
X175189800Y-75175150D01*
X175335850Y-75321200D01*
X176098200Y-75321200D01*
X176098200Y-75301200D01*
X176199800Y-75301200D01*
X176199800Y-75321200D01*
X176219800Y-75321200D01*
X176219800Y-75422800D01*
X176199800Y-75422800D01*
X176199800Y-76410150D01*
X176345850Y-76556200D01*
X176640204Y-76556200D01*
X176854922Y-76467261D01*
X177019261Y-76302923D01*
X177088800Y-76135041D01*
X177088800Y-97078800D01*
X143586200Y-97078800D01*
X143586200Y-94256521D01*
X147803853Y-94256521D01*
X147806208Y-94268378D01*
X148024565Y-94789375D01*
X148425677Y-95187152D01*
X148948479Y-95401151D01*
X149174200Y-95280862D01*
X149174200Y-94030800D01*
X149275800Y-94030800D01*
X149275800Y-95280862D01*
X149501521Y-95401151D01*
X150024323Y-95187152D01*
X150425435Y-94789375D01*
X150495000Y-94623394D01*
X150564565Y-94789375D01*
X150965677Y-95187152D01*
X151488479Y-95401151D01*
X151714200Y-95280862D01*
X151714200Y-94030800D01*
X151815800Y-94030800D01*
X151815800Y-95280862D01*
X152041521Y-95401151D01*
X152564323Y-95187152D01*
X152965435Y-94789375D01*
X153035000Y-94623394D01*
X153104565Y-94789375D01*
X153505677Y-95187152D01*
X154028479Y-95401151D01*
X154254200Y-95280862D01*
X154254200Y-94030800D01*
X154355800Y-94030800D01*
X154355800Y-95280862D01*
X154581521Y-95401151D01*
X155104323Y-95187152D01*
X155505435Y-94789375D01*
X155575000Y-94623394D01*
X155644565Y-94789375D01*
X156045677Y-95187152D01*
X156568479Y-95401151D01*
X156794200Y-95280862D01*
X156794200Y-94030800D01*
X156895800Y-94030800D01*
X156895800Y-95280862D01*
X157121521Y-95401151D01*
X157644323Y-95187152D01*
X158045435Y-94789375D01*
X158115000Y-94623394D01*
X158184565Y-94789375D01*
X158585677Y-95187152D01*
X159108479Y-95401151D01*
X159334200Y-95280862D01*
X159334200Y-94030800D01*
X159435800Y-94030800D01*
X159435800Y-95280862D01*
X159661521Y-95401151D01*
X160184323Y-95187152D01*
X160585435Y-94789375D01*
X160655000Y-94623394D01*
X160724565Y-94789375D01*
X161125677Y-95187152D01*
X161648479Y-95401151D01*
X161874200Y-95280862D01*
X161874200Y-94030800D01*
X161975800Y-94030800D01*
X161975800Y-95280862D01*
X162201521Y-95401151D01*
X162724323Y-95187152D01*
X163125435Y-94789375D01*
X163195000Y-94623394D01*
X163264565Y-94789375D01*
X163665677Y-95187152D01*
X164188479Y-95401151D01*
X164414200Y-95280862D01*
X164414200Y-94030800D01*
X164515800Y-94030800D01*
X164515800Y-95280862D01*
X164741521Y-95401151D01*
X165264323Y-95187152D01*
X165665435Y-94789375D01*
X165735000Y-94623394D01*
X165804565Y-94789375D01*
X166205677Y-95187152D01*
X166728479Y-95401151D01*
X166954200Y-95280862D01*
X166954200Y-94030800D01*
X167055800Y-94030800D01*
X167055800Y-95280862D01*
X167281521Y-95401151D01*
X167804323Y-95187152D01*
X168205435Y-94789375D01*
X168275000Y-94623394D01*
X168344565Y-94789375D01*
X168745677Y-95187152D01*
X169268479Y-95401151D01*
X169494200Y-95280862D01*
X169494200Y-94030800D01*
X167055800Y-94030800D01*
X166954200Y-94030800D01*
X164515800Y-94030800D01*
X164414200Y-94030800D01*
X161975800Y-94030800D01*
X161874200Y-94030800D01*
X159435800Y-94030800D01*
X159334200Y-94030800D01*
X156895800Y-94030800D01*
X156794200Y-94030800D01*
X154355800Y-94030800D01*
X154254200Y-94030800D01*
X151815800Y-94030800D01*
X151714200Y-94030800D01*
X149275800Y-94030800D01*
X149174200Y-94030800D01*
X147924242Y-94030800D01*
X147803853Y-94256521D01*
X143586200Y-94256521D01*
X143586200Y-93703479D01*
X147803853Y-93703479D01*
X147924242Y-93929200D01*
X149174200Y-93929200D01*
X149174200Y-92679138D01*
X149275800Y-92679138D01*
X149275800Y-93929200D01*
X151714200Y-93929200D01*
X151714200Y-92679138D01*
X151815800Y-92679138D01*
X151815800Y-93929200D01*
X154254200Y-93929200D01*
X154254200Y-92679138D01*
X154355800Y-92679138D01*
X154355800Y-93929200D01*
X156794200Y-93929200D01*
X156794200Y-92679138D01*
X156895800Y-92679138D01*
X156895800Y-93929200D01*
X159334200Y-93929200D01*
X159334200Y-92679138D01*
X159435800Y-92679138D01*
X159435800Y-93929200D01*
X161874200Y-93929200D01*
X161874200Y-92679138D01*
X161975800Y-92679138D01*
X161975800Y-93929200D01*
X164414200Y-93929200D01*
X164414200Y-92679138D01*
X164515800Y-92679138D01*
X164515800Y-93929200D01*
X166954200Y-93929200D01*
X166954200Y-92679138D01*
X167055800Y-92679138D01*
X167055800Y-93929200D01*
X169494200Y-93929200D01*
X169494200Y-92679138D01*
X169268479Y-92558849D01*
X168745677Y-92772848D01*
X168344565Y-93170625D01*
X168275000Y-93336606D01*
X168205435Y-93170625D01*
X167804323Y-92772848D01*
X167281521Y-92558849D01*
X167055800Y-92679138D01*
X166954200Y-92679138D01*
X166728479Y-92558849D01*
X166205677Y-92772848D01*
X165804565Y-93170625D01*
X165735000Y-93336606D01*
X165665435Y-93170625D01*
X165264323Y-92772848D01*
X164741521Y-92558849D01*
X164515800Y-92679138D01*
X164414200Y-92679138D01*
X164188479Y-92558849D01*
X163665677Y-92772848D01*
X163264565Y-93170625D01*
X163195000Y-93336606D01*
X163125435Y-93170625D01*
X162724323Y-92772848D01*
X162201521Y-92558849D01*
X161975800Y-92679138D01*
X161874200Y-92679138D01*
X161648479Y-92558849D01*
X161125677Y-92772848D01*
X160724565Y-93170625D01*
X160655000Y-93336606D01*
X160585435Y-93170625D01*
X160184323Y-92772848D01*
X159661521Y-92558849D01*
X159435800Y-92679138D01*
X159334200Y-92679138D01*
X159108479Y-92558849D01*
X158585677Y-92772848D01*
X158184565Y-93170625D01*
X158115000Y-93336606D01*
X158045435Y-93170625D01*
X157644323Y-92772848D01*
X157121521Y-92558849D01*
X156895800Y-92679138D01*
X156794200Y-92679138D01*
X156568479Y-92558849D01*
X156045677Y-92772848D01*
X155644565Y-93170625D01*
X155575000Y-93336606D01*
X155505435Y-93170625D01*
X155104323Y-92772848D01*
X154581521Y-92558849D01*
X154355800Y-92679138D01*
X154254200Y-92679138D01*
X154028479Y-92558849D01*
X153505677Y-92772848D01*
X153104565Y-93170625D01*
X153035000Y-93336606D01*
X152965435Y-93170625D01*
X152564323Y-92772848D01*
X152041521Y-92558849D01*
X151815800Y-92679138D01*
X151714200Y-92679138D01*
X151488479Y-92558849D01*
X150965677Y-92772848D01*
X150564565Y-93170625D01*
X150495000Y-93336606D01*
X150425435Y-93170625D01*
X150024323Y-92772848D01*
X149501521Y-92558849D01*
X149275800Y-92679138D01*
X149174200Y-92679138D01*
X148948479Y-92558849D01*
X148425677Y-92772848D01*
X148024565Y-93170625D01*
X147806208Y-93691622D01*
X147803853Y-93703479D01*
X143586200Y-93703479D01*
X143586200Y-91440000D01*
X148111403Y-91440000D01*
X148194542Y-91857967D01*
X148431301Y-92212302D01*
X148785636Y-92449061D01*
X149203603Y-92532200D01*
X149246397Y-92532200D01*
X149664364Y-92449061D01*
X150018699Y-92212302D01*
X150255458Y-91857967D01*
X150338597Y-91440000D01*
X150651403Y-91440000D01*
X150734542Y-91857967D01*
X150971301Y-92212302D01*
X151325636Y-92449061D01*
X151743603Y-92532200D01*
X151786397Y-92532200D01*
X152204364Y-92449061D01*
X152558699Y-92212302D01*
X152795458Y-91857967D01*
X152878597Y-91440000D01*
X153191403Y-91440000D01*
X153274542Y-91857967D01*
X153511301Y-92212302D01*
X153865636Y-92449061D01*
X154283603Y-92532200D01*
X154326397Y-92532200D01*
X154744364Y-92449061D01*
X155098699Y-92212302D01*
X155335458Y-91857967D01*
X155418597Y-91440000D01*
X155731403Y-91440000D01*
X155814542Y-91857967D01*
X156051301Y-92212302D01*
X156405636Y-92449061D01*
X156823603Y-92532200D01*
X156866397Y-92532200D01*
X157284364Y-92449061D01*
X157638699Y-92212302D01*
X157875458Y-91857967D01*
X157958597Y-91440000D01*
X158271403Y-91440000D01*
X158354542Y-91857967D01*
X158591301Y-92212302D01*
X158945636Y-92449061D01*
X159363603Y-92532200D01*
X159406397Y-92532200D01*
X159824364Y-92449061D01*
X160178699Y-92212302D01*
X160415458Y-91857967D01*
X160498597Y-91440000D01*
X160811403Y-91440000D01*
X160894542Y-91857967D01*
X161131301Y-92212302D01*
X161485636Y-92449061D01*
X161903603Y-92532200D01*
X161946397Y-92532200D01*
X162364364Y-92449061D01*
X162718699Y-92212302D01*
X162955458Y-91857967D01*
X163038597Y-91440000D01*
X162955458Y-91022033D01*
X162718699Y-90667698D01*
X162364364Y-90430939D01*
X161946397Y-90347800D01*
X161903603Y-90347800D01*
X161485636Y-90430939D01*
X161131301Y-90667698D01*
X160894542Y-91022033D01*
X160811403Y-91440000D01*
X160498597Y-91440000D01*
X160415458Y-91022033D01*
X160178699Y-90667698D01*
X159824364Y-90430939D01*
X159406397Y-90347800D01*
X159363603Y-90347800D01*
X158945636Y-90430939D01*
X158591301Y-90667698D01*
X158354542Y-91022033D01*
X158271403Y-91440000D01*
X157958597Y-91440000D01*
X157875458Y-91022033D01*
X157802784Y-90913268D01*
X158571452Y-90144600D01*
X165329348Y-90144600D01*
X164987476Y-90486472D01*
X164904364Y-90430939D01*
X164486397Y-90347800D01*
X164443603Y-90347800D01*
X164025636Y-90430939D01*
X163671301Y-90667698D01*
X163434542Y-91022033D01*
X163351403Y-91440000D01*
X163434542Y-91857967D01*
X163671301Y-92212302D01*
X164025636Y-92449061D01*
X164443603Y-92532200D01*
X164486397Y-92532200D01*
X164904364Y-92449061D01*
X165258699Y-92212302D01*
X165495458Y-91857967D01*
X165578597Y-91440000D01*
X165495458Y-91022033D01*
X165422784Y-90913268D01*
X165861252Y-90474800D01*
X166499993Y-90474800D01*
X166211301Y-90667698D01*
X165974542Y-91022033D01*
X165891403Y-91440000D01*
X165974542Y-91857967D01*
X166211301Y-92212302D01*
X166565636Y-92449061D01*
X166983603Y-92532200D01*
X167026397Y-92532200D01*
X167444364Y-92449061D01*
X167798699Y-92212302D01*
X168035458Y-91857967D01*
X168118597Y-91440000D01*
X168035458Y-91022033D01*
X167798699Y-90667698D01*
X167510007Y-90474800D01*
X169039993Y-90474800D01*
X168751301Y-90667698D01*
X168514542Y-91022033D01*
X168431403Y-91440000D01*
X168514542Y-91857967D01*
X168751301Y-92212302D01*
X169105636Y-92449061D01*
X169523603Y-92532200D01*
X169566397Y-92532200D01*
X169984364Y-92449061D01*
X170338699Y-92212302D01*
X170575458Y-91857967D01*
X170658597Y-91440000D01*
X170575458Y-91022033D01*
X170502784Y-90913268D01*
X170725726Y-90690326D01*
X170791798Y-90591442D01*
X170815000Y-90474800D01*
X170815000Y-87223508D01*
X170939795Y-87275200D01*
X171359150Y-87275200D01*
X171505200Y-87129150D01*
X171505200Y-86541800D01*
X171606800Y-86541800D01*
X171606800Y-87129150D01*
X171752850Y-87275200D01*
X172172205Y-87275200D01*
X172386923Y-87186261D01*
X172551261Y-87021922D01*
X172640200Y-86807204D01*
X172640200Y-86687850D01*
X172494150Y-86541800D01*
X171606800Y-86541800D01*
X171505200Y-86541800D01*
X171485200Y-86541800D01*
X171485200Y-86440200D01*
X171505200Y-86440200D01*
X171505200Y-86420200D01*
X171606800Y-86420200D01*
X171606800Y-86440200D01*
X172494150Y-86440200D01*
X172640200Y-86294150D01*
X172640200Y-86174796D01*
X172551261Y-85960078D01*
X172386923Y-85795739D01*
X172289078Y-85755210D01*
X172289078Y-85641000D01*
X172273138Y-85556286D01*
X172247239Y-85516038D01*
X172270715Y-85481680D01*
X172289078Y-85391000D01*
X172289078Y-84991000D01*
X172273138Y-84906286D01*
X172247239Y-84866038D01*
X172270715Y-84831680D01*
X172289078Y-84741000D01*
X172289078Y-84341000D01*
X172273138Y-84256286D01*
X172247239Y-84216038D01*
X172270715Y-84181680D01*
X172289078Y-84091000D01*
X172289078Y-83691000D01*
X172273138Y-83606286D01*
X172247239Y-83566038D01*
X172270715Y-83531680D01*
X172289078Y-83441000D01*
X172289078Y-83041000D01*
X172273138Y-82956286D01*
X172247239Y-82916038D01*
X172270715Y-82881680D01*
X172289078Y-82791000D01*
X172289078Y-82391000D01*
X172273138Y-82306286D01*
X172247239Y-82266038D01*
X172270715Y-82231680D01*
X172289078Y-82141000D01*
X172289078Y-81741000D01*
X172273138Y-81656286D01*
X172247239Y-81616038D01*
X172261067Y-81595800D01*
X172350748Y-81595800D01*
X172669200Y-81914252D01*
X172669200Y-88316548D01*
X171869474Y-89116274D01*
X171803402Y-89215158D01*
X171780200Y-89331800D01*
X171780200Y-90343322D01*
X171221400Y-90343322D01*
X171136686Y-90359262D01*
X171058882Y-90409328D01*
X171006685Y-90485720D01*
X170988322Y-90576400D01*
X170988322Y-92303600D01*
X171004262Y-92388314D01*
X171054328Y-92466118D01*
X171130720Y-92518315D01*
X171221400Y-92536678D01*
X171729400Y-92536678D01*
X171729400Y-92954277D01*
X171645636Y-92970939D01*
X171291301Y-93207698D01*
X171054542Y-93562033D01*
X170981508Y-93929198D01*
X170845759Y-93929198D01*
X170966147Y-93703479D01*
X170963792Y-93691622D01*
X170745435Y-93170625D01*
X170344323Y-92772848D01*
X169821521Y-92558849D01*
X169595800Y-92679138D01*
X169595800Y-93929200D01*
X169615800Y-93929200D01*
X169615800Y-94030800D01*
X169595800Y-94030800D01*
X169595800Y-95280862D01*
X169821521Y-95401151D01*
X170344323Y-95187152D01*
X170745435Y-94789375D01*
X170963792Y-94268378D01*
X170966147Y-94256521D01*
X170845759Y-94030802D01*
X170981508Y-94030802D01*
X171054542Y-94397967D01*
X171291301Y-94752302D01*
X171645636Y-94989061D01*
X172063603Y-95072200D01*
X172106397Y-95072200D01*
X172524364Y-94989061D01*
X172878699Y-94752302D01*
X173115458Y-94397967D01*
X173198597Y-93980000D01*
X173115458Y-93562033D01*
X172878699Y-93207698D01*
X172524364Y-92970939D01*
X172440600Y-92954277D01*
X172440600Y-92536678D01*
X172948600Y-92536678D01*
X173033314Y-92520738D01*
X173111118Y-92470672D01*
X173163315Y-92394280D01*
X173181678Y-92303600D01*
X173181678Y-90576400D01*
X173165738Y-90491686D01*
X173115672Y-90413882D01*
X173039280Y-90361685D01*
X172948600Y-90343322D01*
X172389800Y-90343322D01*
X172389800Y-89458052D01*
X173189526Y-88658326D01*
X173215810Y-88618989D01*
X173255598Y-88559442D01*
X173278800Y-88442800D01*
X173278800Y-81788000D01*
X173255598Y-81671358D01*
X173189526Y-81572474D01*
X172692526Y-81075474D01*
X172593642Y-81009402D01*
X172477000Y-80986200D01*
X172260213Y-80986200D01*
X172247239Y-80966038D01*
X172270715Y-80931680D01*
X172289078Y-80841000D01*
X172289078Y-80441000D01*
X172273138Y-80356286D01*
X172223072Y-80278482D01*
X172146680Y-80226285D01*
X172056000Y-80207922D01*
X171056000Y-80207922D01*
X170971286Y-80223862D01*
X170893482Y-80273928D01*
X170841285Y-80350320D01*
X170822922Y-80441000D01*
X170822922Y-80841000D01*
X170838862Y-80925714D01*
X170864761Y-80965962D01*
X170841285Y-81000320D01*
X170822922Y-81091000D01*
X170822922Y-81491000D01*
X170838862Y-81575714D01*
X170864761Y-81615962D01*
X170841285Y-81650320D01*
X170841128Y-81651093D01*
X170799358Y-81659402D01*
X170700474Y-81725474D01*
X168719874Y-83706074D01*
X168653802Y-83804958D01*
X168630600Y-83921600D01*
X168630600Y-88037148D01*
X168102869Y-88564879D01*
X168084377Y-88557200D01*
X167857020Y-88557001D01*
X167646894Y-88643824D01*
X167485989Y-88804449D01*
X167398800Y-89014423D01*
X167398601Y-89241780D01*
X167485424Y-89451906D01*
X167568373Y-89535000D01*
X158445200Y-89535000D01*
X158328559Y-89558201D01*
X158229674Y-89624274D01*
X157367476Y-90486472D01*
X157284364Y-90430939D01*
X156866397Y-90347800D01*
X156823603Y-90347800D01*
X156405636Y-90430939D01*
X156051301Y-90667698D01*
X155814542Y-91022033D01*
X155731403Y-91440000D01*
X155418597Y-91440000D01*
X155335458Y-91022033D01*
X155098699Y-90667698D01*
X154744364Y-90430939D01*
X154326397Y-90347800D01*
X154283603Y-90347800D01*
X153865636Y-90430939D01*
X153511301Y-90667698D01*
X153274542Y-91022033D01*
X153191403Y-91440000D01*
X152878597Y-91440000D01*
X152795458Y-91022033D01*
X152558699Y-90667698D01*
X152204364Y-90430939D01*
X151786397Y-90347800D01*
X151743603Y-90347800D01*
X151325636Y-90430939D01*
X150971301Y-90667698D01*
X150734542Y-91022033D01*
X150651403Y-91440000D01*
X150338597Y-91440000D01*
X150255458Y-91022033D01*
X150018699Y-90667698D01*
X149664364Y-90430939D01*
X149246397Y-90347800D01*
X149203603Y-90347800D01*
X148785636Y-90430939D01*
X148431301Y-90667698D01*
X148194542Y-91022033D01*
X148111403Y-91440000D01*
X143586200Y-91440000D01*
X143586200Y-85762400D01*
X143876639Y-85883591D01*
X144417360Y-85885000D01*
X144917461Y-85679375D01*
X144923464Y-85675365D01*
X144990538Y-85436940D01*
X144150540Y-84596942D01*
X144136398Y-84611085D01*
X144064556Y-84539243D01*
X144078698Y-84525100D01*
X144222382Y-84525100D01*
X145062380Y-85365098D01*
X145300805Y-85298024D01*
X145509031Y-84799001D01*
X145509974Y-84436940D01*
X146010542Y-84436940D01*
X146077616Y-84675365D01*
X146576639Y-84883591D01*
X147117360Y-84885000D01*
X147617461Y-84679375D01*
X147623464Y-84675365D01*
X147690538Y-84436940D01*
X146850540Y-83596942D01*
X146010542Y-84436940D01*
X145509974Y-84436940D01*
X145510440Y-84258280D01*
X145304815Y-83758179D01*
X145300805Y-83752176D01*
X145062380Y-83685102D01*
X144222382Y-84525100D01*
X144078698Y-84525100D01*
X144064556Y-84510958D01*
X144136398Y-84439116D01*
X144150540Y-84453258D01*
X144990538Y-83613260D01*
X144923464Y-83374835D01*
X144424441Y-83166609D01*
X143883720Y-83165200D01*
X143586200Y-83287530D01*
X143586200Y-78762400D01*
X143876639Y-78883591D01*
X144417360Y-78885000D01*
X144917461Y-78679375D01*
X144923464Y-78675365D01*
X144990538Y-78436940D01*
X144150540Y-77596942D01*
X144136398Y-77611085D01*
X144064556Y-77539243D01*
X144078698Y-77525100D01*
X144064556Y-77510958D01*
X144136398Y-77439116D01*
X144150540Y-77453258D01*
X144990538Y-76613260D01*
X144923464Y-76374835D01*
X144424441Y-76166609D01*
X143883720Y-76165200D01*
X143586200Y-76287530D01*
X143586200Y-74480000D01*
X144116922Y-74480000D01*
X144116922Y-75380000D01*
X144132862Y-75464714D01*
X144182928Y-75542518D01*
X144259320Y-75594715D01*
X144350000Y-75613078D01*
X145550000Y-75613078D01*
X145634714Y-75597138D01*
X145712518Y-75547072D01*
X145764715Y-75470680D01*
X145783078Y-75380000D01*
X145783078Y-74480000D01*
X145767138Y-74395286D01*
X145717072Y-74317482D01*
X145640680Y-74265285D01*
X145550000Y-74246922D01*
X145305780Y-74246922D01*
X145305780Y-73730518D01*
X145600420Y-73730518D01*
X145685134Y-73714578D01*
X145762938Y-73664512D01*
X145815135Y-73588120D01*
X145833498Y-73497440D01*
X145833498Y-73094850D01*
X145915380Y-73094850D01*
X145915380Y-73613644D01*
X146004319Y-73828362D01*
X146168657Y-73992701D01*
X146383375Y-74081640D01*
X146902170Y-74081640D01*
X147048220Y-73935590D01*
X147048220Y-72948800D01*
X147149820Y-72948800D01*
X147149820Y-73935590D01*
X147295870Y-74081640D01*
X147814665Y-74081640D01*
X148029383Y-73992701D01*
X148193721Y-73828362D01*
X148282660Y-73613644D01*
X148282660Y-73094850D01*
X148136610Y-72948800D01*
X147149820Y-72948800D01*
X147048220Y-72948800D01*
X146061430Y-72948800D01*
X145915380Y-73094850D01*
X145833498Y-73094850D01*
X145833498Y-72298560D01*
X145817558Y-72213846D01*
X145797295Y-72182356D01*
X145915380Y-72182356D01*
X145915380Y-72701150D01*
X146061430Y-72847200D01*
X147048220Y-72847200D01*
X147048220Y-71860410D01*
X147149820Y-71860410D01*
X147149820Y-72847200D01*
X148136610Y-72847200D01*
X148282660Y-72701150D01*
X148282660Y-72182356D01*
X148193721Y-71967638D01*
X148029383Y-71803299D01*
X147814665Y-71714360D01*
X147295870Y-71714360D01*
X147149820Y-71860410D01*
X147048220Y-71860410D01*
X146902170Y-71714360D01*
X146383375Y-71714360D01*
X146168657Y-71803299D01*
X146004319Y-71967638D01*
X145915380Y-72182356D01*
X145797295Y-72182356D01*
X145767492Y-72136042D01*
X145691100Y-72083845D01*
X145600420Y-72065482D01*
X144401540Y-72065482D01*
X144316826Y-72081422D01*
X144239022Y-72131488D01*
X144186825Y-72207880D01*
X144168462Y-72298560D01*
X144168462Y-73497440D01*
X144184402Y-73582154D01*
X144234468Y-73659958D01*
X144310860Y-73712155D01*
X144401540Y-73730518D01*
X144696180Y-73730518D01*
X144696180Y-74246922D01*
X144350000Y-74246922D01*
X144265286Y-74262862D01*
X144187482Y-74312928D01*
X144135285Y-74389320D01*
X144116922Y-74480000D01*
X143586200Y-74480000D01*
X143586200Y-70046850D01*
X147725800Y-70046850D01*
X147725800Y-70341204D01*
X147814739Y-70555922D01*
X147979077Y-70720261D01*
X148193795Y-70809200D01*
X148713150Y-70809200D01*
X148859200Y-70663150D01*
X148859200Y-69900800D01*
X147871850Y-69900800D01*
X147725800Y-70046850D01*
X143586200Y-70046850D01*
X143586200Y-69291200D01*
X147753799Y-69291200D01*
X147725800Y-69358796D01*
X147725800Y-69358796D01*
G37*
X147725800Y-69358796D02*
X147725800Y-69653150D01*
X147871850Y-69799200D01*
X148859200Y-69799200D01*
X148859200Y-69779200D01*
X148960800Y-69779200D01*
X148960800Y-69799200D01*
X148980800Y-69799200D01*
X148980800Y-69900800D01*
X148960800Y-69900800D01*
X148960800Y-70663150D01*
X149106850Y-70809200D01*
X149626205Y-70809200D01*
X149802268Y-70736273D01*
X149798372Y-70755510D01*
X149798372Y-72754490D01*
X149814312Y-72839204D01*
X149864378Y-72917008D01*
X149940770Y-72969205D01*
X150031450Y-72987568D01*
X152476200Y-72987568D01*
X152476200Y-73152000D01*
X152499402Y-73268642D01*
X152565474Y-73367526D01*
X152730200Y-73532252D01*
X152730200Y-77851748D01*
X152152474Y-78429474D01*
X152086402Y-78528358D01*
X152063200Y-78645000D01*
X152063200Y-78679922D01*
X151718000Y-78679922D01*
X151633286Y-78695862D01*
X151555482Y-78745928D01*
X151503285Y-78822320D01*
X151484922Y-78913000D01*
X151484922Y-79163000D01*
X151500862Y-79247714D01*
X151526761Y-79287962D01*
X151503285Y-79322320D01*
X151484922Y-79413000D01*
X151484922Y-79663000D01*
X151500862Y-79747714D01*
X151526761Y-79787962D01*
X151503285Y-79822320D01*
X151492833Y-79873933D01*
X151387077Y-79917739D01*
X151222739Y-80082078D01*
X151133800Y-80296796D01*
X151133800Y-80341150D01*
X151279850Y-80487200D01*
X152317200Y-80487200D01*
X152317200Y-80467200D01*
X152418800Y-80467200D01*
X152418800Y-80487200D01*
X152438800Y-80487200D01*
X152438800Y-80588800D01*
X152418800Y-80588800D01*
X152418800Y-80608800D01*
X152317200Y-80608800D01*
X152317200Y-80588800D01*
X151279850Y-80588800D01*
X151135450Y-80733200D01*
X151014252Y-80733200D01*
X150794526Y-80513474D01*
X150695642Y-80447402D01*
X150579000Y-80424200D01*
X150543078Y-80424200D01*
X150543078Y-80129000D01*
X150527138Y-80044286D01*
X150477072Y-79966482D01*
X150400680Y-79914285D01*
X150310000Y-79895922D01*
X149410000Y-79895922D01*
X149325286Y-79911862D01*
X149247482Y-79961928D01*
X149195285Y-80038320D01*
X149176922Y-80129000D01*
X149176922Y-81329000D01*
X149182040Y-81356200D01*
X149097252Y-81356200D01*
X147900626Y-80159574D01*
X147801742Y-80093502D01*
X147736307Y-80080486D01*
X147716779Y-80050138D01*
X147740255Y-80015780D01*
X147758618Y-79925100D01*
X147758618Y-79525100D01*
X147742678Y-79440386D01*
X147692612Y-79362582D01*
X147616220Y-79310385D01*
X147550719Y-79297121D01*
X146850540Y-78596942D01*
X146836398Y-78611085D01*
X146764556Y-78539243D01*
X146778698Y-78525100D01*
X146922382Y-78525100D01*
X147762380Y-79365098D01*
X148000805Y-79298024D01*
X148209031Y-78799001D01*
X148209221Y-78725850D01*
X148825800Y-78725850D01*
X148825800Y-79245205D01*
X148914739Y-79459923D01*
X149079078Y-79624261D01*
X149293796Y-79713200D01*
X149663150Y-79713200D01*
X149809200Y-79567150D01*
X149809200Y-78579800D01*
X149910800Y-78579800D01*
X149910800Y-79567150D01*
X150056850Y-79713200D01*
X150426204Y-79713200D01*
X150640922Y-79624261D01*
X150805261Y-79459923D01*
X150894200Y-79245205D01*
X150894200Y-78725850D01*
X150748150Y-78579800D01*
X149910800Y-78579800D01*
X149809200Y-78579800D01*
X148971850Y-78579800D01*
X148825800Y-78725850D01*
X148209221Y-78725850D01*
X148210440Y-78258280D01*
X148004815Y-77758179D01*
X148000805Y-77752176D01*
X147762380Y-77685102D01*
X146922382Y-78525100D01*
X146778698Y-78525100D01*
X146764556Y-78510958D01*
X146836398Y-78439116D01*
X146850540Y-78453258D01*
X147690538Y-77613260D01*
X147623464Y-77374835D01*
X147124441Y-77166609D01*
X146658657Y-77165395D01*
X147365526Y-76458526D01*
X147431598Y-76359642D01*
X147454800Y-76243000D01*
X147454800Y-75613078D01*
X147750000Y-75613078D01*
X147834714Y-75597138D01*
X147912518Y-75547072D01*
X147964715Y-75470680D01*
X147983078Y-75380000D01*
X147983078Y-75262130D01*
X148120474Y-75399526D01*
X148219358Y-75465598D01*
X148336000Y-75488800D01*
X148584922Y-75488800D01*
X148584922Y-75559000D01*
X148600862Y-75643714D01*
X148650928Y-75721518D01*
X148727320Y-75773715D01*
X148818000Y-75792078D01*
X149113200Y-75792078D01*
X149113200Y-76226922D01*
X148818000Y-76226922D01*
X148733286Y-76242862D01*
X148655482Y-76292928D01*
X148603285Y-76369320D01*
X148584922Y-76460000D01*
X148584922Y-76530200D01*
X148458338Y-76530200D01*
X148329951Y-76401589D01*
X148119977Y-76314400D01*
X147892620Y-76314201D01*
X147682494Y-76401024D01*
X147521589Y-76561649D01*
X147434400Y-76771623D01*
X147434201Y-76998980D01*
X147521024Y-77209106D01*
X147681649Y-77370011D01*
X147891623Y-77457200D01*
X148118980Y-77457399D01*
X148329106Y-77370576D01*
X148490011Y-77209951D01*
X148519140Y-77139800D01*
X148584922Y-77139800D01*
X148584922Y-77210000D01*
X148600862Y-77294714D01*
X148650928Y-77372518D01*
X148727320Y-77424715D01*
X148818000Y-77443078D01*
X149069739Y-77443078D01*
X148914739Y-77598077D01*
X148825800Y-77812795D01*
X148825800Y-78332150D01*
X148971850Y-78478200D01*
X149809200Y-78478200D01*
X149809200Y-78458200D01*
X149910800Y-78458200D01*
X149910800Y-78478200D01*
X150748150Y-78478200D01*
X150894200Y-78332150D01*
X150894200Y-77812795D01*
X150886498Y-77794200D01*
X151121150Y-77794200D01*
X151267200Y-77648150D01*
X151267200Y-76885800D01*
X151368800Y-76885800D01*
X151368800Y-77648150D01*
X151514850Y-77794200D01*
X152034205Y-77794200D01*
X152248923Y-77705261D01*
X152413261Y-77540922D01*
X152502200Y-77326204D01*
X152502200Y-77031850D01*
X152356150Y-76885800D01*
X151368800Y-76885800D01*
X151267200Y-76885800D01*
X151247200Y-76885800D01*
X151247200Y-76784200D01*
X151267200Y-76784200D01*
X151267200Y-76021850D01*
X151254850Y-76009500D01*
X151267200Y-75997150D01*
X151267200Y-75234800D01*
X151368800Y-75234800D01*
X151368800Y-75997150D01*
X151381150Y-76009500D01*
X151368800Y-76021850D01*
X151368800Y-76784200D01*
X152356150Y-76784200D01*
X152502200Y-76638150D01*
X152502200Y-76343796D01*
X152413261Y-76129078D01*
X152293684Y-76009500D01*
X152413261Y-75889922D01*
X152502200Y-75675204D01*
X152502200Y-75380850D01*
X152356150Y-75234800D01*
X151368800Y-75234800D01*
X151267200Y-75234800D01*
X151247200Y-75234800D01*
X151247200Y-75133200D01*
X151267200Y-75133200D01*
X151267200Y-74370850D01*
X151368800Y-74370850D01*
X151368800Y-75133200D01*
X152356150Y-75133200D01*
X152502200Y-74987150D01*
X152502200Y-74692796D01*
X152413261Y-74478078D01*
X152248923Y-74313739D01*
X152034205Y-74224800D01*
X151514850Y-74224800D01*
X151368800Y-74370850D01*
X151267200Y-74370850D01*
X151121150Y-74224800D01*
X150601795Y-74224800D01*
X150387077Y-74313739D01*
X150222739Y-74478078D01*
X150160062Y-74629393D01*
X150108680Y-74594285D01*
X150018000Y-74575922D01*
X148818000Y-74575922D01*
X148733286Y-74591862D01*
X148655482Y-74641928D01*
X148603285Y-74718320D01*
X148584922Y-74809000D01*
X148584922Y-74879200D01*
X148462252Y-74879200D01*
X148297526Y-74714474D01*
X148198642Y-74648402D01*
X148082000Y-74625200D01*
X147983078Y-74625200D01*
X147983078Y-74480000D01*
X147967138Y-74395286D01*
X147917072Y-74317482D01*
X147840680Y-74265285D01*
X147750000Y-74246922D01*
X146550000Y-74246922D01*
X146465286Y-74262862D01*
X146387482Y-74312928D01*
X146335285Y-74389320D01*
X146316922Y-74480000D01*
X146316922Y-75380000D01*
X146332862Y-75464714D01*
X146382928Y-75542518D01*
X146459320Y-75594715D01*
X146550000Y-75613078D01*
X146845200Y-75613078D01*
X146845200Y-76116748D01*
X145580474Y-77381474D01*
X145514402Y-77480358D01*
X145509801Y-77503488D01*
X145510440Y-77258280D01*
X145304815Y-76758179D01*
X145300805Y-76752176D01*
X145062380Y-76685102D01*
X144222382Y-77525100D01*
X145062380Y-78365098D01*
X145300805Y-78298024D01*
X145491200Y-77841734D01*
X145491200Y-78577013D01*
X145490640Y-78791920D01*
X145491200Y-78793282D01*
X145491200Y-79375000D01*
X145514402Y-79491642D01*
X145580474Y-79590526D01*
X145930574Y-79940626D01*
X145947513Y-79951944D01*
X145958402Y-80009814D01*
X145984301Y-80050062D01*
X145960825Y-80084420D01*
X145942462Y-80175100D01*
X145942462Y-80575100D01*
X145958402Y-80659814D01*
X145984301Y-80700062D01*
X145960825Y-80734420D01*
X145942462Y-80825100D01*
X145942462Y-81225100D01*
X145958402Y-81309814D01*
X145984301Y-81350062D01*
X145960825Y-81384420D01*
X145942462Y-81475100D01*
X145942462Y-81589310D01*
X145844617Y-81629839D01*
X145680279Y-81794178D01*
X145591340Y-82008896D01*
X145591340Y-82128250D01*
X145737390Y-82274300D01*
X146318378Y-82274300D01*
X146083619Y-82370825D01*
X146077616Y-82374835D01*
X146077316Y-82375900D01*
X145737390Y-82375900D01*
X145591340Y-82521950D01*
X145591340Y-82641304D01*
X145668654Y-82827957D01*
X145492049Y-83251199D01*
X145490640Y-83791920D01*
X145696265Y-84292021D01*
X145700275Y-84298024D01*
X145938700Y-84365098D01*
X146778698Y-83525100D01*
X146764556Y-83510958D01*
X146836398Y-83439116D01*
X146850540Y-83453258D01*
X146864683Y-83439116D01*
X146936525Y-83510958D01*
X146922382Y-83525100D01*
X147762380Y-84365098D01*
X148000805Y-84298024D01*
X148209031Y-83799001D01*
X148210008Y-83423795D01*
X148900800Y-83423795D01*
X148900800Y-83943150D01*
X149046850Y-84089200D01*
X149809200Y-84089200D01*
X149809200Y-83101850D01*
X149910800Y-83101850D01*
X149910800Y-84089200D01*
X150673150Y-84089200D01*
X150819200Y-83943150D01*
X150819200Y-83423795D01*
X150730261Y-83209077D01*
X150565922Y-83044739D01*
X150351204Y-82955800D01*
X150056850Y-82955800D01*
X149910800Y-83101850D01*
X149809200Y-83101850D01*
X149663150Y-82955800D01*
X149368796Y-82955800D01*
X149154078Y-83044739D01*
X148989739Y-83209077D01*
X148900800Y-83423795D01*
X148210008Y-83423795D01*
X148210440Y-83258280D01*
X148032968Y-82826649D01*
X148109740Y-82641304D01*
X148109740Y-82521950D01*
X147963690Y-82375900D01*
X147623764Y-82375900D01*
X147623464Y-82374835D01*
X147382527Y-82274300D01*
X147963690Y-82274300D01*
X148109740Y-82128250D01*
X148109740Y-82008896D01*
X148020801Y-81794178D01*
X147856463Y-81629839D01*
X147758618Y-81589310D01*
X147758618Y-81475100D01*
X147742678Y-81390386D01*
X147716779Y-81350138D01*
X147718527Y-81347579D01*
X148628474Y-82257526D01*
X148727358Y-82323598D01*
X148844000Y-82346800D01*
X151130000Y-82346800D01*
X151150109Y-82342800D01*
X151499138Y-82342800D01*
X151492833Y-82373933D01*
X151387077Y-82417739D01*
X151222739Y-82582078D01*
X151133800Y-82796796D01*
X151133800Y-82841150D01*
X151279850Y-82987200D01*
X151317616Y-82987200D01*
X151222739Y-83082078D01*
X151177602Y-83191048D01*
X151133800Y-83234850D01*
X151133800Y-83279204D01*
X151137443Y-83288000D01*
X151133800Y-83296796D01*
X151133800Y-83341150D01*
X151177602Y-83384952D01*
X151222739Y-83493922D01*
X151266817Y-83538000D01*
X151222739Y-83582078D01*
X151177602Y-83691048D01*
X151133800Y-83734850D01*
X151133800Y-83779204D01*
X151137443Y-83788000D01*
X151133800Y-83796796D01*
X151133800Y-83841150D01*
X151177602Y-83884952D01*
X151222739Y-83993922D01*
X151317616Y-84088800D01*
X151279850Y-84088800D01*
X151133800Y-84234850D01*
X151133800Y-84279204D01*
X151222739Y-84493922D01*
X151387077Y-84658261D01*
X151492226Y-84701815D01*
X151500862Y-84747714D01*
X151550928Y-84825518D01*
X151627320Y-84877715D01*
X151718000Y-84896078D01*
X152063200Y-84896078D01*
X152063200Y-85641705D01*
X152051294Y-85646624D01*
X151890389Y-85807249D01*
X151882354Y-85826600D01*
X151154652Y-85826600D01*
X151152526Y-85824474D01*
X151053642Y-85758402D01*
X150937000Y-85735200D01*
X150468078Y-85735200D01*
X150468078Y-85440000D01*
X150452138Y-85355286D01*
X150415103Y-85297732D01*
X150565922Y-85235261D01*
X150730261Y-85070923D01*
X150819200Y-84856205D01*
X150819200Y-84336850D01*
X150673150Y-84190800D01*
X149910800Y-84190800D01*
X149910800Y-84210800D01*
X149809200Y-84210800D01*
X149809200Y-84190800D01*
X149046850Y-84190800D01*
X148900800Y-84336850D01*
X148900800Y-84856205D01*
X148989739Y-85070923D01*
X149154078Y-85235261D01*
X149305393Y-85297938D01*
X149270285Y-85349320D01*
X149251922Y-85440000D01*
X149251922Y-86640000D01*
X149267862Y-86724714D01*
X149317928Y-86802518D01*
X149394320Y-86854715D01*
X149485000Y-86873078D01*
X150235000Y-86873078D01*
X150319714Y-86857138D01*
X150397518Y-86807072D01*
X150449715Y-86730680D01*
X150468078Y-86640000D01*
X150468078Y-86344800D01*
X150810748Y-86344800D01*
X150812874Y-86346926D01*
X150911758Y-86412998D01*
X151028400Y-86436200D01*
X151882177Y-86436200D01*
X151889824Y-86454706D01*
X152050449Y-86615611D01*
X152260423Y-86702800D01*
X152487780Y-86702999D01*
X152697906Y-86616176D01*
X152858811Y-86455551D01*
X152946000Y-86245577D01*
X152946199Y-86018220D01*
X152859376Y-85808094D01*
X152698751Y-85647189D01*
X152672800Y-85636413D01*
X152672800Y-84896078D01*
X153018000Y-84896078D01*
X153102714Y-84880138D01*
X153160738Y-84842800D01*
X153434600Y-84842800D01*
X153551242Y-84819598D01*
X153650126Y-84753526D01*
X153910926Y-84492726D01*
X153919162Y-84480400D01*
X153976998Y-84393842D01*
X154000200Y-84277200D01*
X154000200Y-79907652D01*
X154151852Y-79756000D01*
X158064200Y-79756000D01*
X158180842Y-79732798D01*
X158279726Y-79666726D01*
X158787726Y-79158726D01*
X158853798Y-79059842D01*
X158860075Y-79028286D01*
X158877000Y-78943200D01*
X158877000Y-78790800D01*
X159836284Y-78790800D01*
X159833800Y-78796796D01*
X159833800Y-78841150D01*
X159979850Y-78987200D01*
X160017616Y-78987200D01*
X159922739Y-79082078D01*
X159877602Y-79191048D01*
X159833800Y-79234850D01*
X159833800Y-79279204D01*
X159837443Y-79288000D01*
X159833800Y-79296796D01*
X159833800Y-79341150D01*
X159877602Y-79384952D01*
X159922739Y-79493922D01*
X160017616Y-79588800D01*
X159979850Y-79588800D01*
X159833800Y-79734850D01*
X159833800Y-79779204D01*
X159922739Y-79993922D01*
X160087077Y-80158261D01*
X160192226Y-80201815D01*
X160200862Y-80247714D01*
X160226761Y-80287962D01*
X160203285Y-80322320D01*
X160184922Y-80413000D01*
X160184922Y-80663000D01*
X160200862Y-80747714D01*
X160226761Y-80787962D01*
X160203285Y-80822320D01*
X160184922Y-80913000D01*
X160184922Y-81163000D01*
X160200862Y-81247714D01*
X160226761Y-81287962D01*
X160203285Y-81322320D01*
X160184922Y-81413000D01*
X160184922Y-81663000D01*
X160200862Y-81747714D01*
X160226761Y-81787962D01*
X160203285Y-81822320D01*
X160184922Y-81913000D01*
X160184922Y-82163000D01*
X160200862Y-82247714D01*
X160226761Y-82287962D01*
X160203285Y-82322320D01*
X160184922Y-82413000D01*
X160184922Y-82663000D01*
X160200862Y-82747714D01*
X160226761Y-82787962D01*
X160203285Y-82822320D01*
X160184922Y-82913000D01*
X160184922Y-83163000D01*
X160200862Y-83247714D01*
X160226761Y-83287962D01*
X160203285Y-83322320D01*
X160184922Y-83413000D01*
X160184922Y-83663000D01*
X160200862Y-83747714D01*
X160226761Y-83787962D01*
X160203285Y-83822320D01*
X160184922Y-83913000D01*
X160184922Y-84163000D01*
X160200862Y-84247714D01*
X160226761Y-84287962D01*
X160203285Y-84322320D01*
X160184922Y-84413000D01*
X160184922Y-84468270D01*
X160006926Y-84290274D01*
X159908042Y-84224202D01*
X159791400Y-84201000D01*
X158191200Y-84201000D01*
X158074558Y-84224202D01*
X157975674Y-84290274D01*
X157252474Y-85013474D01*
X157186402Y-85112358D01*
X157163200Y-85229000D01*
X157163200Y-85269138D01*
X157093000Y-85254922D01*
X156955008Y-85254922D01*
X156973611Y-85236351D01*
X157060800Y-85026377D01*
X157060999Y-84799020D01*
X156974176Y-84588894D01*
X156813551Y-84427989D01*
X156603577Y-84340800D01*
X156376220Y-84340601D01*
X156166094Y-84427424D01*
X156133774Y-84459688D01*
X155975351Y-84300989D01*
X155765377Y-84213800D01*
X155538020Y-84213601D01*
X155327894Y-84300424D01*
X155166989Y-84461049D01*
X155079800Y-84671023D01*
X155079601Y-84898380D01*
X155166424Y-85108506D01*
X155317395Y-85259740D01*
X155258286Y-85270862D01*
X155218038Y-85296761D01*
X155183680Y-85273285D01*
X155093000Y-85254922D01*
X154843000Y-85254922D01*
X154758286Y-85270862D01*
X154718038Y-85296761D01*
X154683680Y-85273285D01*
X154593000Y-85254922D01*
X154343000Y-85254922D01*
X154258286Y-85270862D01*
X154218038Y-85296761D01*
X154183680Y-85273285D01*
X154093000Y-85254922D01*
X153843000Y-85254922D01*
X153758286Y-85270862D01*
X153680482Y-85320928D01*
X153628285Y-85397320D01*
X153609922Y-85488000D01*
X153609922Y-86788000D01*
X153625862Y-86872714D01*
X153663200Y-86930738D01*
X153663200Y-86988200D01*
X153686402Y-87104842D01*
X153752474Y-87203726D01*
X155181674Y-88632926D01*
X155280558Y-88698998D01*
X155397200Y-88722200D01*
X166700200Y-88722200D01*
X166816842Y-88698998D01*
X166915726Y-88632926D01*
X168236526Y-87312126D01*
X168302598Y-87213242D01*
X168325800Y-87096600D01*
X168325800Y-81406252D01*
X169290252Y-80441800D01*
X169672000Y-80441800D01*
X169788642Y-80418598D01*
X169887526Y-80352526D01*
X170395526Y-79844526D01*
X170461598Y-79745642D01*
X170468091Y-79713000D01*
X170484800Y-79629000D01*
X170484800Y-79576979D01*
X170573628Y-79559310D01*
X170907330Y-79336338D01*
X171130302Y-79002636D01*
X171208600Y-78609008D01*
X171208600Y-77854992D01*
X171130302Y-77461364D01*
X170907330Y-77127662D01*
X170573628Y-76904690D01*
X170180000Y-76826392D01*
X169786372Y-76904690D01*
X169452670Y-77127662D01*
X169229698Y-77461364D01*
X169151400Y-77854992D01*
X169151400Y-78609008D01*
X169229698Y-79002636D01*
X169452670Y-79336338D01*
X169786372Y-79559310D01*
X169813285Y-79564663D01*
X169545748Y-79832200D01*
X169164000Y-79832200D01*
X169047358Y-79855402D01*
X168948474Y-79921474D01*
X167805474Y-81064474D01*
X167739402Y-81163358D01*
X167716200Y-81280000D01*
X167716200Y-81636200D01*
X166460213Y-81636200D01*
X166447239Y-81616038D01*
X166470715Y-81581680D01*
X166489078Y-81491000D01*
X166489078Y-81091000D01*
X166473138Y-81006286D01*
X166447239Y-80966038D01*
X166470715Y-80931680D01*
X166489078Y-80841000D01*
X166489078Y-80441000D01*
X166473138Y-80356286D01*
X166423072Y-80278482D01*
X166346680Y-80226285D01*
X166256000Y-80207922D01*
X165303200Y-80207922D01*
X165303200Y-77854992D01*
X166611400Y-77854992D01*
X166611400Y-78609008D01*
X166689698Y-79002636D01*
X166912670Y-79336338D01*
X167246372Y-79559310D01*
X167640000Y-79637608D01*
X168033628Y-79559310D01*
X168367330Y-79336338D01*
X168590302Y-79002636D01*
X168668600Y-78609008D01*
X168668600Y-77854992D01*
X168590302Y-77461364D01*
X168367330Y-77127662D01*
X168033628Y-76904690D01*
X167640000Y-76826392D01*
X167246372Y-76904690D01*
X166912670Y-77127662D01*
X166689698Y-77461364D01*
X166611400Y-77854992D01*
X165303200Y-77854992D01*
X165303200Y-77240652D01*
X166674052Y-75869800D01*
X169389922Y-75869800D01*
X169389922Y-76015000D01*
X169405862Y-76099714D01*
X169455928Y-76177518D01*
X169532320Y-76229715D01*
X169623000Y-76248078D01*
X170823000Y-76248078D01*
X170907714Y-76232138D01*
X170985518Y-76182072D01*
X171037715Y-76105680D01*
X171056078Y-76015000D01*
X171056078Y-75862265D01*
X171134842Y-75846598D01*
X171233726Y-75780526D01*
X171538526Y-75475726D01*
X171589922Y-75398806D01*
X171589922Y-76015000D01*
X171605862Y-76099714D01*
X171655928Y-76177518D01*
X171732320Y-76229715D01*
X171823000Y-76248078D01*
X172118200Y-76248078D01*
X172118200Y-76563400D01*
X172141402Y-76680042D01*
X172207474Y-76778926D01*
X172332099Y-76903551D01*
X172326372Y-76904690D01*
X171992670Y-77127662D01*
X171769698Y-77461364D01*
X171691400Y-77854992D01*
X171691400Y-78609008D01*
X171769698Y-79002636D01*
X171992670Y-79336338D01*
X172326372Y-79559310D01*
X172720000Y-79637608D01*
X173113628Y-79559310D01*
X173447330Y-79336338D01*
X173670302Y-79002636D01*
X173748600Y-78609008D01*
X173748600Y-77854992D01*
X173670302Y-77461364D01*
X173447330Y-77127662D01*
X173113628Y-76904690D01*
X173024800Y-76887021D01*
X173024800Y-76860400D01*
X173001598Y-76743758D01*
X172935526Y-76644874D01*
X172727800Y-76437148D01*
X172727800Y-76248078D01*
X173023000Y-76248078D01*
X173107714Y-76232138D01*
X173185518Y-76182072D01*
X173237715Y-76105680D01*
X173256078Y-76015000D01*
X173256078Y-75115000D01*
X173248439Y-75074400D01*
X173764122Y-75074400D01*
X173764122Y-76274400D01*
X173780062Y-76359114D01*
X173830128Y-76436918D01*
X173906520Y-76489115D01*
X173997200Y-76507478D01*
X174142400Y-76507478D01*
X174142400Y-77419200D01*
X174165602Y-77535842D01*
X174231674Y-77634726D01*
X174267990Y-77671042D01*
X174231400Y-77854992D01*
X174231400Y-78609008D01*
X174309698Y-79002636D01*
X174532670Y-79336338D01*
X174866372Y-79559310D01*
X175260000Y-79637608D01*
X175653628Y-79559310D01*
X175987330Y-79336338D01*
X176210302Y-79002636D01*
X176288600Y-78609008D01*
X176288600Y-77854992D01*
X176210302Y-77461364D01*
X175987330Y-77127662D01*
X175653628Y-76904690D01*
X175260000Y-76826392D01*
X174866372Y-76904690D01*
X174752000Y-76981111D01*
X174752000Y-76507478D01*
X174897200Y-76507478D01*
X174981914Y-76491538D01*
X175059718Y-76441472D01*
X175111915Y-76365080D01*
X175130278Y-76274400D01*
X175130278Y-75568850D01*
X175189800Y-75568850D01*
X175189800Y-76088205D01*
X175278739Y-76302923D01*
X175443078Y-76467261D01*
X175657796Y-76556200D01*
X175952150Y-76556200D01*
X176098200Y-76410150D01*
X176098200Y-75422800D01*
X175335850Y-75422800D01*
X175189800Y-75568850D01*
X175130278Y-75568850D01*
X175130278Y-75074400D01*
X175114338Y-74989686D01*
X175064272Y-74911882D01*
X174987880Y-74859685D01*
X174897200Y-74841322D01*
X173997200Y-74841322D01*
X173912486Y-74857262D01*
X173834682Y-74907328D01*
X173782485Y-74983720D01*
X173764122Y-75074400D01*
X173248439Y-75074400D01*
X173240138Y-75030286D01*
X173190072Y-74952482D01*
X173113680Y-74900285D01*
X173023000Y-74881922D01*
X172238872Y-74881922D01*
X172300526Y-74840726D01*
X172638526Y-74502726D01*
X172704598Y-74403842D01*
X172716685Y-74343078D01*
X173023000Y-74343078D01*
X173107714Y-74327138D01*
X173185518Y-74277072D01*
X173237715Y-74200680D01*
X173256078Y-74110000D01*
X173256078Y-73964800D01*
X173355000Y-73964800D01*
X173471642Y-73941598D01*
X173570526Y-73875526D01*
X173666852Y-73779200D01*
X173764122Y-73779200D01*
X173764122Y-74074400D01*
X173780062Y-74159114D01*
X173830128Y-74236918D01*
X173906520Y-74289115D01*
X173997200Y-74307478D01*
X174897200Y-74307478D01*
X174981914Y-74291538D01*
X175059718Y-74241472D01*
X175111915Y-74165080D01*
X175130278Y-74074400D01*
X175130278Y-73779200D01*
X175540922Y-73779200D01*
X175540922Y-74072000D01*
X175556862Y-74156714D01*
X175593897Y-74214268D01*
X175443078Y-74276739D01*
X175278739Y-74441077D01*
X175189800Y-74655795D01*
X175189800Y-75175150D01*
X175335850Y-75321200D01*
X176098200Y-75321200D01*
X176098200Y-75301200D01*
X176199800Y-75301200D01*
X176199800Y-75321200D01*
X176219800Y-75321200D01*
X176219800Y-75422800D01*
X176199800Y-75422800D01*
X176199800Y-76410150D01*
X176345850Y-76556200D01*
X176640204Y-76556200D01*
X176854922Y-76467261D01*
X177019261Y-76302923D01*
X177088800Y-76135041D01*
X177088800Y-97078800D01*
X143586200Y-97078800D01*
X143586200Y-94256521D01*
X147803853Y-94256521D01*
X147806208Y-94268378D01*
X148024565Y-94789375D01*
X148425677Y-95187152D01*
X148948479Y-95401151D01*
X149174200Y-95280862D01*
X149174200Y-94030800D01*
X149275800Y-94030800D01*
X149275800Y-95280862D01*
X149501521Y-95401151D01*
X150024323Y-95187152D01*
X150425435Y-94789375D01*
X150495000Y-94623394D01*
X150564565Y-94789375D01*
X150965677Y-95187152D01*
X151488479Y-95401151D01*
X151714200Y-95280862D01*
X151714200Y-94030800D01*
X151815800Y-94030800D01*
X151815800Y-95280862D01*
X152041521Y-95401151D01*
X152564323Y-95187152D01*
X152965435Y-94789375D01*
X153035000Y-94623394D01*
X153104565Y-94789375D01*
X153505677Y-95187152D01*
X154028479Y-95401151D01*
X154254200Y-95280862D01*
X154254200Y-94030800D01*
X154355800Y-94030800D01*
X154355800Y-95280862D01*
X154581521Y-95401151D01*
X155104323Y-95187152D01*
X155505435Y-94789375D01*
X155575000Y-94623394D01*
X155644565Y-94789375D01*
X156045677Y-95187152D01*
X156568479Y-95401151D01*
X156794200Y-95280862D01*
X156794200Y-94030800D01*
X156895800Y-94030800D01*
X156895800Y-95280862D01*
X157121521Y-95401151D01*
X157644323Y-95187152D01*
X158045435Y-94789375D01*
X158115000Y-94623394D01*
X158184565Y-94789375D01*
X158585677Y-95187152D01*
X159108479Y-95401151D01*
X159334200Y-95280862D01*
X159334200Y-94030800D01*
X159435800Y-94030800D01*
X159435800Y-95280862D01*
X159661521Y-95401151D01*
X160184323Y-95187152D01*
X160585435Y-94789375D01*
X160655000Y-94623394D01*
X160724565Y-94789375D01*
X161125677Y-95187152D01*
X161648479Y-95401151D01*
X161874200Y-95280862D01*
X161874200Y-94030800D01*
X161975800Y-94030800D01*
X161975800Y-95280862D01*
X162201521Y-95401151D01*
X162724323Y-95187152D01*
X163125435Y-94789375D01*
X163195000Y-94623394D01*
X163264565Y-94789375D01*
X163665677Y-95187152D01*
X164188479Y-95401151D01*
X164414200Y-95280862D01*
X164414200Y-94030800D01*
X164515800Y-94030800D01*
X164515800Y-95280862D01*
X164741521Y-95401151D01*
X165264323Y-95187152D01*
X165665435Y-94789375D01*
X165735000Y-94623394D01*
X165804565Y-94789375D01*
X166205677Y-95187152D01*
X166728479Y-95401151D01*
X166954200Y-95280862D01*
X166954200Y-94030800D01*
X167055800Y-94030800D01*
X167055800Y-95280862D01*
X167281521Y-95401151D01*
X167804323Y-95187152D01*
X168205435Y-94789375D01*
X168275000Y-94623394D01*
X168344565Y-94789375D01*
X168745677Y-95187152D01*
X169268479Y-95401151D01*
X169494200Y-95280862D01*
X169494200Y-94030800D01*
X167055800Y-94030800D01*
X166954200Y-94030800D01*
X164515800Y-94030800D01*
X164414200Y-94030800D01*
X161975800Y-94030800D01*
X161874200Y-94030800D01*
X159435800Y-94030800D01*
X159334200Y-94030800D01*
X156895800Y-94030800D01*
X156794200Y-94030800D01*
X154355800Y-94030800D01*
X154254200Y-94030800D01*
X151815800Y-94030800D01*
X151714200Y-94030800D01*
X149275800Y-94030800D01*
X149174200Y-94030800D01*
X147924242Y-94030800D01*
X147803853Y-94256521D01*
X143586200Y-94256521D01*
X143586200Y-93703479D01*
X147803853Y-93703479D01*
X147924242Y-93929200D01*
X149174200Y-93929200D01*
X149174200Y-92679138D01*
X149275800Y-92679138D01*
X149275800Y-93929200D01*
X151714200Y-93929200D01*
X151714200Y-92679138D01*
X151815800Y-92679138D01*
X151815800Y-93929200D01*
X154254200Y-93929200D01*
X154254200Y-92679138D01*
X154355800Y-92679138D01*
X154355800Y-93929200D01*
X156794200Y-93929200D01*
X156794200Y-92679138D01*
X156895800Y-92679138D01*
X156895800Y-93929200D01*
X159334200Y-93929200D01*
X159334200Y-92679138D01*
X159435800Y-92679138D01*
X159435800Y-93929200D01*
X161874200Y-93929200D01*
X161874200Y-92679138D01*
X161975800Y-92679138D01*
X161975800Y-93929200D01*
X164414200Y-93929200D01*
X164414200Y-92679138D01*
X164515800Y-92679138D01*
X164515800Y-93929200D01*
X166954200Y-93929200D01*
X166954200Y-92679138D01*
X167055800Y-92679138D01*
X167055800Y-93929200D01*
X169494200Y-93929200D01*
X169494200Y-92679138D01*
X169268479Y-92558849D01*
X168745677Y-92772848D01*
X168344565Y-93170625D01*
X168275000Y-93336606D01*
X168205435Y-93170625D01*
X167804323Y-92772848D01*
X167281521Y-92558849D01*
X167055800Y-92679138D01*
X166954200Y-92679138D01*
X166728479Y-92558849D01*
X166205677Y-92772848D01*
X165804565Y-93170625D01*
X165735000Y-93336606D01*
X165665435Y-93170625D01*
X165264323Y-92772848D01*
X164741521Y-92558849D01*
X164515800Y-92679138D01*
X164414200Y-92679138D01*
X164188479Y-92558849D01*
X163665677Y-92772848D01*
X163264565Y-93170625D01*
X163195000Y-93336606D01*
X163125435Y-93170625D01*
X162724323Y-92772848D01*
X162201521Y-92558849D01*
X161975800Y-92679138D01*
X161874200Y-92679138D01*
X161648479Y-92558849D01*
X161125677Y-92772848D01*
X160724565Y-93170625D01*
X160655000Y-93336606D01*
X160585435Y-93170625D01*
X160184323Y-92772848D01*
X159661521Y-92558849D01*
X159435800Y-92679138D01*
X159334200Y-92679138D01*
X159108479Y-92558849D01*
X158585677Y-92772848D01*
X158184565Y-93170625D01*
X158115000Y-93336606D01*
X158045435Y-93170625D01*
X157644323Y-92772848D01*
X157121521Y-92558849D01*
X156895800Y-92679138D01*
X156794200Y-92679138D01*
X156568479Y-92558849D01*
X156045677Y-92772848D01*
X155644565Y-93170625D01*
X155575000Y-93336606D01*
X155505435Y-93170625D01*
X155104323Y-92772848D01*
X154581521Y-92558849D01*
X154355800Y-92679138D01*
X154254200Y-92679138D01*
X154028479Y-92558849D01*
X153505677Y-92772848D01*
X153104565Y-93170625D01*
X153035000Y-93336606D01*
X152965435Y-93170625D01*
X152564323Y-92772848D01*
X152041521Y-92558849D01*
X151815800Y-92679138D01*
X151714200Y-92679138D01*
X151488479Y-92558849D01*
X150965677Y-92772848D01*
X150564565Y-93170625D01*
X150495000Y-93336606D01*
X150425435Y-93170625D01*
X150024323Y-92772848D01*
X149501521Y-92558849D01*
X149275800Y-92679138D01*
X149174200Y-92679138D01*
X148948479Y-92558849D01*
X148425677Y-92772848D01*
X148024565Y-93170625D01*
X147806208Y-93691622D01*
X147803853Y-93703479D01*
X143586200Y-93703479D01*
X143586200Y-91440000D01*
X148111403Y-91440000D01*
X148194542Y-91857967D01*
X148431301Y-92212302D01*
X148785636Y-92449061D01*
X149203603Y-92532200D01*
X149246397Y-92532200D01*
X149664364Y-92449061D01*
X150018699Y-92212302D01*
X150255458Y-91857967D01*
X150338597Y-91440000D01*
X150651403Y-91440000D01*
X150734542Y-91857967D01*
X150971301Y-92212302D01*
X151325636Y-92449061D01*
X151743603Y-92532200D01*
X151786397Y-92532200D01*
X152204364Y-92449061D01*
X152558699Y-92212302D01*
X152795458Y-91857967D01*
X152878597Y-91440000D01*
X153191403Y-91440000D01*
X153274542Y-91857967D01*
X153511301Y-92212302D01*
X153865636Y-92449061D01*
X154283603Y-92532200D01*
X154326397Y-92532200D01*
X154744364Y-92449061D01*
X155098699Y-92212302D01*
X155335458Y-91857967D01*
X155418597Y-91440000D01*
X155731403Y-91440000D01*
X155814542Y-91857967D01*
X156051301Y-92212302D01*
X156405636Y-92449061D01*
X156823603Y-92532200D01*
X156866397Y-92532200D01*
X157284364Y-92449061D01*
X157638699Y-92212302D01*
X157875458Y-91857967D01*
X157958597Y-91440000D01*
X158271403Y-91440000D01*
X158354542Y-91857967D01*
X158591301Y-92212302D01*
X158945636Y-92449061D01*
X159363603Y-92532200D01*
X159406397Y-92532200D01*
X159824364Y-92449061D01*
X160178699Y-92212302D01*
X160415458Y-91857967D01*
X160498597Y-91440000D01*
X160811403Y-91440000D01*
X160894542Y-91857967D01*
X161131301Y-92212302D01*
X161485636Y-92449061D01*
X161903603Y-92532200D01*
X161946397Y-92532200D01*
X162364364Y-92449061D01*
X162718699Y-92212302D01*
X162955458Y-91857967D01*
X163038597Y-91440000D01*
X162955458Y-91022033D01*
X162718699Y-90667698D01*
X162364364Y-90430939D01*
X161946397Y-90347800D01*
X161903603Y-90347800D01*
X161485636Y-90430939D01*
X161131301Y-90667698D01*
X160894542Y-91022033D01*
X160811403Y-91440000D01*
X160498597Y-91440000D01*
X160415458Y-91022033D01*
X160178699Y-90667698D01*
X159824364Y-90430939D01*
X159406397Y-90347800D01*
X159363603Y-90347800D01*
X158945636Y-90430939D01*
X158591301Y-90667698D01*
X158354542Y-91022033D01*
X158271403Y-91440000D01*
X157958597Y-91440000D01*
X157875458Y-91022033D01*
X157802784Y-90913268D01*
X158571452Y-90144600D01*
X165329348Y-90144600D01*
X164987476Y-90486472D01*
X164904364Y-90430939D01*
X164486397Y-90347800D01*
X164443603Y-90347800D01*
X164025636Y-90430939D01*
X163671301Y-90667698D01*
X163434542Y-91022033D01*
X163351403Y-91440000D01*
X163434542Y-91857967D01*
X163671301Y-92212302D01*
X164025636Y-92449061D01*
X164443603Y-92532200D01*
X164486397Y-92532200D01*
X164904364Y-92449061D01*
X165258699Y-92212302D01*
X165495458Y-91857967D01*
X165578597Y-91440000D01*
X165495458Y-91022033D01*
X165422784Y-90913268D01*
X165861252Y-90474800D01*
X166499993Y-90474800D01*
X166211301Y-90667698D01*
X165974542Y-91022033D01*
X165891403Y-91440000D01*
X165974542Y-91857967D01*
X166211301Y-92212302D01*
X166565636Y-92449061D01*
X166983603Y-92532200D01*
X167026397Y-92532200D01*
X167444364Y-92449061D01*
X167798699Y-92212302D01*
X168035458Y-91857967D01*
X168118597Y-91440000D01*
X168035458Y-91022033D01*
X167798699Y-90667698D01*
X167510007Y-90474800D01*
X169039993Y-90474800D01*
X168751301Y-90667698D01*
X168514542Y-91022033D01*
X168431403Y-91440000D01*
X168514542Y-91857967D01*
X168751301Y-92212302D01*
X169105636Y-92449061D01*
X169523603Y-92532200D01*
X169566397Y-92532200D01*
X169984364Y-92449061D01*
X170338699Y-92212302D01*
X170575458Y-91857967D01*
X170658597Y-91440000D01*
X170575458Y-91022033D01*
X170502784Y-90913268D01*
X170725726Y-90690326D01*
X170791798Y-90591442D01*
X170815000Y-90474800D01*
X170815000Y-87223508D01*
X170939795Y-87275200D01*
X171359150Y-87275200D01*
X171505200Y-87129150D01*
X171505200Y-86541800D01*
X171606800Y-86541800D01*
X171606800Y-87129150D01*
X171752850Y-87275200D01*
X172172205Y-87275200D01*
X172386923Y-87186261D01*
X172551261Y-87021922D01*
X172640200Y-86807204D01*
X172640200Y-86687850D01*
X172494150Y-86541800D01*
X171606800Y-86541800D01*
X171505200Y-86541800D01*
X171485200Y-86541800D01*
X171485200Y-86440200D01*
X171505200Y-86440200D01*
X171505200Y-86420200D01*
X171606800Y-86420200D01*
X171606800Y-86440200D01*
X172494150Y-86440200D01*
X172640200Y-86294150D01*
X172640200Y-86174796D01*
X172551261Y-85960078D01*
X172386923Y-85795739D01*
X172289078Y-85755210D01*
X172289078Y-85641000D01*
X172273138Y-85556286D01*
X172247239Y-85516038D01*
X172270715Y-85481680D01*
X172289078Y-85391000D01*
X172289078Y-84991000D01*
X172273138Y-84906286D01*
X172247239Y-84866038D01*
X172270715Y-84831680D01*
X172289078Y-84741000D01*
X172289078Y-84341000D01*
X172273138Y-84256286D01*
X172247239Y-84216038D01*
X172270715Y-84181680D01*
X172289078Y-84091000D01*
X172289078Y-83691000D01*
X172273138Y-83606286D01*
X172247239Y-83566038D01*
X172270715Y-83531680D01*
X172289078Y-83441000D01*
X172289078Y-83041000D01*
X172273138Y-82956286D01*
X172247239Y-82916038D01*
X172270715Y-82881680D01*
X172289078Y-82791000D01*
X172289078Y-82391000D01*
X172273138Y-82306286D01*
X172247239Y-82266038D01*
X172270715Y-82231680D01*
X172289078Y-82141000D01*
X172289078Y-81741000D01*
X172273138Y-81656286D01*
X172247239Y-81616038D01*
X172261067Y-81595800D01*
X172350748Y-81595800D01*
X172669200Y-81914252D01*
X172669200Y-88316548D01*
X171869474Y-89116274D01*
X171803402Y-89215158D01*
X171780200Y-89331800D01*
X171780200Y-90343322D01*
X171221400Y-90343322D01*
X171136686Y-90359262D01*
X171058882Y-90409328D01*
X171006685Y-90485720D01*
X170988322Y-90576400D01*
X170988322Y-92303600D01*
X171004262Y-92388314D01*
X171054328Y-92466118D01*
X171130720Y-92518315D01*
X171221400Y-92536678D01*
X171729400Y-92536678D01*
X171729400Y-92954277D01*
X171645636Y-92970939D01*
X171291301Y-93207698D01*
X171054542Y-93562033D01*
X170981508Y-93929198D01*
X170845759Y-93929198D01*
X170966147Y-93703479D01*
X170963792Y-93691622D01*
X170745435Y-93170625D01*
X170344323Y-92772848D01*
X169821521Y-92558849D01*
X169595800Y-92679138D01*
X169595800Y-93929200D01*
X169615800Y-93929200D01*
X169615800Y-94030800D01*
X169595800Y-94030800D01*
X169595800Y-95280862D01*
X169821521Y-95401151D01*
X170344323Y-95187152D01*
X170745435Y-94789375D01*
X170963792Y-94268378D01*
X170966147Y-94256521D01*
X170845759Y-94030802D01*
X170981508Y-94030802D01*
X171054542Y-94397967D01*
X171291301Y-94752302D01*
X171645636Y-94989061D01*
X172063603Y-95072200D01*
X172106397Y-95072200D01*
X172524364Y-94989061D01*
X172878699Y-94752302D01*
X173115458Y-94397967D01*
X173198597Y-93980000D01*
X173115458Y-93562033D01*
X172878699Y-93207698D01*
X172524364Y-92970939D01*
X172440600Y-92954277D01*
X172440600Y-92536678D01*
X172948600Y-92536678D01*
X173033314Y-92520738D01*
X173111118Y-92470672D01*
X173163315Y-92394280D01*
X173181678Y-92303600D01*
X173181678Y-90576400D01*
X173165738Y-90491686D01*
X173115672Y-90413882D01*
X173039280Y-90361685D01*
X172948600Y-90343322D01*
X172389800Y-90343322D01*
X172389800Y-89458052D01*
X173189526Y-88658326D01*
X173215810Y-88618989D01*
X173255598Y-88559442D01*
X173278800Y-88442800D01*
X173278800Y-81788000D01*
X173255598Y-81671358D01*
X173189526Y-81572474D01*
X172692526Y-81075474D01*
X172593642Y-81009402D01*
X172477000Y-80986200D01*
X172260213Y-80986200D01*
X172247239Y-80966038D01*
X172270715Y-80931680D01*
X172289078Y-80841000D01*
X172289078Y-80441000D01*
X172273138Y-80356286D01*
X172223072Y-80278482D01*
X172146680Y-80226285D01*
X172056000Y-80207922D01*
X171056000Y-80207922D01*
X170971286Y-80223862D01*
X170893482Y-80273928D01*
X170841285Y-80350320D01*
X170822922Y-80441000D01*
X170822922Y-80841000D01*
X170838862Y-80925714D01*
X170864761Y-80965962D01*
X170841285Y-81000320D01*
X170822922Y-81091000D01*
X170822922Y-81491000D01*
X170838862Y-81575714D01*
X170864761Y-81615962D01*
X170841285Y-81650320D01*
X170841128Y-81651093D01*
X170799358Y-81659402D01*
X170700474Y-81725474D01*
X168719874Y-83706074D01*
X168653802Y-83804958D01*
X168630600Y-83921600D01*
X168630600Y-88037148D01*
X168102869Y-88564879D01*
X168084377Y-88557200D01*
X167857020Y-88557001D01*
X167646894Y-88643824D01*
X167485989Y-88804449D01*
X167398800Y-89014423D01*
X167398601Y-89241780D01*
X167485424Y-89451906D01*
X167568373Y-89535000D01*
X158445200Y-89535000D01*
X158328559Y-89558201D01*
X158229674Y-89624274D01*
X157367476Y-90486472D01*
X157284364Y-90430939D01*
X156866397Y-90347800D01*
X156823603Y-90347800D01*
X156405636Y-90430939D01*
X156051301Y-90667698D01*
X155814542Y-91022033D01*
X155731403Y-91440000D01*
X155418597Y-91440000D01*
X155335458Y-91022033D01*
X155098699Y-90667698D01*
X154744364Y-90430939D01*
X154326397Y-90347800D01*
X154283603Y-90347800D01*
X153865636Y-90430939D01*
X153511301Y-90667698D01*
X153274542Y-91022033D01*
X153191403Y-91440000D01*
X152878597Y-91440000D01*
X152795458Y-91022033D01*
X152558699Y-90667698D01*
X152204364Y-90430939D01*
X151786397Y-90347800D01*
X151743603Y-90347800D01*
X151325636Y-90430939D01*
X150971301Y-90667698D01*
X150734542Y-91022033D01*
X150651403Y-91440000D01*
X150338597Y-91440000D01*
X150255458Y-91022033D01*
X150018699Y-90667698D01*
X149664364Y-90430939D01*
X149246397Y-90347800D01*
X149203603Y-90347800D01*
X148785636Y-90430939D01*
X148431301Y-90667698D01*
X148194542Y-91022033D01*
X148111403Y-91440000D01*
X143586200Y-91440000D01*
X143586200Y-85762400D01*
X143876639Y-85883591D01*
X144417360Y-85885000D01*
X144917461Y-85679375D01*
X144923464Y-85675365D01*
X144990538Y-85436940D01*
X144150540Y-84596942D01*
X144136398Y-84611085D01*
X144064556Y-84539243D01*
X144078698Y-84525100D01*
X144222382Y-84525100D01*
X145062380Y-85365098D01*
X145300805Y-85298024D01*
X145509031Y-84799001D01*
X145509974Y-84436940D01*
X146010542Y-84436940D01*
X146077616Y-84675365D01*
X146576639Y-84883591D01*
X147117360Y-84885000D01*
X147617461Y-84679375D01*
X147623464Y-84675365D01*
X147690538Y-84436940D01*
X146850540Y-83596942D01*
X146010542Y-84436940D01*
X145509974Y-84436940D01*
X145510440Y-84258280D01*
X145304815Y-83758179D01*
X145300805Y-83752176D01*
X145062380Y-83685102D01*
X144222382Y-84525100D01*
X144078698Y-84525100D01*
X144064556Y-84510958D01*
X144136398Y-84439116D01*
X144150540Y-84453258D01*
X144990538Y-83613260D01*
X144923464Y-83374835D01*
X144424441Y-83166609D01*
X143883720Y-83165200D01*
X143586200Y-83287530D01*
X143586200Y-78762400D01*
X143876639Y-78883591D01*
X144417360Y-78885000D01*
X144917461Y-78679375D01*
X144923464Y-78675365D01*
X144990538Y-78436940D01*
X144150540Y-77596942D01*
X144136398Y-77611085D01*
X144064556Y-77539243D01*
X144078698Y-77525100D01*
X144064556Y-77510958D01*
X144136398Y-77439116D01*
X144150540Y-77453258D01*
X144990538Y-76613260D01*
X144923464Y-76374835D01*
X144424441Y-76166609D01*
X143883720Y-76165200D01*
X143586200Y-76287530D01*
X143586200Y-74480000D01*
X144116922Y-74480000D01*
X144116922Y-75380000D01*
X144132862Y-75464714D01*
X144182928Y-75542518D01*
X144259320Y-75594715D01*
X144350000Y-75613078D01*
X145550000Y-75613078D01*
X145634714Y-75597138D01*
X145712518Y-75547072D01*
X145764715Y-75470680D01*
X145783078Y-75380000D01*
X145783078Y-74480000D01*
X145767138Y-74395286D01*
X145717072Y-74317482D01*
X145640680Y-74265285D01*
X145550000Y-74246922D01*
X145305780Y-74246922D01*
X145305780Y-73730518D01*
X145600420Y-73730518D01*
X145685134Y-73714578D01*
X145762938Y-73664512D01*
X145815135Y-73588120D01*
X145833498Y-73497440D01*
X145833498Y-73094850D01*
X145915380Y-73094850D01*
X145915380Y-73613644D01*
X146004319Y-73828362D01*
X146168657Y-73992701D01*
X146383375Y-74081640D01*
X146902170Y-74081640D01*
X147048220Y-73935590D01*
X147048220Y-72948800D01*
X147149820Y-72948800D01*
X147149820Y-73935590D01*
X147295870Y-74081640D01*
X147814665Y-74081640D01*
X148029383Y-73992701D01*
X148193721Y-73828362D01*
X148282660Y-73613644D01*
X148282660Y-73094850D01*
X148136610Y-72948800D01*
X147149820Y-72948800D01*
X147048220Y-72948800D01*
X146061430Y-72948800D01*
X145915380Y-73094850D01*
X145833498Y-73094850D01*
X145833498Y-72298560D01*
X145817558Y-72213846D01*
X145797295Y-72182356D01*
X145915380Y-72182356D01*
X145915380Y-72701150D01*
X146061430Y-72847200D01*
X147048220Y-72847200D01*
X147048220Y-71860410D01*
X147149820Y-71860410D01*
X147149820Y-72847200D01*
X148136610Y-72847200D01*
X148282660Y-72701150D01*
X148282660Y-72182356D01*
X148193721Y-71967638D01*
X148029383Y-71803299D01*
X147814665Y-71714360D01*
X147295870Y-71714360D01*
X147149820Y-71860410D01*
X147048220Y-71860410D01*
X146902170Y-71714360D01*
X146383375Y-71714360D01*
X146168657Y-71803299D01*
X146004319Y-71967638D01*
X145915380Y-72182356D01*
X145797295Y-72182356D01*
X145767492Y-72136042D01*
X145691100Y-72083845D01*
X145600420Y-72065482D01*
X144401540Y-72065482D01*
X144316826Y-72081422D01*
X144239022Y-72131488D01*
X144186825Y-72207880D01*
X144168462Y-72298560D01*
X144168462Y-73497440D01*
X144184402Y-73582154D01*
X144234468Y-73659958D01*
X144310860Y-73712155D01*
X144401540Y-73730518D01*
X144696180Y-73730518D01*
X144696180Y-74246922D01*
X144350000Y-74246922D01*
X144265286Y-74262862D01*
X144187482Y-74312928D01*
X144135285Y-74389320D01*
X144116922Y-74480000D01*
X143586200Y-74480000D01*
X143586200Y-70046850D01*
X147725800Y-70046850D01*
X147725800Y-70341204D01*
X147814739Y-70555922D01*
X147979077Y-70720261D01*
X148193795Y-70809200D01*
X148713150Y-70809200D01*
X148859200Y-70663150D01*
X148859200Y-69900800D01*
X147871850Y-69900800D01*
X147725800Y-70046850D01*
X143586200Y-70046850D01*
X143586200Y-69291200D01*
X147753799Y-69291200D01*
X147725800Y-69358796D01*
G36*
X164858474Y-85406526D02*
X164957358Y-85472598D01*
X165048526Y-85490733D01*
X165064761Y-85515962D01*
X165041285Y-85550320D01*
X165022922Y-85641000D01*
X165022922Y-86041000D01*
X165038862Y-86125714D01*
X165064761Y-86165962D01*
X165050933Y-86186200D01*
X164969000Y-86186200D01*
X164852358Y-86209402D01*
X164753474Y-86275474D01*
X164592748Y-86436200D01*
X164528680Y-86436200D01*
X164567200Y-86343204D01*
X164567200Y-86048850D01*
X164421150Y-85902800D01*
X163433800Y-85902800D01*
X163433800Y-85922800D01*
X163332200Y-85922800D01*
X163332200Y-85902800D01*
X163312200Y-85902800D01*
X163312200Y-85801200D01*
X163332200Y-85801200D01*
X163332200Y-85781200D01*
X163433800Y-85781200D01*
X163433800Y-85801200D01*
X164421150Y-85801200D01*
X164567200Y-85655150D01*
X164567200Y-85360796D01*
X164507638Y-85217000D01*
X164668948Y-85217000D01*
X164858474Y-85406526D01*
X164858474Y-85406526D01*
G37*
X164858474Y-85406526D02*
X164957358Y-85472598D01*
X165048526Y-85490733D01*
X165064761Y-85515962D01*
X165041285Y-85550320D01*
X165022922Y-85641000D01*
X165022922Y-86041000D01*
X165038862Y-86125714D01*
X165064761Y-86165962D01*
X165050933Y-86186200D01*
X164969000Y-86186200D01*
X164852358Y-86209402D01*
X164753474Y-86275474D01*
X164592748Y-86436200D01*
X164528680Y-86436200D01*
X164567200Y-86343204D01*
X164567200Y-86048850D01*
X164421150Y-85902800D01*
X163433800Y-85902800D01*
X163433800Y-85922800D01*
X163332200Y-85922800D01*
X163332200Y-85902800D01*
X163312200Y-85902800D01*
X163312200Y-85801200D01*
X163332200Y-85801200D01*
X163332200Y-85781200D01*
X163433800Y-85781200D01*
X163433800Y-85801200D01*
X164421150Y-85801200D01*
X164567200Y-85655150D01*
X164567200Y-85360796D01*
X164507638Y-85217000D01*
X164668948Y-85217000D01*
X164858474Y-85406526D01*
G36*
X152418800Y-83608800D02*
X152317200Y-83608800D01*
X152317200Y-83467200D01*
X152418800Y-83467200D01*
X152418800Y-83608800D01*
X152418800Y-83608800D01*
G37*
X152418800Y-83608800D02*
X152317200Y-83608800D01*
X152317200Y-83467200D01*
X152418800Y-83467200D01*
X152418800Y-83608800D01*
G36*
X156252320Y-78302715D02*
X156303933Y-78313167D01*
X156347739Y-78418923D01*
X156512078Y-78583261D01*
X156726796Y-78672200D01*
X156771150Y-78672200D01*
X156917200Y-78526150D01*
X156917200Y-78488384D01*
X157012078Y-78583261D01*
X157121048Y-78628398D01*
X157164850Y-78672200D01*
X157209204Y-78672200D01*
X157218000Y-78668557D01*
X157226796Y-78672200D01*
X157271150Y-78672200D01*
X157314952Y-78628398D01*
X157391092Y-78596860D01*
X157391001Y-78700780D01*
X157477824Y-78910906D01*
X157638449Y-79071811D01*
X157818079Y-79146400D01*
X154025600Y-79146400D01*
X153908958Y-79169602D01*
X153810074Y-79235674D01*
X153701693Y-79344055D01*
X153720800Y-79248000D01*
X153720800Y-78669716D01*
X153726796Y-78672200D01*
X153771150Y-78672200D01*
X153917200Y-78526150D01*
X153917200Y-78488384D01*
X154012078Y-78583261D01*
X154121048Y-78628398D01*
X154164850Y-78672200D01*
X154209204Y-78672200D01*
X154218000Y-78668557D01*
X154226796Y-78672200D01*
X154271150Y-78672200D01*
X154314952Y-78628398D01*
X154423922Y-78583261D01*
X154518800Y-78488384D01*
X154518800Y-78526150D01*
X154664850Y-78672200D01*
X154709204Y-78672200D01*
X154923922Y-78583261D01*
X155088261Y-78418923D01*
X155131815Y-78313774D01*
X155177714Y-78305138D01*
X155217962Y-78279239D01*
X155252320Y-78302715D01*
X155343000Y-78321078D01*
X155593000Y-78321078D01*
X155677714Y-78305138D01*
X155717962Y-78279239D01*
X155752320Y-78302715D01*
X155843000Y-78321078D01*
X156093000Y-78321078D01*
X156177714Y-78305138D01*
X156217962Y-78279239D01*
X156252320Y-78302715D01*
X156252320Y-78302715D01*
G37*
X156252320Y-78302715D02*
X156303933Y-78313167D01*
X156347739Y-78418923D01*
X156512078Y-78583261D01*
X156726796Y-78672200D01*
X156771150Y-78672200D01*
X156917200Y-78526150D01*
X156917200Y-78488384D01*
X157012078Y-78583261D01*
X157121048Y-78628398D01*
X157164850Y-78672200D01*
X157209204Y-78672200D01*
X157218000Y-78668557D01*
X157226796Y-78672200D01*
X157271150Y-78672200D01*
X157314952Y-78628398D01*
X157391092Y-78596860D01*
X157391001Y-78700780D01*
X157477824Y-78910906D01*
X157638449Y-79071811D01*
X157818079Y-79146400D01*
X154025600Y-79146400D01*
X153908958Y-79169602D01*
X153810074Y-79235674D01*
X153701693Y-79344055D01*
X153720800Y-79248000D01*
X153720800Y-78669716D01*
X153726796Y-78672200D01*
X153771150Y-78672200D01*
X153917200Y-78526150D01*
X153917200Y-78488384D01*
X154012078Y-78583261D01*
X154121048Y-78628398D01*
X154164850Y-78672200D01*
X154209204Y-78672200D01*
X154218000Y-78668557D01*
X154226796Y-78672200D01*
X154271150Y-78672200D01*
X154314952Y-78628398D01*
X154423922Y-78583261D01*
X154518800Y-78488384D01*
X154518800Y-78526150D01*
X154664850Y-78672200D01*
X154709204Y-78672200D01*
X154923922Y-78583261D01*
X155088261Y-78418923D01*
X155131815Y-78313774D01*
X155177714Y-78305138D01*
X155217962Y-78279239D01*
X155252320Y-78302715D01*
X155343000Y-78321078D01*
X155593000Y-78321078D01*
X155677714Y-78305138D01*
X155717962Y-78279239D01*
X155752320Y-78302715D01*
X155843000Y-78321078D01*
X156093000Y-78321078D01*
X156177714Y-78305138D01*
X156217962Y-78279239D01*
X156252320Y-78302715D01*
G36*
X161118800Y-79108800D02*
X161017200Y-79108800D01*
X161017200Y-78967200D01*
X161118800Y-78967200D01*
X161118800Y-79108800D01*
X161118800Y-79108800D01*
G37*
X161118800Y-79108800D02*
X161017200Y-79108800D01*
X161017200Y-78967200D01*
X161118800Y-78967200D01*
X161118800Y-79108800D01*
G36*
X163049739Y-76397922D02*
X163130617Y-76478800D01*
X162883850Y-76478800D01*
X162737800Y-76624850D01*
X162737800Y-77612200D01*
X162757800Y-77612200D01*
X162757800Y-77713800D01*
X162737800Y-77713800D01*
X162737800Y-77733800D01*
X162636200Y-77733800D01*
X162636200Y-77713800D01*
X161873850Y-77713800D01*
X161727800Y-77859850D01*
X161727800Y-78181200D01*
X159805993Y-78181200D01*
X159807715Y-78178680D01*
X159826078Y-78088000D01*
X159826078Y-77737215D01*
X159914642Y-77719598D01*
X160013526Y-77653526D01*
X160908252Y-76758800D01*
X161805670Y-76758800D01*
X161727800Y-76946795D01*
X161727800Y-77466150D01*
X161873850Y-77612200D01*
X162636200Y-77612200D01*
X162636200Y-76624850D01*
X162490150Y-76478800D01*
X162331252Y-76478800D01*
X162460526Y-76349526D01*
X162493566Y-76300078D01*
X162845000Y-76300078D01*
X162929714Y-76284138D01*
X162987268Y-76247103D01*
X163049739Y-76397922D01*
X163049739Y-76397922D01*
G37*
X163049739Y-76397922D02*
X163130617Y-76478800D01*
X162883850Y-76478800D01*
X162737800Y-76624850D01*
X162737800Y-77612200D01*
X162757800Y-77612200D01*
X162757800Y-77713800D01*
X162737800Y-77713800D01*
X162737800Y-77733800D01*
X162636200Y-77733800D01*
X162636200Y-77713800D01*
X161873850Y-77713800D01*
X161727800Y-77859850D01*
X161727800Y-78181200D01*
X159805993Y-78181200D01*
X159807715Y-78178680D01*
X159826078Y-78088000D01*
X159826078Y-77737215D01*
X159914642Y-77719598D01*
X160013526Y-77653526D01*
X160908252Y-76758800D01*
X161805670Y-76758800D01*
X161727800Y-76946795D01*
X161727800Y-77466150D01*
X161873850Y-77612200D01*
X162636200Y-77612200D01*
X162636200Y-76624850D01*
X162490150Y-76478800D01*
X162331252Y-76478800D01*
X162460526Y-76349526D01*
X162493566Y-76300078D01*
X162845000Y-76300078D01*
X162929714Y-76284138D01*
X162987268Y-76247103D01*
X163049739Y-76397922D01*
G36*
X154038800Y-77488800D02*
X153897200Y-77488800D01*
X153897200Y-77387200D01*
X154038800Y-77387200D01*
X154038800Y-77488800D01*
X154038800Y-77488800D01*
G37*
X154038800Y-77488800D02*
X153897200Y-77488800D01*
X153897200Y-77387200D01*
X154038800Y-77387200D01*
X154038800Y-77488800D01*
G36*
X166380606Y-69685357D02*
X166255800Y-70211200D01*
X166255800Y-70561200D01*
X167589200Y-70561200D01*
X167589200Y-70541200D01*
X167690800Y-70541200D01*
X167690800Y-70561200D01*
X169024200Y-70561200D01*
X169024200Y-70211200D01*
X168899394Y-69685357D01*
X168614578Y-69291200D01*
X169776629Y-69291200D01*
X169452670Y-69507662D01*
X169229698Y-69841364D01*
X169151400Y-70234992D01*
X169151400Y-70989008D01*
X169229698Y-71382636D01*
X169452670Y-71716338D01*
X169786372Y-71939310D01*
X169918200Y-71965532D01*
X169918200Y-72976922D01*
X169623000Y-72976922D01*
X169538286Y-72992862D01*
X169460482Y-73042928D01*
X169408285Y-73119320D01*
X169393200Y-73193813D01*
X169393200Y-73168796D01*
X169304261Y-72954078D01*
X169139923Y-72789739D01*
X168925205Y-72700800D01*
X168405850Y-72700800D01*
X168259800Y-72846850D01*
X168259800Y-73609200D01*
X168279800Y-73609200D01*
X168279800Y-73710800D01*
X168259800Y-73710800D01*
X168259800Y-74473150D01*
X168405850Y-74619200D01*
X168925205Y-74619200D01*
X169139923Y-74530261D01*
X169304261Y-74365922D01*
X169393200Y-74151204D01*
X169393200Y-74127421D01*
X169405862Y-74194714D01*
X169455928Y-74272518D01*
X169532320Y-74324715D01*
X169623000Y-74343078D01*
X170823000Y-74343078D01*
X170907714Y-74327138D01*
X170985518Y-74277072D01*
X171037715Y-74200680D01*
X171056078Y-74110000D01*
X171056078Y-73210000D01*
X171040138Y-73125286D01*
X170990072Y-73047482D01*
X170913680Y-72995285D01*
X170823000Y-72976922D01*
X170527800Y-72976922D01*
X170527800Y-71948426D01*
X170573628Y-71939310D01*
X170907330Y-71716338D01*
X171130302Y-71382636D01*
X171208600Y-70989008D01*
X171208600Y-70234992D01*
X171130302Y-69841364D01*
X170907330Y-69507662D01*
X170583371Y-69291200D01*
X172316629Y-69291200D01*
X171992670Y-69507662D01*
X171769698Y-69841364D01*
X171691400Y-70234992D01*
X171691400Y-70989008D01*
X171769698Y-71382636D01*
X171992670Y-71716338D01*
X172326372Y-71939310D01*
X172720000Y-72017608D01*
X173113628Y-71939310D01*
X173447330Y-71716338D01*
X173670302Y-71382636D01*
X173748600Y-70989008D01*
X173748600Y-70234992D01*
X173670302Y-69841364D01*
X173447330Y-69507662D01*
X173123371Y-69291200D01*
X174303275Y-69291200D01*
X174297482Y-69294928D01*
X174245285Y-69371320D01*
X174226922Y-69462000D01*
X174226922Y-71762000D01*
X174242862Y-71846714D01*
X174292928Y-71924518D01*
X174369320Y-71976715D01*
X174460000Y-71995078D01*
X176060000Y-71995078D01*
X176144714Y-71979138D01*
X176222518Y-71929072D01*
X176274715Y-71852680D01*
X176293078Y-71762000D01*
X176293078Y-69462000D01*
X176277138Y-69377286D01*
X176227072Y-69299482D01*
X176214951Y-69291200D01*
X177088800Y-69291200D01*
X177088800Y-74608959D01*
X177019261Y-74441077D01*
X176854922Y-74276739D01*
X176703607Y-74214062D01*
X176738715Y-74162680D01*
X176757078Y-74072000D01*
X176757078Y-72872000D01*
X176741138Y-72787286D01*
X176691072Y-72709482D01*
X176614680Y-72657285D01*
X176524000Y-72638922D01*
X175774000Y-72638922D01*
X175689286Y-72654862D01*
X175611482Y-72704928D01*
X175559285Y-72781320D01*
X175540922Y-72872000D01*
X175540922Y-73169600D01*
X175130278Y-73169600D01*
X175130278Y-72874400D01*
X175114338Y-72789686D01*
X175064272Y-72711882D01*
X174987880Y-72659685D01*
X174897200Y-72641322D01*
X173997200Y-72641322D01*
X173912486Y-72657262D01*
X173834682Y-72707328D01*
X173782485Y-72783720D01*
X173764122Y-72874400D01*
X173764122Y-73169600D01*
X173540600Y-73169600D01*
X173423958Y-73192802D01*
X173325074Y-73258874D01*
X173256078Y-73327870D01*
X173256078Y-73210000D01*
X173240138Y-73125286D01*
X173190072Y-73047482D01*
X173113680Y-72995285D01*
X173023000Y-72976922D01*
X171823000Y-72976922D01*
X171738286Y-72992862D01*
X171660482Y-73042928D01*
X171608285Y-73119320D01*
X171589922Y-73210000D01*
X171589922Y-74110000D01*
X171605862Y-74194714D01*
X171655928Y-74272518D01*
X171732320Y-74324715D01*
X171732710Y-74324794D01*
X171640792Y-74343078D01*
X171638158Y-74343602D01*
X171539274Y-74409674D01*
X171107474Y-74841474D01*
X171041402Y-74940358D01*
X171027439Y-75010552D01*
X170990072Y-74952482D01*
X170913680Y-74900285D01*
X170823000Y-74881922D01*
X169623000Y-74881922D01*
X169538286Y-74897862D01*
X169460482Y-74947928D01*
X169408285Y-75024320D01*
X169389922Y-75115000D01*
X169389922Y-75260200D01*
X166547800Y-75260200D01*
X166431158Y-75283402D01*
X166332274Y-75349474D01*
X164868476Y-76813272D01*
X164828072Y-76750482D01*
X164751680Y-76698285D01*
X164661000Y-76679922D01*
X163761000Y-76679922D01*
X163676286Y-76695862D01*
X163598482Y-76745928D01*
X163576390Y-76778260D01*
X163557261Y-76732077D01*
X163476384Y-76651200D01*
X163948150Y-76651200D01*
X164094200Y-76505150D01*
X164094200Y-75742800D01*
X164195800Y-75742800D01*
X164195800Y-76505150D01*
X164341850Y-76651200D01*
X164861205Y-76651200D01*
X165075923Y-76562261D01*
X165240261Y-76397922D01*
X165329200Y-76183204D01*
X165329200Y-75888850D01*
X165183150Y-75742800D01*
X164195800Y-75742800D01*
X164094200Y-75742800D01*
X164074200Y-75742800D01*
X164074200Y-75641200D01*
X164094200Y-75641200D01*
X164094200Y-74878850D01*
X164195800Y-74878850D01*
X164195800Y-75641200D01*
X165183150Y-75641200D01*
X165329200Y-75495150D01*
X165329200Y-75200796D01*
X165240261Y-74986078D01*
X165075923Y-74821739D01*
X164861205Y-74732800D01*
X164341850Y-74732800D01*
X164195800Y-74878850D01*
X164094200Y-74878850D01*
X163948150Y-74732800D01*
X163428795Y-74732800D01*
X163214077Y-74821739D01*
X163049739Y-74986078D01*
X162987062Y-75137393D01*
X162935680Y-75102285D01*
X162845000Y-75083922D01*
X161645000Y-75083922D01*
X161560286Y-75099862D01*
X161482482Y-75149928D01*
X161430285Y-75226320D01*
X161411922Y-75317000D01*
X161411922Y-76067000D01*
X161427389Y-76149200D01*
X161278432Y-76149200D01*
X161295078Y-76067000D01*
X161295078Y-75317000D01*
X161279138Y-75232286D01*
X161229072Y-75154482D01*
X161152680Y-75102285D01*
X161062000Y-75083922D01*
X159862000Y-75083922D01*
X159777286Y-75099862D01*
X159719732Y-75136897D01*
X159657261Y-74986078D01*
X159492923Y-74821739D01*
X159278205Y-74732800D01*
X158758850Y-74732800D01*
X158612800Y-74878850D01*
X158612800Y-75641200D01*
X158632800Y-75641200D01*
X158632800Y-75742800D01*
X158612800Y-75742800D01*
X158612800Y-75762800D01*
X158511200Y-75762800D01*
X158511200Y-75742800D01*
X157523850Y-75742800D01*
X157377800Y-75888850D01*
X157377800Y-76149200D01*
X157341432Y-76149200D01*
X157358078Y-76067000D01*
X157358078Y-75317000D01*
X157342138Y-75232286D01*
X157321875Y-75200796D01*
X157377800Y-75200796D01*
X157377800Y-75495150D01*
X157523850Y-75641200D01*
X158511200Y-75641200D01*
X158511200Y-74878850D01*
X158365150Y-74732800D01*
X157845795Y-74732800D01*
X157631077Y-74821739D01*
X157466739Y-74986078D01*
X157377800Y-75200796D01*
X157321875Y-75200796D01*
X157292072Y-75154482D01*
X157215680Y-75102285D01*
X157125000Y-75083922D01*
X155925000Y-75083922D01*
X155840286Y-75099862D01*
X155782732Y-75136897D01*
X155720261Y-74986078D01*
X155555923Y-74821739D01*
X155341205Y-74732800D01*
X154821850Y-74732800D01*
X154675800Y-74878850D01*
X154675800Y-75641200D01*
X154695800Y-75641200D01*
X154695800Y-75742800D01*
X154675800Y-75742800D01*
X154675800Y-75762800D01*
X154574200Y-75762800D01*
X154574200Y-75742800D01*
X154554200Y-75742800D01*
X154554200Y-75641200D01*
X154574200Y-75641200D01*
X154574200Y-74878850D01*
X154428150Y-74732800D01*
X153908795Y-74732800D01*
X153720800Y-74810670D01*
X153720800Y-73659252D01*
X153796252Y-73583800D01*
X161671000Y-73583800D01*
X161787642Y-73560598D01*
X161886526Y-73494526D01*
X162393484Y-72987568D01*
X164928550Y-72987568D01*
X165013264Y-72971628D01*
X165091068Y-72921562D01*
X165143265Y-72845170D01*
X165161628Y-72754490D01*
X165161628Y-72247680D01*
X165965870Y-73051922D01*
X165709000Y-73051922D01*
X165624286Y-73067862D01*
X165546482Y-73117928D01*
X165494285Y-73194320D01*
X165475922Y-73285000D01*
X165475922Y-74035000D01*
X165491862Y-74119714D01*
X165541928Y-74197518D01*
X165618320Y-74249715D01*
X165709000Y-74268078D01*
X166909000Y-74268078D01*
X166993714Y-74252138D01*
X167051268Y-74215103D01*
X167113739Y-74365922D01*
X167278077Y-74530261D01*
X167492795Y-74619200D01*
X168012150Y-74619200D01*
X168158200Y-74473150D01*
X168158200Y-73710800D01*
X168138200Y-73710800D01*
X168138200Y-73609200D01*
X168158200Y-73609200D01*
X168158200Y-72846850D01*
X168012150Y-72700800D01*
X167492795Y-72700800D01*
X167278077Y-72789739D01*
X167113739Y-72954078D01*
X167051062Y-73105393D01*
X166999680Y-73070285D01*
X166909000Y-73051922D01*
X166613800Y-73051922D01*
X166613800Y-72964000D01*
X166590598Y-72847358D01*
X166524526Y-72748474D01*
X165315526Y-71539474D01*
X165216642Y-71473402D01*
X165161628Y-71462459D01*
X165161628Y-70755510D01*
X165145688Y-70670796D01*
X165140543Y-70662800D01*
X166255800Y-70662800D01*
X166255800Y-71012800D01*
X166380606Y-71538643D01*
X166697143Y-71976698D01*
X167157222Y-72260274D01*
X167373435Y-72320291D01*
X167589200Y-72199107D01*
X167589200Y-70662800D01*
X167690800Y-70662800D01*
X167690800Y-72199107D01*
X167906565Y-72320291D01*
X168122778Y-72260274D01*
X168582857Y-71976698D01*
X168899394Y-71538643D01*
X169024200Y-71012800D01*
X169024200Y-70662800D01*
X167690800Y-70662800D01*
X167589200Y-70662800D01*
X166255800Y-70662800D01*
X165140543Y-70662800D01*
X165095622Y-70592992D01*
X165019230Y-70540795D01*
X164928550Y-70522432D01*
X159429450Y-70522432D01*
X159344736Y-70538372D01*
X159266932Y-70588438D01*
X159214735Y-70664830D01*
X159196372Y-70755510D01*
X159196372Y-72754490D01*
X159212312Y-72839204D01*
X159262378Y-72917008D01*
X159338770Y-72969205D01*
X159363436Y-72974200D01*
X155601595Y-72974200D01*
X155615264Y-72971628D01*
X155693068Y-72921562D01*
X155745265Y-72845170D01*
X155763628Y-72754490D01*
X155763628Y-70755510D01*
X155747688Y-70670796D01*
X155697622Y-70592992D01*
X155621230Y-70540795D01*
X155530550Y-70522432D01*
X153085800Y-70522432D01*
X153085800Y-70358000D01*
X153062598Y-70241358D01*
X152996526Y-70142474D01*
X152488526Y-69634474D01*
X152389642Y-69568402D01*
X152273000Y-69545200D01*
X151643078Y-69545200D01*
X151643078Y-69475000D01*
X151627138Y-69390286D01*
X151577072Y-69312482D01*
X151545925Y-69291200D01*
X166665422Y-69291200D01*
X166380606Y-69685357D01*
X166380606Y-69685357D01*
G37*
X166380606Y-69685357D02*
X166255800Y-70211200D01*
X166255800Y-70561200D01*
X167589200Y-70561200D01*
X167589200Y-70541200D01*
X167690800Y-70541200D01*
X167690800Y-70561200D01*
X169024200Y-70561200D01*
X169024200Y-70211200D01*
X168899394Y-69685357D01*
X168614578Y-69291200D01*
X169776629Y-69291200D01*
X169452670Y-69507662D01*
X169229698Y-69841364D01*
X169151400Y-70234992D01*
X169151400Y-70989008D01*
X169229698Y-71382636D01*
X169452670Y-71716338D01*
X169786372Y-71939310D01*
X169918200Y-71965532D01*
X169918200Y-72976922D01*
X169623000Y-72976922D01*
X169538286Y-72992862D01*
X169460482Y-73042928D01*
X169408285Y-73119320D01*
X169393200Y-73193813D01*
X169393200Y-73168796D01*
X169304261Y-72954078D01*
X169139923Y-72789739D01*
X168925205Y-72700800D01*
X168405850Y-72700800D01*
X168259800Y-72846850D01*
X168259800Y-73609200D01*
X168279800Y-73609200D01*
X168279800Y-73710800D01*
X168259800Y-73710800D01*
X168259800Y-74473150D01*
X168405850Y-74619200D01*
X168925205Y-74619200D01*
X169139923Y-74530261D01*
X169304261Y-74365922D01*
X169393200Y-74151204D01*
X169393200Y-74127421D01*
X169405862Y-74194714D01*
X169455928Y-74272518D01*
X169532320Y-74324715D01*
X169623000Y-74343078D01*
X170823000Y-74343078D01*
X170907714Y-74327138D01*
X170985518Y-74277072D01*
X171037715Y-74200680D01*
X171056078Y-74110000D01*
X171056078Y-73210000D01*
X171040138Y-73125286D01*
X170990072Y-73047482D01*
X170913680Y-72995285D01*
X170823000Y-72976922D01*
X170527800Y-72976922D01*
X170527800Y-71948426D01*
X170573628Y-71939310D01*
X170907330Y-71716338D01*
X171130302Y-71382636D01*
X171208600Y-70989008D01*
X171208600Y-70234992D01*
X171130302Y-69841364D01*
X170907330Y-69507662D01*
X170583371Y-69291200D01*
X172316629Y-69291200D01*
X171992670Y-69507662D01*
X171769698Y-69841364D01*
X171691400Y-70234992D01*
X171691400Y-70989008D01*
X171769698Y-71382636D01*
X171992670Y-71716338D01*
X172326372Y-71939310D01*
X172720000Y-72017608D01*
X173113628Y-71939310D01*
X173447330Y-71716338D01*
X173670302Y-71382636D01*
X173748600Y-70989008D01*
X173748600Y-70234992D01*
X173670302Y-69841364D01*
X173447330Y-69507662D01*
X173123371Y-69291200D01*
X174303275Y-69291200D01*
X174297482Y-69294928D01*
X174245285Y-69371320D01*
X174226922Y-69462000D01*
X174226922Y-71762000D01*
X174242862Y-71846714D01*
X174292928Y-71924518D01*
X174369320Y-71976715D01*
X174460000Y-71995078D01*
X176060000Y-71995078D01*
X176144714Y-71979138D01*
X176222518Y-71929072D01*
X176274715Y-71852680D01*
X176293078Y-71762000D01*
X176293078Y-69462000D01*
X176277138Y-69377286D01*
X176227072Y-69299482D01*
X176214951Y-69291200D01*
X177088800Y-69291200D01*
X177088800Y-74608959D01*
X177019261Y-74441077D01*
X176854922Y-74276739D01*
X176703607Y-74214062D01*
X176738715Y-74162680D01*
X176757078Y-74072000D01*
X176757078Y-72872000D01*
X176741138Y-72787286D01*
X176691072Y-72709482D01*
X176614680Y-72657285D01*
X176524000Y-72638922D01*
X175774000Y-72638922D01*
X175689286Y-72654862D01*
X175611482Y-72704928D01*
X175559285Y-72781320D01*
X175540922Y-72872000D01*
X175540922Y-73169600D01*
X175130278Y-73169600D01*
X175130278Y-72874400D01*
X175114338Y-72789686D01*
X175064272Y-72711882D01*
X174987880Y-72659685D01*
X174897200Y-72641322D01*
X173997200Y-72641322D01*
X173912486Y-72657262D01*
X173834682Y-72707328D01*
X173782485Y-72783720D01*
X173764122Y-72874400D01*
X173764122Y-73169600D01*
X173540600Y-73169600D01*
X173423958Y-73192802D01*
X173325074Y-73258874D01*
X173256078Y-73327870D01*
X173256078Y-73210000D01*
X173240138Y-73125286D01*
X173190072Y-73047482D01*
X173113680Y-72995285D01*
X173023000Y-72976922D01*
X171823000Y-72976922D01*
X171738286Y-72992862D01*
X171660482Y-73042928D01*
X171608285Y-73119320D01*
X171589922Y-73210000D01*
X171589922Y-74110000D01*
X171605862Y-74194714D01*
X171655928Y-74272518D01*
X171732320Y-74324715D01*
X171732710Y-74324794D01*
X171640792Y-74343078D01*
X171638158Y-74343602D01*
X171539274Y-74409674D01*
X171107474Y-74841474D01*
X171041402Y-74940358D01*
X171027439Y-75010552D01*
X170990072Y-74952482D01*
X170913680Y-74900285D01*
X170823000Y-74881922D01*
X169623000Y-74881922D01*
X169538286Y-74897862D01*
X169460482Y-74947928D01*
X169408285Y-75024320D01*
X169389922Y-75115000D01*
X169389922Y-75260200D01*
X166547800Y-75260200D01*
X166431158Y-75283402D01*
X166332274Y-75349474D01*
X164868476Y-76813272D01*
X164828072Y-76750482D01*
X164751680Y-76698285D01*
X164661000Y-76679922D01*
X163761000Y-76679922D01*
X163676286Y-76695862D01*
X163598482Y-76745928D01*
X163576390Y-76778260D01*
X163557261Y-76732077D01*
X163476384Y-76651200D01*
X163948150Y-76651200D01*
X164094200Y-76505150D01*
X164094200Y-75742800D01*
X164195800Y-75742800D01*
X164195800Y-76505150D01*
X164341850Y-76651200D01*
X164861205Y-76651200D01*
X165075923Y-76562261D01*
X165240261Y-76397922D01*
X165329200Y-76183204D01*
X165329200Y-75888850D01*
X165183150Y-75742800D01*
X164195800Y-75742800D01*
X164094200Y-75742800D01*
X164074200Y-75742800D01*
X164074200Y-75641200D01*
X164094200Y-75641200D01*
X164094200Y-74878850D01*
X164195800Y-74878850D01*
X164195800Y-75641200D01*
X165183150Y-75641200D01*
X165329200Y-75495150D01*
X165329200Y-75200796D01*
X165240261Y-74986078D01*
X165075923Y-74821739D01*
X164861205Y-74732800D01*
X164341850Y-74732800D01*
X164195800Y-74878850D01*
X164094200Y-74878850D01*
X163948150Y-74732800D01*
X163428795Y-74732800D01*
X163214077Y-74821739D01*
X163049739Y-74986078D01*
X162987062Y-75137393D01*
X162935680Y-75102285D01*
X162845000Y-75083922D01*
X161645000Y-75083922D01*
X161560286Y-75099862D01*
X161482482Y-75149928D01*
X161430285Y-75226320D01*
X161411922Y-75317000D01*
X161411922Y-76067000D01*
X161427389Y-76149200D01*
X161278432Y-76149200D01*
X161295078Y-76067000D01*
X161295078Y-75317000D01*
X161279138Y-75232286D01*
X161229072Y-75154482D01*
X161152680Y-75102285D01*
X161062000Y-75083922D01*
X159862000Y-75083922D01*
X159777286Y-75099862D01*
X159719732Y-75136897D01*
X159657261Y-74986078D01*
X159492923Y-74821739D01*
X159278205Y-74732800D01*
X158758850Y-74732800D01*
X158612800Y-74878850D01*
X158612800Y-75641200D01*
X158632800Y-75641200D01*
X158632800Y-75742800D01*
X158612800Y-75742800D01*
X158612800Y-75762800D01*
X158511200Y-75762800D01*
X158511200Y-75742800D01*
X157523850Y-75742800D01*
X157377800Y-75888850D01*
X157377800Y-76149200D01*
X157341432Y-76149200D01*
X157358078Y-76067000D01*
X157358078Y-75317000D01*
X157342138Y-75232286D01*
X157321875Y-75200796D01*
X157377800Y-75200796D01*
X157377800Y-75495150D01*
X157523850Y-75641200D01*
X158511200Y-75641200D01*
X158511200Y-74878850D01*
X158365150Y-74732800D01*
X157845795Y-74732800D01*
X157631077Y-74821739D01*
X157466739Y-74986078D01*
X157377800Y-75200796D01*
X157321875Y-75200796D01*
X157292072Y-75154482D01*
X157215680Y-75102285D01*
X157125000Y-75083922D01*
X155925000Y-75083922D01*
X155840286Y-75099862D01*
X155782732Y-75136897D01*
X155720261Y-74986078D01*
X155555923Y-74821739D01*
X155341205Y-74732800D01*
X154821850Y-74732800D01*
X154675800Y-74878850D01*
X154675800Y-75641200D01*
X154695800Y-75641200D01*
X154695800Y-75742800D01*
X154675800Y-75742800D01*
X154675800Y-75762800D01*
X154574200Y-75762800D01*
X154574200Y-75742800D01*
X154554200Y-75742800D01*
X154554200Y-75641200D01*
X154574200Y-75641200D01*
X154574200Y-74878850D01*
X154428150Y-74732800D01*
X153908795Y-74732800D01*
X153720800Y-74810670D01*
X153720800Y-73659252D01*
X153796252Y-73583800D01*
X161671000Y-73583800D01*
X161787642Y-73560598D01*
X161886526Y-73494526D01*
X162393484Y-72987568D01*
X164928550Y-72987568D01*
X165013264Y-72971628D01*
X165091068Y-72921562D01*
X165143265Y-72845170D01*
X165161628Y-72754490D01*
X165161628Y-72247680D01*
X165965870Y-73051922D01*
X165709000Y-73051922D01*
X165624286Y-73067862D01*
X165546482Y-73117928D01*
X165494285Y-73194320D01*
X165475922Y-73285000D01*
X165475922Y-74035000D01*
X165491862Y-74119714D01*
X165541928Y-74197518D01*
X165618320Y-74249715D01*
X165709000Y-74268078D01*
X166909000Y-74268078D01*
X166993714Y-74252138D01*
X167051268Y-74215103D01*
X167113739Y-74365922D01*
X167278077Y-74530261D01*
X167492795Y-74619200D01*
X168012150Y-74619200D01*
X168158200Y-74473150D01*
X168158200Y-73710800D01*
X168138200Y-73710800D01*
X168138200Y-73609200D01*
X168158200Y-73609200D01*
X168158200Y-72846850D01*
X168012150Y-72700800D01*
X167492795Y-72700800D01*
X167278077Y-72789739D01*
X167113739Y-72954078D01*
X167051062Y-73105393D01*
X166999680Y-73070285D01*
X166909000Y-73051922D01*
X166613800Y-73051922D01*
X166613800Y-72964000D01*
X166590598Y-72847358D01*
X166524526Y-72748474D01*
X165315526Y-71539474D01*
X165216642Y-71473402D01*
X165161628Y-71462459D01*
X165161628Y-70755510D01*
X165145688Y-70670796D01*
X165140543Y-70662800D01*
X166255800Y-70662800D01*
X166255800Y-71012800D01*
X166380606Y-71538643D01*
X166697143Y-71976698D01*
X167157222Y-72260274D01*
X167373435Y-72320291D01*
X167589200Y-72199107D01*
X167589200Y-70662800D01*
X167690800Y-70662800D01*
X167690800Y-72199107D01*
X167906565Y-72320291D01*
X168122778Y-72260274D01*
X168582857Y-71976698D01*
X168899394Y-71538643D01*
X169024200Y-71012800D01*
X169024200Y-70662800D01*
X167690800Y-70662800D01*
X167589200Y-70662800D01*
X166255800Y-70662800D01*
X165140543Y-70662800D01*
X165095622Y-70592992D01*
X165019230Y-70540795D01*
X164928550Y-70522432D01*
X159429450Y-70522432D01*
X159344736Y-70538372D01*
X159266932Y-70588438D01*
X159214735Y-70664830D01*
X159196372Y-70755510D01*
X159196372Y-72754490D01*
X159212312Y-72839204D01*
X159262378Y-72917008D01*
X159338770Y-72969205D01*
X159363436Y-72974200D01*
X155601595Y-72974200D01*
X155615264Y-72971628D01*
X155693068Y-72921562D01*
X155745265Y-72845170D01*
X155763628Y-72754490D01*
X155763628Y-70755510D01*
X155747688Y-70670796D01*
X155697622Y-70592992D01*
X155621230Y-70540795D01*
X155530550Y-70522432D01*
X153085800Y-70522432D01*
X153085800Y-70358000D01*
X153062598Y-70241358D01*
X152996526Y-70142474D01*
X152488526Y-69634474D01*
X152389642Y-69568402D01*
X152273000Y-69545200D01*
X151643078Y-69545200D01*
X151643078Y-69475000D01*
X151627138Y-69390286D01*
X151577072Y-69312482D01*
X151545925Y-69291200D01*
X166665422Y-69291200D01*
X166380606Y-69685357D01*
M02*
