G04 #@! TF.FileFunction,Soldermask,Top*
%FSLAX46Y46*%
G04 Gerber Fmt 4.6, Leading zero omitted, Abs format (unit mm)*
G04 Created by KiCad (PCBNEW 4.0.2+dfsg1-stable) date Sat 23 Jul 2016 05:57:03 PM COT*
%MOMM*%
G01*
G04 APERTURE LIST*
%ADD10C,0.100000*%
%ADD11C,0.127000*%
%ADD12C,0.254000*%
%ADD13R,0.750000X1.200000*%
%ADD14R,1.727200X1.727200*%
%ADD15O,1.727200X1.727200*%
%ADD16R,1.000000X0.400000*%
%ADD17R,1.200000X0.750000*%
%ADD18R,1.350000X0.400000*%
%ADD19C,1.550000*%
%ADD20R,1.200000X0.900000*%
%ADD21R,0.900000X1.200000*%
%ADD22R,1.600000X2.300000*%
%ADD23O,1.600000X2.300000*%
%ADD24R,1.300000X0.250000*%
%ADD25R,0.250000X1.300000*%
%ADD26R,5.499100X1.998980*%
%ADD27R,1.198880X1.198880*%
G04 APERTURE END LIST*
D10*
D11*
X144544143Y-71490114D02*
X144544143Y-70728114D01*
X144834428Y-70728114D01*
X144907000Y-70764400D01*
X144943285Y-70800686D01*
X144979571Y-70873257D01*
X144979571Y-70982114D01*
X144943285Y-71054686D01*
X144907000Y-71090971D01*
X144834428Y-71127257D01*
X144544143Y-71127257D01*
X145415000Y-71490114D02*
X145342428Y-71453829D01*
X145306143Y-71417543D01*
X145269857Y-71344971D01*
X145269857Y-71127257D01*
X145306143Y-71054686D01*
X145342428Y-71018400D01*
X145415000Y-70982114D01*
X145523857Y-70982114D01*
X145596428Y-71018400D01*
X145632714Y-71054686D01*
X145669000Y-71127257D01*
X145669000Y-71344971D01*
X145632714Y-71417543D01*
X145596428Y-71453829D01*
X145523857Y-71490114D01*
X145415000Y-71490114D01*
X145923000Y-70982114D02*
X146068143Y-71490114D01*
X146213286Y-71127257D01*
X146358429Y-71490114D01*
X146503572Y-70982114D01*
X147084143Y-71453829D02*
X147011572Y-71490114D01*
X146866429Y-71490114D01*
X146793858Y-71453829D01*
X146757572Y-71381257D01*
X146757572Y-71090971D01*
X146793858Y-71018400D01*
X146866429Y-70982114D01*
X147011572Y-70982114D01*
X147084143Y-71018400D01*
X147120429Y-71090971D01*
X147120429Y-71163543D01*
X146757572Y-71236114D01*
X147447001Y-71490114D02*
X147447001Y-70982114D01*
X147447001Y-71127257D02*
X147483286Y-71054686D01*
X147519572Y-71018400D01*
X147592143Y-70982114D01*
X147664715Y-70982114D01*
D12*
X144568334Y-86650286D02*
X144145001Y-86650286D01*
X144145001Y-87315524D02*
X144145001Y-86045524D01*
X144749763Y-86045524D01*
X145052143Y-86045524D02*
X145777858Y-86045524D01*
X145415001Y-87315524D02*
X145415001Y-86045524D01*
X146140715Y-86952667D02*
X146745477Y-86952667D01*
X146019762Y-87315524D02*
X146443096Y-86045524D01*
X146866429Y-87315524D01*
X147955000Y-86106000D02*
X147834048Y-86045524D01*
X147652619Y-86045524D01*
X147471191Y-86106000D01*
X147350238Y-86226952D01*
X147289762Y-86347905D01*
X147229286Y-86589810D01*
X147229286Y-86771238D01*
X147289762Y-87013143D01*
X147350238Y-87134095D01*
X147471191Y-87255048D01*
X147652619Y-87315524D01*
X147773571Y-87315524D01*
X147955000Y-87255048D01*
X148015476Y-87194571D01*
X148015476Y-86771238D01*
X147773571Y-86771238D01*
D13*
X162687000Y-79563000D03*
X162687000Y-77663000D03*
D14*
X172085000Y-91440000D03*
D15*
X172085000Y-93980000D03*
X169545000Y-91440000D03*
X169545000Y-93980000D03*
X167005000Y-91440000D03*
X167005000Y-93980000D03*
X164465000Y-91440000D03*
X164465000Y-93980000D03*
X161925000Y-91440000D03*
X161925000Y-93980000D03*
X159385000Y-91440000D03*
X159385000Y-93980000D03*
X156845000Y-91440000D03*
X156845000Y-93980000D03*
X154305000Y-91440000D03*
X154305000Y-93980000D03*
X151765000Y-91440000D03*
X151765000Y-93980000D03*
X149225000Y-91440000D03*
X149225000Y-93980000D03*
D16*
X165756000Y-80641000D03*
X165756000Y-81291000D03*
X165756000Y-81941000D03*
X165756000Y-82591000D03*
X165756000Y-83241000D03*
X165756000Y-83891000D03*
X165756000Y-84541000D03*
X165756000Y-85191000D03*
X165756000Y-85841000D03*
X165756000Y-86491000D03*
X171556000Y-86491000D03*
X171556000Y-85841000D03*
X171556000Y-85191000D03*
X171556000Y-84541000D03*
X171556000Y-83891000D03*
X171556000Y-83241000D03*
X171556000Y-82591000D03*
X171556000Y-81941000D03*
X171556000Y-81291000D03*
X171556000Y-80641000D03*
D17*
X149418000Y-76835000D03*
X151318000Y-76835000D03*
D13*
X149860000Y-86040000D03*
X149860000Y-84140000D03*
D17*
X161483000Y-85852000D03*
X163383000Y-85852000D03*
X156525000Y-75692000D03*
X154625000Y-75692000D03*
D13*
X176149000Y-73472000D03*
X176149000Y-75372000D03*
D17*
X160462000Y-75692000D03*
X158562000Y-75692000D03*
X162245000Y-75692000D03*
X164145000Y-75692000D03*
X150810000Y-69850000D03*
X148910000Y-69850000D03*
X166309000Y-73660000D03*
X168209000Y-73660000D03*
D18*
X146850540Y-79725100D03*
X146850540Y-80375100D03*
X146850540Y-81025100D03*
X146850540Y-81675100D03*
X146850540Y-82325100D03*
D19*
X146850540Y-78525100D03*
X146850540Y-83525100D03*
X144150540Y-77525100D03*
X144150540Y-84525100D03*
D20*
X147150000Y-74930000D03*
X144950000Y-74930000D03*
X170223000Y-73660000D03*
X172423000Y-73660000D03*
X170223000Y-75565000D03*
X172423000Y-75565000D03*
D21*
X174447200Y-73474400D03*
X174447200Y-75674400D03*
X164211000Y-77513000D03*
X164211000Y-79713000D03*
X149860000Y-78529000D03*
X149860000Y-80729000D03*
X163576000Y-83904000D03*
X163576000Y-81704000D03*
D22*
X175260000Y-70612000D03*
D23*
X172720000Y-70612000D03*
X170180000Y-70612000D03*
X167640000Y-70612000D03*
X167640000Y-78232000D03*
X170180000Y-78232000D03*
X172720000Y-78232000D03*
X175260000Y-78232000D03*
D24*
X152368000Y-79038000D03*
X152368000Y-79538000D03*
X152368000Y-80038000D03*
X152368000Y-80538000D03*
X152368000Y-81038000D03*
X152368000Y-81538000D03*
X152368000Y-82038000D03*
X152368000Y-82538000D03*
X152368000Y-83038000D03*
X152368000Y-83538000D03*
X152368000Y-84038000D03*
X152368000Y-84538000D03*
D25*
X153968000Y-86138000D03*
X154468000Y-86138000D03*
X154968000Y-86138000D03*
X155468000Y-86138000D03*
X155968000Y-86138000D03*
X156468000Y-86138000D03*
X156968000Y-86138000D03*
X157468000Y-86138000D03*
X157968000Y-86138000D03*
X158468000Y-86138000D03*
X158968000Y-86138000D03*
X159468000Y-86138000D03*
D24*
X161068000Y-84538000D03*
X161068000Y-84038000D03*
X161068000Y-83538000D03*
X161068000Y-83038000D03*
X161068000Y-82538000D03*
X161068000Y-82038000D03*
X161068000Y-81538000D03*
X161068000Y-81038000D03*
X161068000Y-80538000D03*
X161068000Y-80038000D03*
X161068000Y-79538000D03*
X161068000Y-79038000D03*
D25*
X159468000Y-77438000D03*
X158968000Y-77438000D03*
X158468000Y-77438000D03*
X157968000Y-77438000D03*
X157468000Y-77438000D03*
X156968000Y-77438000D03*
X156468000Y-77438000D03*
X155968000Y-77438000D03*
X155468000Y-77438000D03*
X154968000Y-77438000D03*
X154468000Y-77438000D03*
X153968000Y-77438000D03*
D26*
X152781000Y-71755000D03*
X162179000Y-71755000D03*
D17*
X149418000Y-75184000D03*
X151318000Y-75184000D03*
D27*
X145000980Y-72898000D03*
X147099020Y-72898000D03*
M02*
