G04 #@! TF.FileFunction,Legend,Bot*
%FSLAX46Y46*%
G04 Gerber Fmt 4.6, Leading zero omitted, Abs format (unit mm)*
G04 Created by KiCad (PCBNEW 4.0.2+dfsg1-stable) date Sat 23 Jul 2016 05:57:03 PM COT*
%MOMM*%
G01*
G04 APERTURE LIST*
%ADD10C,0.100000*%
%ADD11C,0.254000*%
G04 APERTURE END LIST*
D10*
D11*
X172641381Y-89438238D02*
X171625381Y-89099571D01*
X172641381Y-88760905D01*
X171673762Y-87986810D02*
X171625381Y-88083572D01*
X171625381Y-88277095D01*
X171673762Y-88373857D01*
X171722143Y-88422238D01*
X171818905Y-88470619D01*
X172109190Y-88470619D01*
X172205952Y-88422238D01*
X172254333Y-88373857D01*
X172302714Y-88277095D01*
X172302714Y-88083572D01*
X172254333Y-87986810D01*
X171673762Y-87115953D02*
X171625381Y-87212715D01*
X171625381Y-87406238D01*
X171673762Y-87503000D01*
X171722143Y-87551381D01*
X171818905Y-87599762D01*
X172109190Y-87599762D01*
X172205952Y-87551381D01*
X172254333Y-87503000D01*
X172302714Y-87406238D01*
X172302714Y-87212715D01*
X172254333Y-87115953D01*
X171625381Y-85906429D02*
X172641381Y-85906429D01*
X172641381Y-85229095D02*
X172641381Y-85035572D01*
X172593000Y-84938810D01*
X172496238Y-84842048D01*
X172302714Y-84793667D01*
X171964048Y-84793667D01*
X171770524Y-84842048D01*
X171673762Y-84938810D01*
X171625381Y-85035572D01*
X171625381Y-85229095D01*
X171673762Y-85325857D01*
X171770524Y-85422619D01*
X171964048Y-85471000D01*
X172302714Y-85471000D01*
X172496238Y-85422619D01*
X172593000Y-85325857D01*
X172641381Y-85229095D01*
X162481381Y-89438238D02*
X162481381Y-88857667D01*
X161465381Y-89147952D02*
X162481381Y-89147952D01*
X161562143Y-87938429D02*
X161513762Y-87986810D01*
X161465381Y-88131953D01*
X161465381Y-88228715D01*
X161513762Y-88373857D01*
X161610524Y-88470619D01*
X161707286Y-88519000D01*
X161900810Y-88567381D01*
X162045952Y-88567381D01*
X162239476Y-88519000D01*
X162336238Y-88470619D01*
X162433000Y-88373857D01*
X162481381Y-88228715D01*
X162481381Y-88131953D01*
X162433000Y-87986810D01*
X162384619Y-87938429D01*
X161465381Y-87503000D02*
X162481381Y-87503000D01*
X161465381Y-86922429D02*
X162045952Y-87357857D01*
X162481381Y-86922429D02*
X161900810Y-87503000D01*
X162529762Y-85761286D02*
X161223476Y-86632143D01*
X162481381Y-85567762D02*
X162481381Y-84987191D01*
X161465381Y-85277476D02*
X162481381Y-85277476D01*
X162481381Y-84745286D02*
X161465381Y-84067953D01*
X162481381Y-84067953D02*
X161465381Y-84745286D01*
X162529762Y-82955191D02*
X161223476Y-83826048D01*
X161513762Y-82664905D02*
X161465381Y-82519762D01*
X161465381Y-82277858D01*
X161513762Y-82181096D01*
X161562143Y-82132715D01*
X161658905Y-82084334D01*
X161755667Y-82084334D01*
X161852429Y-82132715D01*
X161900810Y-82181096D01*
X161949190Y-82277858D01*
X161997571Y-82471381D01*
X162045952Y-82568143D01*
X162094333Y-82616524D01*
X162191095Y-82664905D01*
X162287857Y-82664905D01*
X162384619Y-82616524D01*
X162433000Y-82568143D01*
X162481381Y-82471381D01*
X162481381Y-82229477D01*
X162433000Y-82084334D01*
X161465381Y-81648905D02*
X162481381Y-81648905D01*
X161465381Y-81068334D02*
X162045952Y-81503762D01*
X162481381Y-81068334D02*
X161900810Y-81648905D01*
X165021381Y-89438238D02*
X165021381Y-88857667D01*
X164005381Y-89147952D02*
X165021381Y-89147952D01*
X164005381Y-88519000D02*
X165021381Y-88519000D01*
X164295667Y-88180334D01*
X165021381Y-87841667D01*
X164005381Y-87841667D01*
X164053762Y-87406238D02*
X164005381Y-87261095D01*
X164005381Y-87019191D01*
X164053762Y-86922429D01*
X164102143Y-86874048D01*
X164198905Y-86825667D01*
X164295667Y-86825667D01*
X164392429Y-86874048D01*
X164440810Y-86922429D01*
X164489190Y-87019191D01*
X164537571Y-87212714D01*
X164585952Y-87309476D01*
X164634333Y-87357857D01*
X164731095Y-87406238D01*
X164827857Y-87406238D01*
X164924619Y-87357857D01*
X164973000Y-87309476D01*
X165021381Y-87212714D01*
X165021381Y-86970810D01*
X164973000Y-86825667D01*
X165069762Y-85664524D02*
X163763476Y-86535381D01*
X164102143Y-84745286D02*
X164053762Y-84793667D01*
X164005381Y-84938810D01*
X164005381Y-85035572D01*
X164053762Y-85180714D01*
X164150524Y-85277476D01*
X164247286Y-85325857D01*
X164440810Y-85374238D01*
X164585952Y-85374238D01*
X164779476Y-85325857D01*
X164876238Y-85277476D01*
X164973000Y-85180714D01*
X165021381Y-85035572D01*
X165021381Y-84938810D01*
X164973000Y-84793667D01*
X164924619Y-84745286D01*
X165021381Y-84455000D02*
X165021381Y-83874429D01*
X164005381Y-84164714D02*
X165021381Y-84164714D01*
X164053762Y-83584143D02*
X164005381Y-83439000D01*
X164005381Y-83197096D01*
X164053762Y-83100334D01*
X164102143Y-83051953D01*
X164198905Y-83003572D01*
X164295667Y-83003572D01*
X164392429Y-83051953D01*
X164440810Y-83100334D01*
X164489190Y-83197096D01*
X164537571Y-83390619D01*
X164585952Y-83487381D01*
X164634333Y-83535762D01*
X164731095Y-83584143D01*
X164827857Y-83584143D01*
X164924619Y-83535762D01*
X164973000Y-83487381D01*
X165021381Y-83390619D01*
X165021381Y-83148715D01*
X164973000Y-83003572D01*
X165069762Y-81842429D02*
X163763476Y-82713286D01*
X164102143Y-80923191D02*
X164053762Y-80971572D01*
X164005381Y-81116715D01*
X164005381Y-81213477D01*
X164053762Y-81358619D01*
X164150524Y-81455381D01*
X164247286Y-81503762D01*
X164440810Y-81552143D01*
X164585952Y-81552143D01*
X164779476Y-81503762D01*
X164876238Y-81455381D01*
X164973000Y-81358619D01*
X165021381Y-81213477D01*
X165021381Y-81116715D01*
X164973000Y-80971572D01*
X164924619Y-80923191D01*
X164053762Y-80536143D02*
X164005381Y-80391000D01*
X164005381Y-80149096D01*
X164053762Y-80052334D01*
X164102143Y-80003953D01*
X164198905Y-79955572D01*
X164295667Y-79955572D01*
X164392429Y-80003953D01*
X164440810Y-80052334D01*
X164489190Y-80149096D01*
X164537571Y-80342619D01*
X164585952Y-80439381D01*
X164634333Y-80487762D01*
X164731095Y-80536143D01*
X164827857Y-80536143D01*
X164924619Y-80487762D01*
X164973000Y-80439381D01*
X165021381Y-80342619D01*
X165021381Y-80100715D01*
X164973000Y-79955572D01*
X167561381Y-89438238D02*
X167561381Y-88857667D01*
X166545381Y-89147952D02*
X167561381Y-89147952D01*
X166545381Y-88519000D02*
X167561381Y-88519000D01*
X167561381Y-88277095D01*
X167513000Y-88131953D01*
X167416238Y-88035191D01*
X167319476Y-87986810D01*
X167125952Y-87938429D01*
X166980810Y-87938429D01*
X166787286Y-87986810D01*
X166690524Y-88035191D01*
X166593762Y-88131953D01*
X166545381Y-88277095D01*
X166545381Y-88519000D01*
X166545381Y-87503000D02*
X167561381Y-87503000D01*
X167609762Y-86293476D02*
X166303476Y-87164333D01*
X166545381Y-85374238D02*
X167029190Y-85712904D01*
X166545381Y-85954809D02*
X167561381Y-85954809D01*
X167561381Y-85567762D01*
X167513000Y-85471000D01*
X167464619Y-85422619D01*
X167367857Y-85374238D01*
X167222714Y-85374238D01*
X167125952Y-85422619D01*
X167077571Y-85471000D01*
X167029190Y-85567762D01*
X167029190Y-85954809D01*
X167561381Y-85035571D02*
X166545381Y-84358238D01*
X167561381Y-84358238D02*
X166545381Y-85035571D01*
X167609762Y-83245476D02*
X166303476Y-84116333D01*
X166545381Y-82906809D02*
X167561381Y-82906809D01*
X167561381Y-82664904D01*
X167513000Y-82519762D01*
X167416238Y-82423000D01*
X167319476Y-82374619D01*
X167125952Y-82326238D01*
X166980810Y-82326238D01*
X166787286Y-82374619D01*
X166690524Y-82423000D01*
X166593762Y-82519762D01*
X166545381Y-82664904D01*
X166545381Y-82906809D01*
X167561381Y-81697285D02*
X167561381Y-81503762D01*
X167513000Y-81407000D01*
X167416238Y-81310238D01*
X167222714Y-81261857D01*
X166884048Y-81261857D01*
X166690524Y-81310238D01*
X166593762Y-81407000D01*
X166545381Y-81503762D01*
X166545381Y-81697285D01*
X166593762Y-81794047D01*
X166690524Y-81890809D01*
X166884048Y-81939190D01*
X167222714Y-81939190D01*
X167416238Y-81890809D01*
X167513000Y-81794047D01*
X167561381Y-81697285D01*
X170101381Y-89438238D02*
X170101381Y-88857667D01*
X169085381Y-89147952D02*
X170101381Y-89147952D01*
X169085381Y-87938429D02*
X169569190Y-88277095D01*
X169085381Y-88519000D02*
X170101381Y-88519000D01*
X170101381Y-88131953D01*
X170053000Y-88035191D01*
X170004619Y-87986810D01*
X169907857Y-87938429D01*
X169762714Y-87938429D01*
X169665952Y-87986810D01*
X169617571Y-88035191D01*
X169569190Y-88131953D01*
X169569190Y-88519000D01*
X169133762Y-87551381D02*
X169085381Y-87406238D01*
X169085381Y-87164334D01*
X169133762Y-87067572D01*
X169182143Y-87019191D01*
X169278905Y-86970810D01*
X169375667Y-86970810D01*
X169472429Y-87019191D01*
X169520810Y-87067572D01*
X169569190Y-87164334D01*
X169617571Y-87357857D01*
X169665952Y-87454619D01*
X169714333Y-87503000D01*
X169811095Y-87551381D01*
X169907857Y-87551381D01*
X170004619Y-87503000D01*
X170053000Y-87454619D01*
X170101381Y-87357857D01*
X170101381Y-87115953D01*
X170053000Y-86970810D01*
X170101381Y-86680524D02*
X170101381Y-86099953D01*
X169085381Y-86390238D02*
X170101381Y-86390238D01*
X158925381Y-88712524D02*
X159409190Y-89051190D01*
X158925381Y-89293095D02*
X159941381Y-89293095D01*
X159941381Y-88906048D01*
X159893000Y-88809286D01*
X159844619Y-88760905D01*
X159747857Y-88712524D01*
X159602714Y-88712524D01*
X159505952Y-88760905D01*
X159457571Y-88809286D01*
X159409190Y-88906048D01*
X159409190Y-89293095D01*
X159941381Y-88422238D02*
X159941381Y-87841667D01*
X158925381Y-88131952D02*
X159941381Y-88131952D01*
X159022143Y-86922429D02*
X158973762Y-86970810D01*
X158925381Y-87115953D01*
X158925381Y-87212715D01*
X158973762Y-87357857D01*
X159070524Y-87454619D01*
X159167286Y-87503000D01*
X159360810Y-87551381D01*
X159505952Y-87551381D01*
X159699476Y-87503000D01*
X159796238Y-87454619D01*
X159893000Y-87357857D01*
X159941381Y-87212715D01*
X159941381Y-87115953D01*
X159893000Y-86970810D01*
X159844619Y-86922429D01*
X158925381Y-86487000D02*
X159941381Y-86487000D01*
X158925381Y-85906429D02*
X159505952Y-86341857D01*
X159941381Y-85906429D02*
X159360810Y-86487000D01*
X159989762Y-84745286D02*
X158683476Y-85616143D01*
X158925381Y-83826048D02*
X159409190Y-84164714D01*
X158925381Y-84406619D02*
X159941381Y-84406619D01*
X159941381Y-84019572D01*
X159893000Y-83922810D01*
X159844619Y-83874429D01*
X159747857Y-83826048D01*
X159602714Y-83826048D01*
X159505952Y-83874429D01*
X159457571Y-83922810D01*
X159409190Y-84019572D01*
X159409190Y-84406619D01*
X158925381Y-83390619D02*
X159941381Y-83390619D01*
X157401381Y-89438238D02*
X157401381Y-88857667D01*
X156385381Y-89147952D02*
X157401381Y-89147952D01*
X156385381Y-88519000D02*
X157401381Y-88519000D01*
X157401381Y-88277095D01*
X157353000Y-88131953D01*
X157256238Y-88035191D01*
X157159476Y-87986810D01*
X156965952Y-87938429D01*
X156820810Y-87938429D01*
X156627286Y-87986810D01*
X156530524Y-88035191D01*
X156433762Y-88131953D01*
X156385381Y-88277095D01*
X156385381Y-88519000D01*
X157401381Y-87309476D02*
X157401381Y-87115953D01*
X157353000Y-87019191D01*
X157256238Y-86922429D01*
X157062714Y-86874048D01*
X156724048Y-86874048D01*
X156530524Y-86922429D01*
X156433762Y-87019191D01*
X156385381Y-87115953D01*
X156385381Y-87309476D01*
X156433762Y-87406238D01*
X156530524Y-87503000D01*
X156724048Y-87551381D01*
X157062714Y-87551381D01*
X157256238Y-87503000D01*
X157353000Y-87406238D01*
X157401381Y-87309476D01*
X157449762Y-85712905D02*
X156143476Y-86583762D01*
X156385381Y-84793667D02*
X156869190Y-85132333D01*
X156385381Y-85374238D02*
X157401381Y-85374238D01*
X157401381Y-84987191D01*
X157353000Y-84890429D01*
X157304619Y-84842048D01*
X157207857Y-84793667D01*
X157062714Y-84793667D01*
X156965952Y-84842048D01*
X156917571Y-84890429D01*
X156869190Y-84987191D01*
X156869190Y-85374238D01*
X157401381Y-84503381D02*
X157401381Y-83922810D01*
X156385381Y-84213095D02*
X157401381Y-84213095D01*
X156433762Y-83632524D02*
X156385381Y-83487381D01*
X156385381Y-83245477D01*
X156433762Y-83148715D01*
X156482143Y-83100334D01*
X156578905Y-83051953D01*
X156675667Y-83051953D01*
X156772429Y-83100334D01*
X156820810Y-83148715D01*
X156869190Y-83245477D01*
X156917571Y-83439000D01*
X156965952Y-83535762D01*
X157014333Y-83584143D01*
X157111095Y-83632524D01*
X157207857Y-83632524D01*
X157304619Y-83584143D01*
X157353000Y-83535762D01*
X157401381Y-83439000D01*
X157401381Y-83197096D01*
X157353000Y-83051953D01*
X157449762Y-81890810D02*
X156143476Y-82761667D01*
X156385381Y-81552143D02*
X157401381Y-81552143D01*
X157401381Y-81310238D01*
X157353000Y-81165096D01*
X157256238Y-81068334D01*
X157159476Y-81019953D01*
X156965952Y-80971572D01*
X156820810Y-80971572D01*
X156627286Y-81019953D01*
X156530524Y-81068334D01*
X156433762Y-81165096D01*
X156385381Y-81310238D01*
X156385381Y-81552143D01*
X156385381Y-80536143D02*
X157401381Y-80536143D01*
X153893762Y-89341476D02*
X153845381Y-89196333D01*
X153845381Y-88954429D01*
X153893762Y-88857667D01*
X153942143Y-88809286D01*
X154038905Y-88760905D01*
X154135667Y-88760905D01*
X154232429Y-88809286D01*
X154280810Y-88857667D01*
X154329190Y-88954429D01*
X154377571Y-89147952D01*
X154425952Y-89244714D01*
X154474333Y-89293095D01*
X154571095Y-89341476D01*
X154667857Y-89341476D01*
X154764619Y-89293095D01*
X154813000Y-89244714D01*
X154861381Y-89147952D01*
X154861381Y-88906048D01*
X154813000Y-88760905D01*
X153845381Y-87744905D02*
X154329190Y-88083571D01*
X153845381Y-88325476D02*
X154861381Y-88325476D01*
X154861381Y-87938429D01*
X154813000Y-87841667D01*
X154764619Y-87793286D01*
X154667857Y-87744905D01*
X154522714Y-87744905D01*
X154425952Y-87793286D01*
X154377571Y-87841667D01*
X154329190Y-87938429D01*
X154329190Y-88325476D01*
X153893762Y-87357857D02*
X153845381Y-87212714D01*
X153845381Y-86970810D01*
X153893762Y-86874048D01*
X153942143Y-86825667D01*
X154038905Y-86777286D01*
X154135667Y-86777286D01*
X154232429Y-86825667D01*
X154280810Y-86874048D01*
X154329190Y-86970810D01*
X154377571Y-87164333D01*
X154425952Y-87261095D01*
X154474333Y-87309476D01*
X154571095Y-87357857D01*
X154667857Y-87357857D01*
X154764619Y-87309476D01*
X154813000Y-87261095D01*
X154861381Y-87164333D01*
X154861381Y-86922429D01*
X154813000Y-86777286D01*
X154861381Y-86487000D02*
X154861381Y-85906429D01*
X153845381Y-86196714D02*
X154861381Y-86196714D01*
X151051381Y-89002810D02*
X150325667Y-89002810D01*
X150180524Y-89051190D01*
X150083762Y-89147952D01*
X150035381Y-89293095D01*
X150035381Y-89389857D01*
X151051381Y-88664143D02*
X151051381Y-88083572D01*
X150035381Y-88373857D02*
X151051381Y-88373857D01*
X150325667Y-87793286D02*
X150325667Y-87309477D01*
X150035381Y-87890048D02*
X151051381Y-87551381D01*
X150035381Y-87212715D01*
X151003000Y-86341858D02*
X151051381Y-86438620D01*
X151051381Y-86583763D01*
X151003000Y-86728905D01*
X150906238Y-86825667D01*
X150809476Y-86874048D01*
X150615952Y-86922429D01*
X150470810Y-86922429D01*
X150277286Y-86874048D01*
X150180524Y-86825667D01*
X150083762Y-86728905D01*
X150035381Y-86583763D01*
X150035381Y-86487001D01*
X150083762Y-86341858D01*
X150132143Y-86293477D01*
X150470810Y-86293477D01*
X150470810Y-86487001D01*
X151099762Y-85132334D02*
X149793476Y-86003191D01*
X150035381Y-84213096D02*
X150519190Y-84551762D01*
X150035381Y-84793667D02*
X151051381Y-84793667D01*
X151051381Y-84406620D01*
X151003000Y-84309858D01*
X150954619Y-84261477D01*
X150857857Y-84213096D01*
X150712714Y-84213096D01*
X150615952Y-84261477D01*
X150567571Y-84309858D01*
X150519190Y-84406620D01*
X150519190Y-84793667D01*
X150083762Y-83826048D02*
X150035381Y-83680905D01*
X150035381Y-83439001D01*
X150083762Y-83342239D01*
X150132143Y-83293858D01*
X150228905Y-83245477D01*
X150325667Y-83245477D01*
X150422429Y-83293858D01*
X150470810Y-83342239D01*
X150519190Y-83439001D01*
X150567571Y-83632524D01*
X150615952Y-83729286D01*
X150664333Y-83777667D01*
X150761095Y-83826048D01*
X150857857Y-83826048D01*
X150954619Y-83777667D01*
X151003000Y-83729286D01*
X151051381Y-83632524D01*
X151051381Y-83390620D01*
X151003000Y-83245477D01*
X150954619Y-82858429D02*
X151003000Y-82810048D01*
X151051381Y-82713286D01*
X151051381Y-82471382D01*
X151003000Y-82374620D01*
X150954619Y-82326239D01*
X150857857Y-82277858D01*
X150761095Y-82277858D01*
X150615952Y-82326239D01*
X150035381Y-82906810D01*
X150035381Y-82277858D01*
X151051381Y-81939191D02*
X151051381Y-81310239D01*
X150664333Y-81648905D01*
X150664333Y-81503763D01*
X150615952Y-81407001D01*
X150567571Y-81358620D01*
X150470810Y-81310239D01*
X150228905Y-81310239D01*
X150132143Y-81358620D01*
X150083762Y-81407001D01*
X150035381Y-81503763D01*
X150035381Y-81794048D01*
X150083762Y-81890810D01*
X150132143Y-81939191D01*
X150954619Y-80923191D02*
X151003000Y-80874810D01*
X151051381Y-80778048D01*
X151051381Y-80536144D01*
X151003000Y-80439382D01*
X150954619Y-80391001D01*
X150857857Y-80342620D01*
X150761095Y-80342620D01*
X150615952Y-80391001D01*
X150035381Y-80971572D01*
X150035381Y-80342620D01*
X151099762Y-79181477D02*
X149793476Y-80052334D01*
X150083762Y-78891191D02*
X150035381Y-78746048D01*
X150035381Y-78504144D01*
X150083762Y-78407382D01*
X150132143Y-78359001D01*
X150228905Y-78310620D01*
X150325667Y-78310620D01*
X150422429Y-78359001D01*
X150470810Y-78407382D01*
X150519190Y-78504144D01*
X150567571Y-78697667D01*
X150615952Y-78794429D01*
X150664333Y-78842810D01*
X150761095Y-78891191D01*
X150857857Y-78891191D01*
X150954619Y-78842810D01*
X151003000Y-78794429D01*
X151051381Y-78697667D01*
X151051381Y-78455763D01*
X151003000Y-78310620D01*
X150035381Y-77875191D02*
X151051381Y-77875191D01*
X151051381Y-77488144D01*
X151003000Y-77391382D01*
X150954619Y-77343001D01*
X150857857Y-77294620D01*
X150712714Y-77294620D01*
X150615952Y-77343001D01*
X150567571Y-77391382D01*
X150519190Y-77488144D01*
X150519190Y-77875191D01*
X150035381Y-76859191D02*
X151051381Y-76859191D01*
M02*
