M48
;DRILL file {Pcbnew (2013-07-07 BZR 4022)-stable} date 7/16/2015 11:13:15 AM
;FORMAT={-:-/ absolute / inch / decimal}
FMAT,2
INCH,TZ
T1C0.013
T2C0.032
T3C0.035
T4C0.039
%
G90
G05
M72
T1
X8.478Y-6.5296
X8.4796Y-6.717
X8.504Y-6.966
X8.5324Y-6.3532
X8.594Y-6.446
X8.595Y-6.788
X8.655Y-6.972
X8.699Y-6.514
X8.7Y-6.725
X8.7685Y-6.5605
X8.782Y-6.996
X8.795Y-6.67
X8.8066Y-6.844
X8.8088Y-6.3994
X8.8106Y-6.9358
X8.862Y-6.401
X8.87Y-6.82
X8.873Y-7.05
X8.885Y-6.602
X8.8886Y-6.6612
X8.891Y-6.5365
X8.894Y-6.696
X8.894Y-6.975
X8.9Y-6.91
X8.9145Y-6.484
X8.9244Y-6.354
X8.928Y-6.696
X8.9475Y-6.502
X8.955Y-6.602
X8.972Y-6.664
X8.975Y-6.7
X8.975Y-6.9425
X8.985Y-6.85
X9.025Y-6.7
X9.0495Y-6.4855
X9.0588Y-6.6214
X9.0616Y-6.3168
X9.0784Y-6.6752
X9.08Y-6.8575
X9.0875Y-6.95
X9.1092Y-6.5884
X9.16Y-6.79
X9.24Y-6.7775
X9.2675Y-6.8675
X9.275Y-6.6752
X9.2785Y-6.58
X9.28Y-6.9725
X9.325Y-6.32
X9.3525Y-6.79
X9.37Y-6.98
X9.3825Y-6.8175
X9.395Y-6.8725
X9.42Y-6.795
X9.4295Y-6.676
X9.455Y-6.32
X9.475Y-6.98
X9.4975Y-6.6765
X9.525Y-6.7775
X9.5325Y-6.9175
X9.535Y-7.0125
X9.56Y-6.395
X9.58Y-7.245
X9.595Y-6.9575
X9.5975Y-7.0775
X9.605Y-6.34
X9.613Y-6.638
X9.62Y-6.46
X9.62Y-6.705
X9.645Y-6.395
X9.692Y-6.476
X9.6978Y-6.7102
X9.7Y-6.32
X9.707Y-6.795
X9.7075Y-7.2325
X9.715Y-6.9625
X9.72Y-7.0325
X9.7625Y-7.1425
X9.7775Y-7.055
X9.7875Y-6.755
X9.79Y-6.65
X9.795Y-6.473
X9.8575Y-6.9175
X9.87Y-7.15
X9.8704Y-6.5214
X9.875Y-6.705
X9.875Y-6.8125
X9.875Y-7.05
T2
X9.48Y-6.56
X9.48Y-6.86
X9.58Y-6.56
X9.58Y-6.86
X9.68Y-6.56
X9.68Y-6.86
X9.78Y-6.56
X9.78Y-6.86
X9.82Y-7.
X9.82Y-7.1
X9.82Y-7.2
T3
X8.5985Y-6.5334
X8.5985Y-6.7066
T4
X8.625Y-7.075
X8.625Y-7.175
X8.725Y-7.075
X8.725Y-7.175
X8.825Y-7.075
X8.825Y-7.175
X8.925Y-7.075
X8.925Y-7.175
X9.025Y-7.075
X9.025Y-7.175
X9.125Y-7.075
X9.125Y-7.175
X9.225Y-7.075
X9.225Y-7.175
X9.325Y-7.075
X9.325Y-7.175
X9.425Y-7.075
X9.425Y-7.175
X9.525Y-7.075
X9.525Y-7.175
T0
M30
